<svg width="170" height="170" fill="none" xmlns="http://www.w3.org/2000/svg"><g clip-path="url(#clip0_202_237)" fill="#F5F5F9"><path d="M133.215 46.747L65.005 22.53a4.083 4.083 0 00-5.218 2.483l-33.42 94.131a4.086 4.086 0 002.483 5.217l68.21 24.217a13.446 13.446 0 0017.151-8.163l27.166-76.519a13.445 13.445 0 00-8.162-17.15zM90.55 126.995l-34.23-12.153a4.085 4.085 0 01-.389-7.54 4.092 4.092 0 013.123-.161l34.23 12.153a4.085 4.085 0 11-2.734 7.701zm-11.04-23.191A26.791 26.791 0 0161.72 79.94a26.788 26.788 0 1151.996 7.582 26.814 26.814 0 01-34.206 16.282z"/><path d="M70.629 76.688l2.55.96a3.667 3.667 0 006.771 2.547l15.543 5.848a3.667 3.667 0 006.772 2.548l2.222.836c.546.205 1.174-.004 1.544-.516l.165-.228c.082-.113.147-.235.195-.363.117-.31.133-.653.038-.968a1.51 1.51 0 01.038-.968l.456-1.212.126-.682a4.845 4.845 0 00-.184-2.496l-1.405-3.982a.941.941 0 01.115-.844c.345-.512.127-1.206-.424-1.354l-2.105-.563-6.365-2.696a22.476 22.476 0 00-2.208-.801l-4.729-1.44a3.669 3.669 0 00-1.501-.135l-5.971.694a3.684 3.684 0 01-1.064-.03l-5.094-.889c-.845-.147-1.725.21-2.3.933l-.731.92a2.6 2.6 0 01-.93.742l-.335.156a.956.956 0 00-.386.335l-.791 1.184-.485 1.29c-.182.482.03 1.007.473 1.174zm33.963 5.401l1.381.88a.34.34 0 01.159.277l.044 1.178a.344.344 0 01-.169.31l-.217.126a.343.343 0 01-.434-.072l-1.02-1.189a.343.343 0 01-.077-.16l-.189-.996a.343.343 0 01.522-.354zm-10.8-2.22l-1.115-.42a.468.468 0 01.33-.874l1.115.42a.468.468 0 01-.33.874zm2.95 7.57a2.43 2.43 0 01-.041-1.218 1.526 1.526 0 00.764.246 1.61 1.61 0 00.021.677 1.42 1.42 0 00-.455.125 1.497 1.497 0 00-.29.17zm2.634-2.314a1.647 1.647 0 00-.676.022 1.525 1.525 0 00-.296-.745 2.43 2.43 0 011.219-.04 1.518 1.518 0 00-.247.763zm-1.234.275a1.634 1.634 0 00-.462.494 1.523 1.523 0 00-.737-.318c.203-.37.492-.673.834-.89a1.519 1.519 0 00.365.714zm-.227 3.501a2.44 2.44 0 01-.89-.834 1.519 1.519 0 00.714-.366c.129.184.295.342.494.463a1.42 1.42 0 00-.234.41c-.042.113-.07.224-.084.327zm.943-1.53a.662.662 0 11.466-1.24.662.662 0 01-.466 1.24zm-.299 1.772a1.515 1.515 0 00.247-.764c.23.04.459.031.677-.022a1.526 1.526 0 00.296.745 2.44 2.44 0 01-1.22.041zm2.541-.99c-.187.27-.425.494-.695.665a1.482 1.482 0 00-.105-.319 1.419 1.419 0 00-.26-.394 1.631 1.631 0 00.463-.494c.106.09.247.172.411.233.112.043.222.07.326.084a2.29 2.29 0 01-.14.225zm.341-2.088c.114.388.133.807.041 1.22a1.501 1.501 0 00-.301-.153 1.416 1.416 0 00-.463-.095 1.62 1.62 0 00-.022-.676 1.525 1.525 0 00.745-.296zm-.603-.522a1.39 1.39 0 00-.394.26 1.652 1.652 0 00-.495-.462c.09-.106.173-.247.234-.41.043-.113.07-.224.084-.327.371.203.674.493.89.835a1.48 1.48 0 00-.319.104zM98.621 74.87l3.889 1.647a1.328 1.328 0 00.181.062l.645.173c.097.026.14.14.084.224l-.61.91a2.314 2.314 0 01-2.4.974l-1.952-.498a.148.148 0 01-.087-.223 2.674 2.674 0 00.312-2.073l-.262-1.024a.147.147 0 01.2-.172zm-16.22-2.628l.029-.004 5.971-.693a2.27 2.27 0 01.94.083l4.731 1.441a21.207 21.207 0 012.073.752c.385.163.672.497.775.902l.43 1.683a1.32 1.32 0 01-.986 1.615l-.44.1a1.32 1.32 0 01-.746-.047L82.25 73.36a.578.578 0 01-.373-.454.587.587 0 01.523-.664zm-7.974 6.802a2.44 2.44 0 01-.04-1.22 1.518 1.518 0 00.763.248 1.617 1.617 0 00.022.676 1.427 1.427 0 00-.456.125 1.5 1.5 0 00-.289.171zm1.174 1.461a2.441 2.441 0 01-.89-.834 1.517 1.517 0 00.714-.366c.129.184.295.343.494.463a1.515 1.515 0 00-.318.737zm.644.243a1.515 1.515 0 00.247-.764c.229.04.459.03.677-.022a1.522 1.522 0 00.296.745 2.44 2.44 0 01-1.22.04zm2.54-.991c-.186.27-.424.494-.694.666a1.495 1.495 0 00-.105-.32 1.421 1.421 0 00-.26-.394 1.602 1.602 0 00.462-.494 1.522 1.522 0 00.737.318 2.153 2.153 0 01-.14.224zm.053-1.916c.109-.05.206-.108.289-.171.114.388.133.806.04 1.219a1.52 1.52 0 00-.763-.247c.04-.229.032-.459-.022-.676.138-.012.296-.053.456-.125zm-.885-1.632c.371.202.673.492.89.834a1.519 1.519 0 00-.714.365 1.648 1.648 0 00-.494-.463 1.521 1.521 0 00.318-.737zm-.556 2.381a.662.662 0 11-1.239-.467.662.662 0 011.239.467zm-.088-2.624a1.517 1.517 0 00-.246.764 1.648 1.648 0 00-.678.022 1.526 1.526 0 00-.296-.745 2.433 2.433 0 011.22-.04zm-1.741.644c.072.16.164.295.26.394a1.632 1.632 0 00-.462.495 1.529 1.529 0 00-.737-.318c.203-.371.493-.673.834-.89.02.102.055.21.105.32zm-1.794-4.377l.81-.857a.343.343 0 01.301-.104l1.62.25a.343.343 0 01.159.609l-.8.625a.343.343 0 01-.163.07l-1.55.22a.343.343 0 01-.374-.23l-.08-.24a.343.343 0 01.077-.343z"/></g><defs><clipPath id="clip0_202_237"><path fill="#fff" transform="rotate(20.161 22.729 127.85)" d="M0 0h131.89v131.89H0z"/></clipPath></defs></svg>