<svg width="159" height="160" fill="none" xmlns="http://www.w3.org/2000/svg"><g clip-path="url(#clip0_202_258)"><path d="M128.102 39.89l-68.835-25.1a4.137 4.137 0 00-5.303 2.47l-34.638 94.993a4.132 4.132 0 001.09 4.464c.4.367.868.652 1.379.838l68.835 25.1a13.605 13.605 0 0017.43-8.115l28.157-77.22a13.612 13.612 0 00-8.115-17.43zm-43.877 80.862l-34.543-12.596a4.138 4.138 0 01-2.469-5.303 4.136 4.136 0 015.303-2.468l34.543 12.595a4.138 4.138 0 012.468 5.303 4.136 4.136 0 01-5.302 2.469zM73.25 97.182a27.116 27.116 0 1134.764-16.186A27.143 27.143 0 0173.25 97.182z" fill="#F5F5F9"/><g clip-path="url(#clip1_202_258)"><path d="M88.622 78.08a6.759 6.759 0 00-.002-1.546c-.06-.463-.215-.954-.466-1.475a11.84 11.84 0 00-.718-1.305c-.227-.35-.562-.773-1.005-1.272a25.24 25.24 0 00-1.066-1.144 61.198 61.198 0 00-1.178-1.12c-.457-.43-.796-.755-1.016-.973-.22-.219-.506-.517-.855-.897-.35-.379-.6-.69-.75-.933a8.347 8.347 0 01-.448-.851 2.105 2.105 0 01-.216-.928c.006-.294.07-.59.193-.89.322-.785.93-1.283 1.826-1.495.896-.212 1.891-.093 2.987.356.485.199.951.467 1.398.806a8.33 8.33 0 011.104.978c.29.314.551.637.786.97.234.331.396.576.486.735.09.158.146.261.166.31a.596.596 0 00.417.313c.178.06.349.021.512-.113l2.438-1.951c.233-.174.294-.405.183-.694a6.367 6.367 0 00-.16-.348 9.73 9.73 0 00-.47-.78 9.014 9.014 0 00-.832-1.099 11.987 11.987 0 00-1.267-1.197 10.439 10.439 0 00-1.749-1.182l1.25-3.045a.584.584 0 00.007-.462.583.583 0 00-.334-.319l-2.336-.958a.575.575 0 00-.457.005.575.575 0 00-.324.321l-1.277 3.115c-1.953-.397-3.741-.228-5.364.508-1.622.736-2.76 1.9-3.413 3.492a6.481 6.481 0 00-.406 1.41c-.077.466-.113.9-.109 1.3.005.399.073.817.203 1.255.13.437.265.823.405 1.156.14.334.347.705.624 1.115.276.41.518.749.725 1.015.208.267.495.594.862.98s.66.685.876.895c.217.21.512.5.887.869.523.498.908.874 1.153 1.13.246.256.55.597.915 1.022.365.426.613.78.746 1.064.133.284.227.606.282.965.055.36.016.7-.116 1.023-.374.912-1.018 1.47-1.93 1.674-.913.205-1.837.116-2.771-.267a6.53 6.53 0 01-1.224-.663c-1.376-.916-2.482-2.212-3.317-3.888l-.02-.049a.464.464 0 00-.352-.325c-.194-.053-.355-.038-.483.044l-2.74 1.605c-.268.16-.353.4-.256.723.029.093.087.239.175.436.087.198.267.524.538.98.271.454.585.906.94 1.355.355.449.835.945 1.44 1.49a11.81 11.81 0 001.986 1.441l-1.242 3.028a.576.576 0 00.005.457.574.574 0 00.322.324l2.335.958a.583.583 0 00.462.008.583.583 0 00.319-.335l1.242-3.027c1.957.452 3.771.277 5.442-.527 1.67-.804 2.868-2.088 3.591-3.853.236-.577.384-1.15.44-1.72z" fill="#F5F5F9"/></g></g><defs><clipPath id="clip0_202_258"><path fill="#fff" transform="rotate(20.034 18.521 120.578)" d="M0 0h123.849v123.849H0z"/></clipPath><clipPath id="clip1_202_258"><path fill="#fff" transform="rotate(22.305 -89.36 210.008)" d="M0 0h33.511v33.511H0z"/></clipPath></defs></svg>