<svg width="35" height="64" fill="none" xmlns="http://www.w3.org/2000/svg"><path d="M12.356 56.975l-1.466-.161-1.266 3.006 1.14.936-1.054 2.503-7.777-6.783 1.184-2.813 10.287.822-1.048 2.49zm-4.47 1.415l.767-1.82-3.457-.376 2.69 2.196zm9.345-12.995l-1.466-.161L14.5 48.24l1.14.936-1.053 2.503-7.778-6.783 1.185-2.813 10.287.822-1.049 2.49zm-4.469 1.415l.766-1.82-3.457-.376 2.691 2.196zm8.51-14.045c.577 1.013.617 2.108.12 3.287-.495 1.178-1.309 1.92-2.439 2.223-1.136.292-2.417.137-3.845-.464-1.428-.602-2.43-1.408-3.007-2.42-.581-1.025-.624-2.127-.127-3.305.496-1.178 1.312-1.913 2.447-2.205 1.13-.304 2.41-.155 3.838.446 1.427.601 2.432 1.414 3.014 2.438zm-5.192 2.736c1.643.692 2.666.56 3.068-.395.402-.955-.219-1.778-1.862-2.47-1.643-.691-2.665-.56-3.067.395-.402.955.218 1.778 1.861 2.47zm8.614-10.863c.577 1.012.617 2.108.12 3.286-.496 1.179-1.309 1.92-2.44 2.224-1.135.291-2.416.136-3.844-.465-1.428-.6-2.43-1.408-3.007-2.42-.581-1.025-.624-2.126-.128-3.304.496-1.179 1.312-1.914 2.448-2.206 1.13-.303 2.41-.155 3.837.446 1.428.602 2.433 1.414 3.014 2.439zm-5.192 2.736c1.643.691 2.665.56 3.067-.395.402-.955-.218-1.778-1.861-2.47-1.643-.692-2.666-.56-3.068.395-.402.955.219 1.778 1.862 2.47zm8.614-10.863c.576 1.012.616 2.107.12 3.286-.496 1.178-1.31 1.92-2.44 2.223-1.135.292-2.417.137-3.845-.464-1.428-.601-2.43-1.408-3.006-2.42-.582-1.025-.624-2.126-.128-3.305.496-1.178 1.312-1.913 2.447-2.205 1.13-.304 2.41-.155 3.838.446s2.433 1.414 3.014 2.439zm-5.192 2.735c1.643.692 2.665.56 3.067-.394.402-.955-.218-1.779-1.861-2.47-1.643-.692-2.666-.56-3.068.394-.402.955.219 1.778 1.862 2.47zm11.51-14.71l-1.087 2.58-5.13.893 4.038 1.7-.972 2.31-9.032-3.802.972-2.31 3.794 1.597-2.756-4.062 1.086-2.58 3.181 4.711 5.906-1.038z" fill="#fff"/></svg>