<svg width="170" height="170" viewBox="0 0 170 170" fill="none" xmlns="http://www.w3.org/2000/svg">
<g clip-path="url(#clip0_202_237)">
<path d="M133.215 46.7466L65.0042 22.5296C64.4986 22.35 63.9625 22.2718 63.4266 22.2995C62.8908 22.3271 62.3656 22.46 61.8811 22.6906C61.3966 22.9212 60.9623 23.245 60.6029 23.6435C60.2436 24.042 59.9663 24.5073 59.7868 25.013L26.3671 119.144C26.1875 119.65 26.1093 120.186 26.137 120.722C26.1646 121.257 26.2975 121.783 26.5281 122.267C26.7587 122.752 27.0825 123.186 27.481 123.545C27.8795 123.905 28.3448 124.182 28.8505 124.361L97.0608 148.578C100.418 149.766 104.109 149.574 107.324 148.044C110.539 146.513 113.016 143.77 114.211 140.415L141.377 63.8964C142.565 60.5395 142.373 56.8485 140.843 53.6333C139.312 50.418 136.569 47.9413 133.215 46.7466ZM90.5497 126.995L56.3202 114.842C55.299 114.48 54.4637 113.726 53.998 112.748C53.5322 111.769 53.4743 110.646 53.8368 109.625C54.1994 108.603 54.9528 107.768 55.9312 107.302C56.9097 106.837 58.0331 106.779 59.0542 107.141L93.2837 119.294C94.3049 119.656 95.1402 120.41 95.606 121.388C96.0717 122.367 96.1296 123.49 95.7671 124.511C95.4045 125.532 94.6511 126.368 93.6727 126.834C92.6942 127.299 91.5709 127.357 90.5497 126.995ZM79.5112 103.804C74.5185 102.031 70.1635 98.8177 66.997 94.5701C63.8305 90.3224 61.9946 85.2311 61.7216 79.94C61.4487 74.649 62.7508 69.3958 65.4634 64.8448C68.1759 60.2938 72.1771 56.6494 76.961 54.3724C81.7448 52.0954 87.0964 51.2881 92.339 52.0526C97.5816 52.8171 102.48 55.1191 106.414 58.6674C110.349 62.2157 113.142 66.851 114.442 71.9871C115.742 77.1232 115.49 82.5295 113.717 87.5222C111.334 94.2125 106.394 99.6841 99.9812 102.736C93.5684 105.789 86.2067 106.173 79.5112 103.804Z" fill="#F5F5F9"/>
<path d="M70.6289 76.6877L73.1791 77.6472C72.8361 79.3757 73.7825 81.1474 75.4859 81.7883C77.1893 82.4292 79.0689 81.7208 79.9504 80.1949L95.4933 86.0429C95.1503 87.7714 96.0968 89.5432 97.8002 90.1841C99.5036 90.825 101.383 90.1165 102.265 88.5906L104.487 89.4268C105.033 89.6323 105.661 89.4226 106.031 88.9113L106.196 88.6832C106.278 88.5705 106.343 88.448 106.391 88.3204C106.508 88.0094 106.524 87.667 106.429 87.352C106.335 87.0412 106.348 86.6988 106.467 86.3843L106.923 85.172L107.049 84.4897C107.206 83.6426 107.143 82.779 106.865 81.9936L105.46 78.0123C105.387 77.8063 105.393 77.5769 105.471 77.3694C105.497 77.2989 105.532 77.2315 105.575 77.1682C105.92 76.6557 105.702 75.9617 105.151 75.8143L103.046 75.2514L96.6815 72.5552C95.9597 72.2496 95.2228 71.9823 94.4727 71.7536L89.7444 70.3136C89.2619 70.1656 88.7521 70.1195 88.2427 70.1787L82.2715 70.8726C81.9145 70.914 81.5573 70.9042 81.2084 70.8429L76.1141 69.9545C75.2687 69.8069 74.3894 70.1636 73.8141 70.8867L73.0828 71.8074C72.8285 72.1272 72.5095 72.3815 72.1522 72.5486L71.8178 72.7048C71.6637 72.7773 71.5301 72.8933 71.4319 73.0403L70.6409 74.2241L70.1559 75.5131C69.9744 75.9955 70.1862 76.5212 70.6289 76.6877ZM104.592 82.0893L105.973 82.9692C106.069 83.0298 106.128 83.1332 106.132 83.2459L106.176 84.4244C106.181 84.5506 106.115 84.6692 106.007 84.7332L105.79 84.8602C105.647 84.9442 105.464 84.9137 105.356 84.7877L104.336 83.5993C104.297 83.5537 104.27 83.4987 104.259 83.4397L104.07 82.4425C104.014 82.1473 104.338 81.9278 104.592 82.0893ZM93.7925 79.8694L92.6771 79.4498C92.4355 79.3589 92.3133 79.0893 92.4042 78.8476C92.4951 78.606 92.7648 78.4837 93.0064 78.5747L94.1218 78.9943C94.3634 79.0852 94.4856 79.3549 94.3947 79.5965C94.3038 79.8381 94.0341 79.9603 93.7925 79.8694ZM96.7413 87.4398C96.6512 87.1327 96.6207 86.8074 96.6577 86.4811C96.667 86.3941 96.6814 86.3073 96.7006 86.2205C96.7877 86.2779 96.889 86.3301 97.0013 86.3724C97.165 86.434 97.3254 86.465 97.4645 86.4673C97.4463 86.5704 97.4379 86.6736 97.4397 86.7753C97.4408 86.9003 97.4567 87.0238 97.4861 87.1436C97.3477 87.1556 97.19 87.1967 97.0306 87.269C96.9217 87.3179 96.8242 87.377 96.7413 87.4398ZM99.3762 85.1252C99.1475 85.0849 98.9177 85.0943 98.6997 85.1474C98.6883 85.0091 98.6473 84.8509 98.5749 84.692C98.5254 84.5829 98.4668 84.4857 98.404 84.4027C98.792 84.2883 99.2104 84.2695 99.6229 84.3618C99.5654 84.4489 99.5132 84.5503 99.471 84.6625C99.4094 84.8262 99.3789 84.9868 99.3762 85.1252ZM98.1422 85.4C97.9587 85.5285 97.8 85.6956 97.6801 85.8943C97.5738 85.805 97.4328 85.722 97.2692 85.6604C97.1569 85.6182 97.0463 85.5906 96.9429 85.5764C97.1459 85.2056 97.4353 84.9032 97.7771 84.6868C97.7981 84.7887 97.8326 84.8969 97.8821 85.006C97.9543 85.1655 98.0457 85.3004 98.1422 85.4ZM97.9151 88.901C97.5443 88.698 97.242 88.408 97.0255 88.0668C97.1274 88.0458 97.2356 88.0113 97.3447 87.9618C97.5041 87.8896 97.6392 87.7976 97.7389 87.7011C97.8678 87.8848 98.0345 88.0433 98.233 88.1638C98.1436 88.2701 98.0606 88.411 97.9991 88.5747C97.9568 88.687 97.9292 88.7976 97.9151 88.901ZM98.8582 87.3719C98.7676 87.3378 98.6885 87.2857 98.6241 87.221C98.4455 87.0427 98.3771 86.7701 98.4714 86.5195C98.6 86.1776 98.9825 86.0042 99.3244 86.1329C99.6662 86.2615 99.8396 86.644 99.711 86.9858C99.6167 87.2365 99.3855 87.3964 99.1337 87.4127C99.0427 87.4189 98.9488 87.406 98.8582 87.3719ZM98.559 89.1433C98.6165 89.0562 98.6692 88.955 98.7114 88.8427C98.773 88.679 98.8035 88.5183 98.8059 88.3794C99.0351 88.4198 99.2649 88.4104 99.4829 88.3573C99.4943 88.4956 99.5353 88.6538 99.6075 88.8132C99.657 88.9223 99.7156 89.0196 99.7784 89.1026C99.3907 89.2165 98.9722 89.2353 98.559 89.1433ZM101.1 88.1525C100.913 88.4223 100.675 88.6466 100.405 88.8184C100.384 88.7165 100.35 88.6078 100.3 88.4992C100.228 88.3398 100.136 88.2047 100.04 88.1046C100.142 88.034 100.235 87.9516 100.318 87.8583C100.387 87.7829 100.448 87.6998 100.503 87.6104C100.609 87.7002 100.75 87.7827 100.914 87.8443C101.026 87.8865 101.136 87.9141 101.24 87.9283C101.197 88.0062 101.151 88.081 101.1 88.1525ZM101.441 86.0655C101.555 86.4532 101.574 86.8717 101.482 87.2843C101.395 87.2269 101.294 87.1746 101.181 87.1324C101.018 87.0708 100.857 87.0403 100.718 87.0375C100.759 86.8089 100.75 86.5787 100.696 86.3611C100.834 86.3495 100.992 86.3086 101.152 86.2363C101.261 86.1869 101.358 86.1282 101.441 86.0655ZM100.838 85.5434C100.679 85.6152 100.543 85.7071 100.444 85.8036C100.315 85.6199 100.148 85.4615 99.9492 85.3407C100.039 85.2352 100.122 85.0942 100.183 84.9305C100.226 84.8183 100.253 84.7074 100.267 84.6041C100.638 84.8065 100.941 85.0967 101.157 85.4385C101.055 85.4595 100.947 85.4939 100.838 85.5434ZM98.6211 74.8702L102.51 76.5174C102.527 76.5247 102.544 76.5317 102.562 76.5383C102.604 76.5542 102.647 76.568 102.691 76.5797L103.336 76.752C103.433 76.7781 103.476 76.8924 103.42 76.9762L102.81 77.8857C102.284 78.6697 101.334 79.0554 100.41 78.86L98.4579 78.3619C98.3609 78.3372 98.3177 78.2259 98.3699 78.1407C98.3702 78.1401 98.3706 78.1395 98.371 78.1389C98.7536 77.5129 98.8643 76.7768 98.6827 76.0659L98.4211 75.0421C98.391 74.9242 98.5089 74.8227 98.6211 74.8702ZM82.4003 72.2418C82.4101 72.2407 82.42 72.2396 82.4298 72.2385L88.4013 71.5446C88.7224 71.5072 89.0385 71.5353 89.3409 71.6282L94.072 73.069C94.5014 73.1999 94.9318 73.3463 95.3509 73.504C95.6167 73.604 95.8839 73.7108 96.1451 73.8214C96.5302 73.9845 96.8168 74.318 96.9204 74.7231L97.3504 76.4063C97.5344 77.1264 97.0882 77.8563 96.3636 78.0211L95.9236 78.1211C95.6759 78.1774 95.4172 78.1611 95.1785 78.074L82.2503 73.3598C82.057 73.2893 81.9111 73.1191 81.8772 72.9055C81.8252 72.5786 82.0713 72.278 82.4003 72.2418ZM74.427 79.0441C74.3374 78.7371 74.3065 78.4117 74.3435 78.0854C74.3527 77.9984 74.3672 77.9116 74.3863 77.8247C74.4734 77.8822 74.5748 77.9344 74.687 77.9766C74.8508 78.0383 75.0112 78.0692 75.1502 78.0716C75.132 78.1746 75.1237 78.2779 75.1254 78.3796C75.1265 78.5046 75.1424 78.6281 75.1719 78.7479C75.0339 78.76 74.8757 78.801 74.7163 78.8733C74.6074 78.9222 74.51 78.9813 74.427 79.0441ZM75.6013 80.5054C75.2305 80.3025 74.9277 80.0123 74.7112 79.671C74.8132 79.6501 74.9213 79.6155 75.0304 79.5661C75.1898 79.4938 75.3249 79.4019 75.4247 79.3054C75.5536 79.4891 75.7202 79.6476 75.9193 79.7683C75.8294 79.8743 75.7464 80.0153 75.6848 80.179C75.6425 80.2912 75.6155 80.4021 75.6013 80.5054ZM76.2453 80.7477C76.3028 80.6607 76.355 80.5592 76.3972 80.447C76.4588 80.2833 76.4893 80.1226 76.4922 79.9838C76.7209 80.0241 76.9507 80.0147 77.1687 79.9616C77.1801 80.0999 77.2211 80.2581 77.2933 80.4175C77.3428 80.5266 77.4014 80.6239 77.4642 80.7068C77.0764 80.8207 76.6579 80.8396 76.2453 80.7477ZM78.7859 79.7568C78.5986 80.0266 78.3613 80.2511 78.0911 80.4227C78.0701 80.3207 78.0358 80.212 77.9861 80.1035C77.9139 79.9441 77.8224 79.8092 77.7262 79.7089C77.8274 79.6383 77.9207 79.5558 78.004 79.4626C78.0723 79.3872 78.1341 79.3041 78.1883 79.2146C78.2944 79.3045 78.4356 79.387 78.5992 79.4486C78.7115 79.4908 78.8221 79.5183 78.9255 79.5325C78.8827 79.6105 78.8363 79.6853 78.7859 79.7568ZM78.8376 77.8406C78.9467 77.7912 79.044 77.7326 79.1269 77.6698C79.2413 78.0577 79.2596 78.476 79.1678 78.8886C79.0807 78.8312 78.9794 78.7789 78.8671 78.7367C78.7034 78.6751 78.5428 78.6446 78.4039 78.6418C78.4447 78.4132 78.4356 78.183 78.3823 77.9655C78.5205 77.954 78.6782 77.9128 78.8376 77.8406ZM77.9532 76.2085C78.3242 76.411 78.6264 76.701 78.8428 77.0427C78.7409 77.0637 78.6327 77.0982 78.5236 77.1477C78.3644 77.2194 78.2293 77.3114 78.1295 77.4078C78.0006 77.2242 77.834 77.0657 77.6355 76.9452C77.7246 76.8394 77.8076 76.6985 77.8692 76.5348C77.9114 76.4226 77.939 76.3119 77.9532 76.2085ZM77.3967 78.5901C77.3024 78.8408 77.0713 79.0007 76.8195 79.017C76.7284 79.0233 76.6346 79.0103 76.544 78.9762C76.4534 78.9421 76.3742 78.89 76.3099 78.8252C76.1313 78.647 76.0629 78.3744 76.1572 78.1237C76.2858 77.7819 76.6684 77.6085 77.0102 77.7371C77.352 77.8657 77.5254 78.2483 77.3967 78.5901ZM77.3092 75.9662C77.2517 76.0533 77.199 76.1545 77.1568 76.2667C77.0952 76.4304 77.0647 76.5911 77.0625 76.7296C76.8333 76.6892 76.6035 76.6985 76.3855 76.7516C76.3741 76.6134 76.3331 76.4551 76.2607 76.2963C76.2112 76.1872 76.1526 76.0899 76.0898 76.0069C76.4778 75.8926 76.8968 75.874 77.3092 75.9662ZM75.5678 76.6103C75.64 76.7697 75.732 76.9048 75.8279 77.0044C75.6444 77.1328 75.4857 77.2999 75.3658 77.4987C75.2595 77.4093 75.1186 77.3263 74.9549 77.2647C74.8426 77.2225 74.732 77.195 74.6286 77.1807C74.8316 76.8099 75.1216 76.5077 75.4628 76.2911C75.4838 76.393 75.5183 76.5012 75.5678 76.6103ZM73.7736 72.2331L74.5834 71.3758C74.6609 71.2938 74.7737 71.2551 74.8851 71.2723L76.5042 71.5215C76.8014 71.5673 76.9002 71.9458 76.6635 72.131L75.8641 72.7563C75.8168 72.7933 75.7606 72.8172 75.7012 72.8257L74.1507 73.0469C73.9864 73.0704 73.8289 72.9729 73.7765 72.8154L73.6973 72.5769C73.6576 72.457 73.6868 72.325 73.7736 72.2331Z" fill="#F5F5F9"/>
</g>
<defs>
<clipPath id="clip0_202_237">
<rect width="131.89" height="131.89" fill="white" transform="translate(45.457) rotate(20.161)"/>
</clipPath>
</defs>
</svg>
