<svg width="159" height="159" viewBox="0 0 159 159" fill="none" xmlns="http://www.w3.org/2000/svg">
<g id="passport_icon_150911 1" clip-path="url(#clip0_202_249)">
<g id="Passport">
<path id="Vector" d="M86.2588 89.1607C88.7244 88.6665 91.0661 87.6836 93.1456 86.2698C95.2252 84.856 97.0005 83.04 98.3669 80.9289L92.0867 78.6389C90.4094 82.5389 88.428 86.1799 86.2588 89.1607Z" fill="#F5F5F9"/>
<path id="Vector_2" d="M76.2703 87.9517C78.0618 86.6653 81.3066 82.6281 84.3009 75.8003L77.9443 73.4824C75.8409 80.6351 75.7255 85.8134 76.2703 87.9517Z" fill="#F5F5F9"/>
<path id="Vector_3" d="M63.8804 68.354C63.5672 70.8486 63.7567 73.3807 64.4377 75.8009C65.1188 78.2211 66.2776 80.4804 67.8459 82.4456C68.1045 78.7688 68.9317 74.7069 70.1582 70.6431L63.8804 68.354Z" fill="#F5F5F9"/>
<path id="Vector_4" d="M97.2334 59.064C96.9748 62.7414 96.1473 66.8032 94.9204 70.868L101.201 73.158C101.514 70.6629 101.324 68.1303 100.643 65.7096C99.9615 63.289 98.8022 61.0293 97.2334 59.064Z" fill="#F5F5F9"/>
<path id="Vector_5" d="M80.778 65.7108L87.1346 68.0287C89.2374 60.8781 89.3529 55.6999 88.8107 53.5602C87.0173 54.8459 83.7724 58.883 80.778 65.7108Z" fill="#F5F5F9"/>
<path id="Vector_6" d="M66.7141 60.583L72.992 62.8721C74.6691 58.9728 76.6509 55.3312 78.8197 52.3509C76.3545 52.8455 74.0133 53.8287 71.9342 55.2425C69.8551 56.6563 68.0802 58.4722 66.7141 60.583Z" fill="#F5F5F9"/>
<path id="Vector_7" d="M128.102 38.9391L59.2665 13.8392C58.7562 13.6531 58.2143 13.5693 57.6717 13.5927C57.129 13.616 56.5963 13.746 56.1039 13.9753C55.6115 14.2045 55.1691 14.5286 54.8019 14.9288C54.4347 15.3291 54.15 15.7977 53.964 16.308L19.3258 111.301C19.1397 111.812 19.0559 112.354 19.0793 112.896C19.1026 113.439 19.2326 113.972 19.4619 114.464C19.6912 114.956 20.0152 115.399 20.4154 115.766C20.8157 116.133 21.2843 116.418 21.7946 116.604L90.6298 141.704C94.0174 142.935 97.7552 142.772 101.023 141.251C104.291 139.73 106.821 136.974 108.059 133.589L136.217 56.3687C137.448 52.9811 137.285 49.2433 135.764 45.9756C134.242 42.7079 131.487 40.1773 128.102 38.9391ZM84.2249 119.8L49.6819 107.205C48.6513 106.829 47.8123 106.059 47.3493 105.065C46.8863 104.07 46.8373 102.933 47.2131 101.902C47.5888 100.872 48.3586 100.033 49.353 99.5695C50.3474 99.1066 51.485 99.0576 52.5156 99.4333L87.0586 112.029C88.0891 112.405 88.9282 113.175 89.3912 114.169C89.8542 115.163 89.9032 116.301 89.5274 117.332C89.1516 118.362 88.3819 119.201 87.3874 119.664C86.393 120.127 85.2554 120.176 84.2249 119.8ZM73.2512 96.231C68.2127 94.3938 63.8322 91.1037 60.6636 86.7769C57.4949 82.4501 55.6805 77.2808 55.4497 71.9227C55.2189 66.5647 56.5822 61.2586 59.3671 56.6753C62.152 52.0921 66.2334 48.4376 71.0953 46.1739C75.9571 43.9103 81.381 43.1392 86.6811 43.9582C91.9812 44.7771 96.9195 47.1494 100.871 50.7749C104.823 54.4004 107.611 59.1164 108.883 64.3264C110.155 69.5365 109.853 75.0066 108.015 80.0451C105.545 86.7966 100.498 92.2925 93.9804 95.3269C87.463 98.3613 80.008 98.6865 73.2512 96.231Z" fill="#F5F5F9"/>
</g>
</g>
<defs>
<clipPath id="clip0_202_249">
<rect width="123.849" height="123.849" fill="white" transform="translate(42.4277) rotate(20.0338)"/>
</clipPath>
</defs>
</svg>
