<svg width="124" height="135" viewBox="0 0 124 135" fill="none" xmlns="http://www.w3.org/2000/svg">
<g id="Passport">
<path id="Vector" d="M111.102 26.8903L42.2665 1.79039C41.7562 1.60428 41.2143 1.5205 40.6717 1.54385C40.129 1.56719 39.5963 1.69721 39.1039 1.92646C38.6115 2.15572 38.1691 2.47972 37.8019 2.87998C37.4347 3.28023 37.15 3.74889 36.964 4.25919L2.32583 99.2525C2.13972 99.7628 2.05594 100.305 2.07929 100.847C2.10263 101.39 2.23265 101.923 2.4619 102.415C2.69116 102.908 3.01516 103.35 3.41541 103.717C3.81567 104.084 4.28433 104.369 4.79463 104.555L73.6298 129.655C77.0174 130.886 80.7552 130.723 84.0229 129.202C87.2905 127.681 89.8212 124.925 91.0593 121.54L119.217 44.3199C120.448 40.9322 120.285 37.1945 118.764 33.9268C117.242 30.6591 114.487 28.1285 111.102 26.8903ZM67.2249 107.752L32.6819 95.1558C31.6513 94.7801 30.8123 94.0103 30.3493 93.0159C29.8863 92.0215 29.8373 90.8838 30.2131 89.8533C30.5888 88.8228 31.3586 87.9837 32.353 87.5207C33.3474 87.0577 34.485 87.0087 35.5156 87.3845L70.0586 99.9802C71.0891 100.356 71.9282 101.126 72.3912 102.12C72.8542 103.115 72.9032 104.252 72.5274 105.283C72.1516 106.313 71.3819 107.152 70.3874 107.615C69.393 108.078 68.2554 108.127 67.2249 107.752ZM56.2512 84.1822C51.2127 82.3449 46.8322 79.0549 43.6636 74.7281C40.4949 70.4012 38.6805 65.2319 38.4497 59.8739C38.2189 54.5159 39.5822 49.2097 42.3671 44.6265C45.152 40.0432 49.2334 36.3887 54.0953 34.1251C58.9571 31.8615 64.381 31.0904 69.6811 31.9093C74.9812 32.7283 79.9195 35.1005 83.8713 38.726C87.8232 42.3516 90.6113 47.0675 91.8829 52.2776C93.1545 57.4876 92.8527 62.9578 91.0154 67.9963C88.5453 74.7478 83.4978 80.2436 76.9804 83.2781C70.463 86.3125 63.008 86.6376 56.2512 84.1822Z" fill="#F5F5F9"/>
</g>
</svg>
