<svg width="159" height="160" viewBox="0 0 159 160" fill="none" xmlns="http://www.w3.org/2000/svg">
<g clip-path="url(#clip0_202_258)">
<path d="M128.102 39.8903L59.2665 14.7904C58.7562 14.6043 58.2143 14.5205 57.6717 14.5438C57.129 14.5672 56.5963 14.6972 56.1039 14.9265C55.6115 15.1557 55.1691 15.4797 54.8019 15.88C54.4347 16.2802 54.15 16.7489 53.964 17.2592L19.3258 112.253C19.1397 112.763 19.0559 113.305 19.0793 113.847C19.1026 114.39 19.2326 114.923 19.4619 115.415C19.6912 115.908 20.0152 116.35 20.4154 116.717C20.8157 117.084 21.2843 117.369 21.7946 117.555L90.6298 142.655C94.0174 143.886 97.7552 143.723 101.023 142.202C104.291 140.681 106.821 137.925 108.059 134.54L136.217 57.3199C137.448 53.9322 137.285 50.1945 135.764 46.9268C134.242 43.6591 131.487 41.1285 128.102 39.8903ZM84.2249 120.752L49.6819 108.156C48.6513 107.78 47.8123 107.01 47.3493 106.016C46.8863 105.021 46.8373 103.884 47.2131 102.853C47.5888 101.823 48.3586 100.984 49.353 100.521C50.3474 100.058 51.485 100.009 52.5156 100.385L87.0586 112.98C88.0891 113.356 88.9282 114.126 89.3912 115.12C89.8542 116.115 89.9032 117.252 89.5274 118.283C89.1516 119.313 88.3819 120.152 87.3874 120.615C86.393 121.078 85.2554 121.127 84.2249 120.752ZM73.2512 97.1822C68.2127 95.3449 63.8322 92.0549 60.6636 87.7281C57.4949 83.4012 55.6805 78.2319 55.4497 72.8739C55.2189 67.5159 56.5822 62.2097 59.3671 57.6265C62.152 53.0432 66.2334 49.3887 71.0953 47.1251C75.9571 44.8615 81.381 44.0904 86.6811 44.9093C91.9812 45.7283 96.9195 48.1005 100.871 51.726C104.823 55.3516 107.611 60.0675 108.883 65.2776C110.155 70.4876 109.853 75.9578 108.015 80.9963C105.545 87.7478 100.498 93.2436 93.9804 96.2781C87.463 99.3125 80.008 99.6376 73.2512 97.1822Z" fill="#F5F5F9"/>
<g clip-path="url(#clip1_202_258)">
<path d="M88.6219 78.0804C88.6801 77.5119 88.6795 76.9961 88.6198 76.5338C88.5605 76.0712 88.4051 75.58 88.1538 75.0587C87.9028 74.5378 87.6632 74.103 87.4358 73.7538C87.2086 73.4046 86.8736 72.9808 86.4311 72.4824C85.9891 71.9842 85.6335 71.6026 85.3652 71.3375C85.0965 71.0724 84.7036 70.699 84.1868 70.2175C83.7299 69.7876 83.3913 69.4634 83.1707 69.245C82.9504 69.0265 82.6655 68.7278 82.3157 68.3484C81.9661 67.9693 81.7165 67.6579 81.5669 67.4147C81.4173 67.1716 81.2677 66.8879 81.1176 66.5636C80.9676 66.2393 80.8957 65.9302 80.9017 65.6362C80.9079 65.3422 80.9724 65.0452 81.0954 64.7453C81.4171 63.9611 82.0257 63.4627 82.9212 63.2507C83.8167 63.0388 84.8125 63.1575 85.9084 63.6071C86.3926 63.8057 86.859 64.0744 87.306 64.4129C87.7529 64.7514 88.1213 65.0772 88.4102 65.3913C88.6995 65.7055 88.961 66.0284 89.1956 66.3603C89.43 66.6924 89.5922 66.9373 89.6823 67.0956C89.7724 67.2539 89.8281 67.3575 89.8481 67.4062C89.951 67.5832 90.0897 67.6872 90.2654 67.7189C90.4431 67.7784 90.6138 67.7404 90.7771 67.6055L93.2151 65.6545C93.448 65.4806 93.5093 65.2497 93.3983 64.9615C93.3574 64.8638 93.3043 64.7478 93.2377 64.6126C93.172 64.4777 93.0156 64.2182 92.7687 63.8338C92.5221 63.4497 92.2446 63.0832 91.9365 62.7345C91.628 62.3857 91.2054 61.9865 90.6686 61.5374C90.1323 61.0881 89.5492 60.694 88.92 60.3551L90.1692 57.3098C90.2354 57.1485 90.238 56.9945 90.1771 56.8482C90.1159 56.702 90.0045 56.5955 89.8428 56.5291L87.5069 55.5709C87.3569 55.5094 87.2047 55.5109 87.0502 55.5756C86.8957 55.6402 86.7877 55.7475 86.7261 55.8974L85.4486 59.0118C83.4957 58.6148 81.708 58.7843 80.0855 59.5202C78.4631 60.2562 77.3253 61.4197 76.6723 63.0117C76.4783 63.4845 76.343 63.9546 76.266 64.4214C76.1888 64.8885 76.1527 65.3217 76.1574 65.7211C76.1618 66.1207 76.2295 66.5391 76.3598 66.9767C76.4902 67.4142 76.6252 67.7998 76.7647 68.1332C76.9043 68.4665 77.1123 68.8382 77.3887 69.248C77.6653 69.6581 77.9071 69.9967 78.1144 70.2635C78.322 70.5299 78.6088 70.8571 78.9759 71.243C79.3429 71.6295 79.6351 71.9277 79.8519 72.1382C80.0689 72.3484 80.3644 72.6382 80.7388 73.007C81.2623 73.5047 81.6468 73.8815 81.8922 74.1372C82.1379 74.3931 82.4427 74.7337 82.8074 75.1595C83.1717 75.585 83.4202 75.9397 83.5533 76.2234C83.6862 76.5071 83.7799 76.8286 83.8348 77.1879C83.8897 77.5472 83.851 77.8884 83.7185 78.2115C83.3447 79.1228 82.7014 79.6808 81.7885 79.8853C80.8757 80.0904 79.9519 80.0012 79.0177 79.618C78.5913 79.4431 78.183 79.222 77.7942 78.9547C76.4179 78.0393 75.3123 76.7435 74.4773 75.067L74.4568 75.0182C74.4049 74.8491 74.2877 74.7403 74.1054 74.6926C73.9113 74.6399 73.7502 74.6547 73.6222 74.7372L70.8819 76.3417C70.6142 76.5013 70.5289 76.7425 70.6256 77.0651C70.6549 77.1581 70.7132 77.3035 70.8006 77.5008C70.8882 77.6988 71.0678 78.0248 71.3389 78.4803C71.6102 78.9354 71.9236 79.3869 72.2785 79.8361C72.6335 80.2848 73.1136 80.7814 73.7189 81.3263C74.3245 81.8708 74.9863 82.3511 75.7051 82.7672L74.463 85.795C74.4014 85.9452 74.4031 86.0973 74.4676 86.2519C74.5322 86.4066 74.6395 86.5143 74.7895 86.5758L77.1254 87.5341C77.2871 87.6004 77.4411 87.6031 77.5873 87.5419C77.7335 87.4808 77.8396 87.3692 77.906 87.2074L79.1481 84.1796C81.1054 84.6322 82.9192 84.4566 84.5896 83.6527C86.2601 82.8489 87.4576 81.5646 88.1814 79.8C88.4174 79.2231 88.5649 78.6503 88.6219 78.0804Z" fill="#F5F5F9"/>
</g>
</g>
<defs>
<clipPath id="clip0_202_258">
<rect width="123.849" height="123.849" fill="white" transform="translate(42.4277 0.951172) rotate(20.0338)"/>
</clipPath>
<clipPath id="clip1_202_258">
<rect width="33.5115" height="33.5115" fill="white" transform="translate(73.0181 49.6274) rotate(22.3045)"/>
</clipPath>
</defs>
</svg>
