<svg width="35" height="64" viewBox="0 0 35 64" fill="none" xmlns="http://www.w3.org/2000/svg">
<path d="M12.356 56.9754L10.8898 56.8138L9.62408 59.8202L10.7643 60.756L9.71046 63.2592L1.93314 56.476L3.11738 53.6631L13.4044 54.4851L12.356 56.9754ZM7.88689 58.3901L8.65284 56.5708L5.19621 56.194L7.88689 58.3901ZM17.2312 45.3953L15.7651 45.2337L14.4993 48.2402L15.6396 49.1759L14.5857 51.6791L6.80841 44.8959L7.99264 42.083L18.2797 42.905L17.2312 45.3953ZM12.7621 46.8101L13.5281 44.9907L10.0715 44.614L12.7621 46.8101ZM21.2725 32.7654C21.8489 33.7777 21.889 34.8731 21.3929 36.0516C20.8967 37.2301 20.0834 37.9712 18.953 38.2751C17.8175 38.5667 16.5358 38.4119 15.1079 37.8107C13.6799 37.2095 12.6778 36.4028 12.1014 35.3905C11.52 34.366 11.4774 33.2645 11.9736 32.086C12.4697 30.9075 13.2855 30.1725 14.421 29.8809C15.5514 29.577 16.8306 29.7257 18.2586 30.3269C19.6865 30.9281 20.6912 31.7409 21.2725 32.7654ZM16.0802 35.501C17.7232 36.1928 18.7457 36.0612 19.1477 35.1064C19.5497 34.1515 18.9292 33.3283 17.2862 32.6366C15.6432 31.9448 14.6207 32.0764 14.2187 33.0312C13.8167 33.9861 14.4373 34.8093 16.0802 35.501ZM24.6942 24.638C25.2706 25.6503 25.3107 26.7456 24.8146 27.9241C24.3184 29.1026 23.5051 29.8438 22.3747 30.1476C21.2392 30.4392 19.9575 30.2844 18.5296 29.6833C17.1016 29.0821 16.0995 28.2753 15.5231 27.2631C14.9418 26.2385 14.8991 25.137 15.3953 23.9586C15.8914 22.7801 16.7072 22.045 17.8427 21.7534C18.9731 21.4496 20.2524 21.5983 21.6803 22.1994C23.1082 22.8006 24.1129 23.6135 24.6942 24.638ZM19.502 27.3736C21.1449 28.0653 22.1674 27.9337 22.5694 26.9789C22.9714 26.0241 22.3509 25.2008 20.7079 24.5091C19.0649 23.8174 18.0424 23.949 17.6404 24.9038C17.2385 25.8586 17.859 26.6819 19.502 27.3736ZM28.1159 16.5105C28.6923 17.5228 28.7324 18.6182 28.2363 19.7967C27.7401 20.9752 26.9268 21.7163 25.7964 22.0202C24.6609 22.3118 23.3792 22.157 21.9513 21.5558C20.5233 20.9546 19.5212 20.1479 18.9448 19.1356C18.3635 18.1111 18.3209 17.0096 18.817 15.8311C19.3131 14.6526 20.1289 13.9176 21.2644 13.626C22.3949 13.3222 23.6741 13.4708 25.102 14.072C26.5299 14.6732 27.5346 15.486 28.1159 16.5105ZM22.9237 19.2461C24.5666 19.9379 25.5891 19.8063 25.9911 18.8515C26.3931 17.8966 25.7726 17.0734 24.1296 16.3817C22.4866 15.6899 21.4641 15.8215 21.0621 16.7763C20.6602 17.7312 21.2807 18.5544 22.9237 19.2461ZM34.4335 4.53539L33.3471 7.11602L28.2165 8.00924L32.2552 9.70954L31.2828 12.0192L22.2506 8.2166L23.223 5.90694L27.0165 7.50403L24.2606 3.44245L25.347 0.861826L28.5281 5.57329L34.4335 4.53539Z" fill="white"/>
</svg>
