<svg xmlns="http://www.w3.org/2000/svg" width="32" height="32"><path fill="none" stroke-width="1.231" stroke="#000" d="M3.692 0v28.308H32"/><path fill="none" stroke-width="1.231" stroke="#000" d="M28.308 32V3.692H0"/><path fill="none" stroke-width="1.231" stroke="#000" d="M9.846 21.74v-8.615l4.308 4.308 4.308-4.308v8.615"/><path d="M22.742 9.157c0 1.989-2.146 2.324-2.146 4.352v.847h3.131v-.985h-2.048c-.01-.049-.01-.098-.01-.148 0-1.132 2.156-1.94 2.156-4.106 0-1.103-.551-1.733-1.615-1.733s-1.615.63-1.615 1.733v.67h1.024v-.738c0-.492.217-.679.561-.679s.561.167.561.788z"/></svg>