<svg xmlns="http://www.w3.org/2000/svg" width="32" height="32"><path d="M1.882 0h9.412c1.04 0 1.882.843 1.882 1.882v9.412c0 1.04-.843 1.882-1.882 1.882H1.882A1.882 1.882 0 010 11.294V1.882C0 .842.843 0 1.882 0zm18.824 0h9.412C31.158 0 32 .843 32 1.882v9.412c0 1.04-.843 1.882-1.882 1.882h-9.412a1.882 1.882 0 01-1.882-1.882V1.882c0-1.04.843-1.882 1.882-1.882zM1.882 18.824h9.412c1.04 0 1.882.843 1.882 1.882v9.412c0 1.04-.843 1.882-1.882 1.882H1.882A1.882 1.882 0 010 30.118v-9.412c0-1.04.843-1.882 1.882-1.882zm18.824 0h9.412c1.04 0 1.882.843 1.882 1.882v9.412c0 1.04-.843 1.882-1.882 1.882h-9.412a1.882 1.882 0 01-1.882-1.882v-9.412c0-1.04.843-1.882 1.882-1.882z"/></svg>