<svg xmlns="http://www.w3.org/2000/svg" width="32" height="32"><path d="M1.882 0h5.647c1.04 0 1.882.843 1.882 1.882v5.647c0 1.04-.843 1.882-1.882 1.882H1.882A1.882 1.882 0 010 7.529V1.882C0 .842.843 0 1.882 0zm0 11.294h5.647c1.04 0 1.882.843 1.882 1.882v5.647c0 1.04-.843 1.882-1.882 1.882H1.882A1.882 1.882 0 010 18.823v-5.647c0-1.04.843-1.882 1.882-1.882zm0 11.294h5.647c1.04 0 1.882.843 1.882 1.882v5.647c0 1.04-.843 1.882-1.882 1.882H1.882A1.882 1.882 0 010 30.117V24.47c0-1.04.843-1.882 1.882-1.882zM13.176 0h5.647c1.04 0 1.882.843 1.882 1.882v5.647c0 1.04-.843 1.882-1.882 1.882h-5.647a1.882 1.882 0 01-1.882-1.882V1.882c0-1.04.843-1.882 1.882-1.882zm0 11.294h5.647c1.04 0 1.882.843 1.882 1.882v5.647c0 1.04-.843 1.882-1.882 1.882h-5.647a1.882 1.882 0 01-1.882-1.882v-5.647c0-1.04.843-1.882 1.882-1.882zm0 11.294h5.647c1.04 0 1.882.843 1.882 1.882v5.647c0 1.04-.843 1.882-1.882 1.882h-5.647a1.882 1.882 0 01-1.882-1.882V24.47c0-1.04.843-1.882 1.882-1.882zM24.471 0h5.647C31.158 0 32 .843 32 1.882v5.647c0 1.04-.843 1.882-1.882 1.882h-5.647a1.882 1.882 0 01-1.882-1.882V1.882c0-1.04.843-1.882 1.882-1.882zm0 11.294h5.647c1.04 0 1.882.843 1.882 1.882v5.647c0 1.04-.843 1.882-1.882 1.882h-5.647a1.882 1.882 0 01-1.882-1.882v-5.647c0-1.04.843-1.882 1.882-1.882zm0 11.294h5.647c1.04 0 1.882.843 1.882 1.882v5.647c0 1.04-.843 1.882-1.882 1.882h-5.647a1.882 1.882 0 01-1.882-1.882V24.47c0-1.04.843-1.882 1.882-1.882z"/></svg>