<svg xmlns="http://www.w3.org/2000/svg" width="32" height="32"><path fill="none" stroke="#000" d="M1.605 19.085h28.79v4.113a6.17 6.17 0 01-6.169 6.169H7.775a6.17 6.17 0 01-6.169-6.169v-4.113zM.577 17.028h30.846v2.056H.577v-2.056zm29.818 0V6.746a4.113 4.113 0 00-4.113-4.113v0a4.113 4.113 0 00-4.113 4.113v0"/><path fill="none" stroke="#000" d="M18.056 9.831a3.085 3.085 0 013.085-3.085h2.056a3.085 3.085 0 013.085 3.085v0h-8.226zm1.029 1.542v4.113m2.056-4.113v4.113m2.056-4.113v4.113m2.057-4.113v4.113"/></svg>