<svg width="520" height="242" fill="none" xmlns="http://www.w3.org/2000/svg"><path d="M15.778 193.537H48.28c1.32 26.938 23.581 48.364 50.847 48.364 27.267 0 49.528-21.426 50.848-48.364H380.25c1.321 26.938 23.581 48.364 50.848 48.364 27.266 0 49.527-21.426 50.847-48.364h26.64c2.991 0 5.707-1.342 7.668-3.506 1.962-2.163 3.178-5.147 3.178-8.452 0-2.842-.916-5.595-2.595-7.758l-5.528-7.14c12.347-27.96 8.02-68.027 3.901-91.094-2.365-13.286-9.623-24.901-20.09-31.98-12.541-8.49-33.898-20.09-69.102-32.46-70.064-24.61-193.922-3.222-218.31 16.786-19.433 15.934-57.882 53.712-106.618 59.307-25.326 2.902-47.013 10.31-62.008 16.762-13.346 5.737-22.275 19.725-22.76 35.503l-.53 17.105-8.452 6.215c-2.119 1.559-3.811 3.64-4.976 6.042a18.136 18.136 0 00-1.798 7.908c0 9.258 6.812 16.762 15.213 16.762zm447.48 0c-1.298 16.599-15.225 29.714-32.16 29.714-16.934 0-30.862-13.115-32.159-29.714a31.38 31.38 0 01-.105-2.544c0-17.792 14.472-32.264 32.264-32.264 17.793 0 32.265 14.472 32.265 32.264 0 .858-.037 1.709-.105 2.544zm41.215-81.657a5.594 5.594 0 014.443 5.185c.612 11.288-1.062 22.914-2.181 29.128a5.567 5.567 0 01-5.485 4.578h-3.729a5.574 5.574 0 01-5.549-6.094l2.239-23.892a5.572 5.572 0 011.414-3.216l3.582-3.966a5.574 5.574 0 015.266-1.723zM395.131 60.036l3.75-17.458a18.06 18.06 0 0115.774-14.169l3.181-.334c.668.222 1.349.439 2.001.668 34.469 12.11 54.28 23.165 64.829 30.306 6.257 4.233 10.696 11.45 12.183 19.806.181 1.016.356 2.027.524 3.035h-84.585a18.063 18.063 0 01-17.657-21.854zm-77.176 62.387h-18.65a6.341 6.341 0 010-12.682h18.65a6.342 6.342 0 010 12.682zM212.014 48.704c2.861-2.444 5.331-4.556 7.519-6.35 3.249-2.665 16.891-9.263 45.285-15.178 23.626-4.922 49.835-7.832 74.634-8.338l-8.671 49.744c-2.188 12.555-12.837 21.884-25.571 22.4l-129.495 5.256a27.068 27.068 0 01-19.732-7.421c23.514-12.336 42.509-28.557 56.031-40.113zM99.127 158.73c17.793 0 32.265 14.472 32.265 32.264 0 .858-.037 1.709-.104 2.544-1.298 16.599-15.226 29.714-32.16 29.714-16.935 0-30.862-13.115-32.16-29.714a31.425 31.425 0 01-.105-2.544c0-17.792 14.473-32.264 32.264-32.264zm-63.285-35.808c5.082 0 9.2 6.234 9.2 13.926 0 7.69-4.118 13.925-9.2 13.925-5.081 0-9.2-6.234-9.2-13.925 0-7.692 4.119-13.926 9.2-13.926z" fill="#fff" fill-opacity=".48"/></svg>