<svg xmlns="http://www.w3.org/2000/svg" width="32" height="32"><path fill="none" stroke-width="1.032" stroke="#000" d="M5.419 7.226h25.806L29.16 18.065 7.483 20.13M30.71 9.806H5.936m23.741 5.678L9.032 17.549m4.645 9.29a2.065 2.065 0 11-4.13 0 2.065 2.065 0 014.13 0zm15.484 0a2.065 2.065 0 11-4.13 0 2.065 2.065 0 014.13 0z"/><path fill="none" stroke-width="1.032" stroke="#000" d="M.774 3.097h1.305c.782 0 1.497.442 1.847 1.141L5.42 7.226l2.065 12.903v4.645c0 1.14.924 2.065 2.065 2.065v0m15.482 0H13.677"/></svg>