<svg width="58" height="58" fill="none" xmlns="http://www.w3.org/2000/svg"><path fill-rule="evenodd" clip-rule="evenodd" d="M42.292 34.438a3.02 3.02 0 116.041 0 3.02 3.02 0 01-6.041 0zm-19.334 7.25h12.084v-3.021H22.958v3.02zm-10.27-4.834a3.02 3.02 0 110-6.041 3.02 3.02 0 010 6.041zm5.92-21.52c.17-.496.629-.834 1.136-.834h18.5c.52 0 .978.338 1.184.943l3.746 9.932H14.826l3.782-10.041zm32.142 9.192v-.963a1.813 1.813 0 00-1.813-1.813h-1.97l-2.984-7.915a6.042 6.042 0 00-5.727-4.168H19.732c-2.61.012-4.906 1.691-5.68 4.072l-3.02 8.011h-1.97a1.812 1.812 0 00-1.812 1.813v.963a1.813 1.813 0 001.42 1.768l.537.12-.93 2.115a11.84 11.84 0 00-1.015 4.773L7.25 47.584c0 1.075.882 1.958 1.957 1.958h3.335a1.965 1.965 0 001.958-1.958v-2.272h-1.813V43.5h32.626v1.813H43.5v2.271c0 1.075.882 1.958 1.958 1.958h3.334a1.965 1.965 0 001.958-1.958V33.326c0-1.656-.35-3.299-1.027-4.81l-.93-2.102.537-.12a1.813 1.813 0 001.42-1.768z" fill="#fff"/></svg>