<svg xmlns="http://www.w3.org/2000/svg" width="32" height="32"><path fill="none" stroke-width="1.067" stroke="#000" d="M31.467 16c0 8.542-6.925 15.467-15.467 15.467S.533 24.542.533 16C.533 7.458 7.458.533 16 .533S31.467 7.458 31.467 16z"/><path fill="none" stroke-width="1.067" stroke="#000" d="M29.333 16c0 7.364-5.97 13.333-13.333 13.333S2.667 23.363 2.667 16C2.667 8.636 8.637 2.667 16 2.667S29.333 8.637 29.333 16z"/><path fill="none" stroke-width="1.067" stroke="#000" d="M16 10.667V16l6.933 6.933M16 4.8v2.667M27.2 16h-2.667M16 24.533V27.2M7.467 16H4.8"/></svg>