<svg width="244" height="244" fill="none" xmlns="http://www.w3.org/2000/svg"><path fill-rule="evenodd" clip-rule="evenodd" d="M41 7.25A6.75 6.75 0 0147.75.5h148.5A6.75 6.75 0 01203 7.25V14h33.75a6.75 6.75 0 016.75 6.75v40.5c0 18.64-15.111 33.75-33.75 33.75h-11.359c-9.669 27.357-33.618 47.969-62.891 52.88v41.62H176a6.75 6.75 0 016.75 6.75v40.5a6.75 6.75 0 01-6.75 6.75H68a6.75 6.75 0 01-6.75-6.75v-40.5A6.75 6.75 0 0168 189.5h40.5v-41.62C79.227 142.969 55.278 122.357 45.609 95H34.25C15.61 95 .5 79.89.5 61.25v-40.5A6.75 6.75 0 017.25 14H41V7.25zM203 68V27.5h27v33.75c0 11.184-9.066 20.25-20.25 20.25H203V68zM41 27.5H14v33.75c0 11.184 9.066 20.25 20.25 20.25H41v-54z" fill="#fff" fill-opacity=".17"/></svg>