<svg width="65" height="65" fill="none" xmlns="http://www.w3.org/2000/svg"><path d="M29.089 12.605h6.94c.67 0 1.218-.549 1.218-1.218V9.48c0-.67-.548-1.218-1.217-1.218h-6.941c-.67 0-1.218.549-1.218 1.218v1.908a1.22 1.22 0 001.218 1.218z" fill="#0088CF"/><path d="M32.5 14.19c-5.888 0-11.222 2.405-15.078 6.284l4.625 3.34c2.788-2.518 6.468-4.066 10.512-4.066 8.666 0 15.717 7.05 15.717 15.717 0 8.666-7.05 15.716-15.717 15.716-8.668 0-15.717-7.049-15.717-15.716 0-3.834 1.383-7.348 3.674-10.08l-3.474-4.492c-3.594 3.812-5.815 8.932-5.815 14.572 0 11.731 9.542 21.275 21.273 21.275 11.73 0 21.273-9.544 21.273-21.275 0-11.732-9.543-21.276-21.273-21.276z" fill="#242321"/><path d="M32.66 38.964a3.353 3.353 0 01-2.642-1.303l-.006.008-7.688-9.942a12.762 12.762 0 00-2.615 7.737c0 7.085 5.764 12.847 12.849 12.847s12.847-5.763 12.847-12.847-5.763-12.849-12.847-12.849a12.786 12.786 0 00-8.136 2.913l9.972 7.199-.006.008a3.342 3.342 0 011.634 2.868 3.36 3.36 0 01-3.362 3.36z" fill="#0088CF"/></svg>