<svg width="53" height="53" fill="none" xmlns="http://www.w3.org/2000/svg"><path d="M20.869 42.566c-.331-1.16-.994-1.988-1.822-2.816H4.472c-.663.828-1.16 1.822-1.16 2.981v1.988c0 .993.663 1.656 1.657 1.656h14.906c.497 0 .994-.331 1.325-.663.331-.496.331-.993.166-1.49l-.497-1.656zm28.819-26.003h-4.97v-.497a4.453 4.453 0 00-4.471-4.472h-2.153c0-.994-.663-1.656-1.657-1.656H11.595c-4.638 0-8.281 3.643-8.281 8.28 0 3.81 2.65 6.957 6.128 7.95l-3.479 10.27h13.416l1.16-3.313h3.809c3.147 0 5.797-2.153 6.46-4.969l.33-1.656h5.3c.994 0 1.657-.663 1.657-1.656h2.153a4.453 4.453 0 004.472-4.472v-.497h4.968c.994 0 1.657-.663 1.657-1.656 0-.994-.663-1.657-1.657-1.657zm-34.947.662l-1.657 3.313c-.33.662-.828.993-1.49.993-.332 0-.497 0-.663-.165-.828-.332-1.16-1.325-.662-2.154l1.656-3.312c.331-.828 1.325-1.16 1.987-.828.829.497 1.16 1.49.829 2.153zm6.625 0l-1.657 3.313c-.33.662-.828.993-1.49.993-.332 0-.497 0-.663-.165-.828-.332-1.16-1.325-.662-2.154L18.55 15.9c.331-.828 1.325-1.16 2.153-.662.663.33.994 1.325.663 1.987zm6.128 10.103c-.331 1.49-1.657 2.485-3.313 2.485h-2.65l1.16-3.313h4.968l-.165.828z" fill="#242321"/></svg>