<svg xmlns="http://www.w3.org/2000/svg" width="32" height="32"><path fill="none" stroke-width="1.778" stroke="#000" d="M1.948 17.107A30.04 30.04 0 011.091 16a34.032 34.032 0 014.197-4.679C8.136 8.698 11.924 6.223 16 6.223s7.864 2.476 10.711 5.098A34.032 34.032 0 0130.908 16a34.032 34.032 0 01-4.197 4.679c-2.848 2.623-6.636 5.098-10.711 5.098s-7.864-2.476-10.712-5.098a34.032 34.032 0 01-3.34-3.572z"/><path fill="none" stroke-width="1.778" stroke="#000" d="M20.444 16a4.444 4.444 0 11-8.888 0 4.444 4.444 0 018.888 0z"/></svg>