<svg width="263" height="175" fill="none" xmlns="http://www.w3.org/2000/svg"><path d="M191.402 40.32a5.633 5.633 0 00-1.21-1.621 5.046 5.046 0 00-1.677-1.022l-31.293-11.371a19.758 19.758 0 00-6.946-1.195 19.803 19.803 0 00-6.921 1.332l-23.744 9.158a50.348 50.348 0 00-4.967 2.235c-.547.285-1.084.595-1.618.899a43.932 43.932 0 00-5.617-2.583 42.54 42.54 0 00-18.78-2.615l-15.975 1.386a4.838 4.838 0 00-2.052.667 5.28 5.28 0 00-1.623 1.527L33.01 88.887a5.86 5.86 0 00-1.016 3.848c.119 1.431.728 2.686 1.628 3.589L49.267 112a12.85 12.85 0 00-1.527 5.28 12.865 12.865 0 003.126 9.324c2.242 2.582 5.341 4.129 8.736 4.353.18.012.364.012.548.019-1.391 4.547-.253 9.712 3.371 13.18a12.577 12.577 0 007.906 3.48c-1.904 4.771-.875 10.461 3.016 14.183a12.585 12.585 0 008.748 3.524c3.405 0 6.582-1.345 8.981-3.774.892 5.828 5.68 10.474 11.737 10.874.279.02.564.032.843.032 1.548 0 3.03-.295 4.409-.815 2.252 1.518 4.937 2.354 7.794 2.237 3.511-.149 6.661-1.715 9.017-4.165l-8.605-8.68c.02-.201.057-.393.066-.601a12.974 12.974 0 00-.622-4.889l17.61 17.76a16.93 16.93 0 007.159 1.269c5.04-.208 9.53-2.614 12.71-6.337l1.762-2.067a2.85 2.85 0 00.397-.651l-27.114-27.338c-.699-.7-.755-1.865-.135-2.598.622-.729 1.699-.753 2.392-.053l32.247 32.511c1.758.623 3.638.927 5.593.846 4.43-.183 8.384-2.299 11.179-5.579l4.258-4.982a6.45 6.45 0 001.504-4.386l-28.298-28.524c-.691-.701-.753-1.868-.133-2.596.626-.729 1.7-.754 2.392-.054l28.431 28.661c1.167.315 2.392.469 3.652.418 3.633-.148 6.864-1.881 9.151-4.566l1.144-1.339c2.289-2.68 3.638-6.31 3.5-10.258-.138-3.946-1.729-7.452-4.197-9.941l-7.589-7.651 1.917 1.931 20.523-18.736c.871-.793 1.503-1.902 1.735-3.205a5.976 5.976 0 00-.513-3.676L191.402 40.32zM59.958 125.409A7.147 7.147 0 0155 122.937a7.285 7.285 0 01-1.773-5.294c.243-3.826 3.412-6.823 7.196-6.823a7.157 7.157 0 015.443 2.488 7.314 7.314 0 011.777 5.295c-.264 3.988-3.693 7.076-7.684 6.806zm12.304 16.706a7.143 7.143 0 01-4.963-1.995c-2.857-2.731-3.012-7.333-.36-10.242.138-.145 2.956-3.158 4.308-4.597l.71-.763a7.127 7.127 0 015.246-2.283c1.855 0 3.619.711 4.962 2.002a7.277 7.277 0 012.258 5.103 7.293 7.293 0 01-1.973 5.214l-2.01 2.149c-.43.456-.891.95-1.363 1.453-.075.086-.158.171-.23.251l-.902.957c-.137.15-.274.299-.416.445a7.112 7.112 0 01-5.267 2.306zm16.126 15.436a7.115 7.115 0 01-5.2 2.233 7.143 7.143 0 01-4.964-2.001c-2.856-2.731-3.012-7.332-.369-10.227.063-.069 1.718-1.84 3.593-3.841v-.001l1.393-1.486c2.438-2.61 3.238-3.458 3.507-3.754.031-.029.068-.064.094-.094l.005-.004c.236-.257.373-.4.377-.404a7.121 7.121 0 015.248-2.284c1.855 0 3.615.709 4.963 1.999a7.288 7.288 0 012.254 5.101 7.303 7.303 0 01-1.979 5.228c-.127.138-8.644 9.235-8.922 9.535zm23.56 2.538c-.261 3.986-3.684 7.077-7.681 6.812-3.974-.267-6.996-3.751-6.734-7.766.249-3.83 3.405-6.826 7.194-6.826.161 0 .324.006.484.015 3.974.264 6.996 3.749 6.737 7.765zm80.617-43.858l-56.214-56.664.634-1.618a3.138 3.138 0 00-.195-2.68c-.481-.836-1.286-1.323-2.13-1.368l-4.177-.253-4.564-.273-.347 5.47c-.004.114-.909 12.552-7.182 23.79-6.431 11.532-14.953 15.508-16.252 15.764-1.452.285-2.973.555-4.238.555-.87 0-1.538-.123-2.11-.388l-2.135-1c-.895-.42-1.578-1.19-1.938-2.171a4.222 4.222 0 010-2.927l21.381-47.44 3.635-2.422 1.465-.564h-.003l26.871-10.362a14.968 14.968 0 015.255-1.008l.15-.002c1.744 0 3.471.306 5.124.908L186.89 42.95l26.69 54.1-21.015 19.182zM222.98 5.767l-21.126 10.65a13.366 13.366 0 00-6.667 7.756 13.554 13.554 0 00.709 10.253l27.661 56.066c1.516 3.07 4.191 5.566 7.674 6.738a13.096 13.096 0 0010.137-.717L262.49 85.86 222.98 5.767zm18.333 80.125c-2.806 0-5.088-2.3-5.088-5.141 0-2.844 2.282-5.15 5.088-5.15 2.811 0 5.093 2.306 5.093 5.15 0 2.84-2.282 5.14-5.093 5.14zM66.14 22.788a13.413 13.413 0 00-5.446-8.677L41.377.395-9.511 73.633 9.804 87.352a13.109 13.109 0 009.918 2.238c3.615-.636 6.626-2.696 8.578-5.505l35.622-51.268a13.492 13.492 0 002.219-10.029zM17.216 72.536c-.42 2.814-3.011 4.748-5.792 4.32-2.781-.42-4.694-3.041-4.274-5.854.42-2.811 3.012-4.746 5.788-4.324 2.783.426 4.694 3.049 4.278 5.858z" fill="#fff" fill-opacity=".2"/></svg>