<svg width="117" height="118" fill="none" xmlns="http://www.w3.org/2000/svg"><g clip-path="url(#clip0_465_1356)"><path d="M82.331 38.755a2.412 2.412 0 00-.52-.695c-.22-.2-.465-.346-.721-.439l-13.461-4.879a8.514 8.514 0 00-2.988-.513 8.537 8.537 0 00-2.977.572l-10.214 3.93c-.719.277-1.432.596-2.136.958-.235.123-.466.256-.696.386a18.908 18.908 0 00-2.416-1.108 18.342 18.342 0 00-8.078-1.122l-6.872.595a2.09 2.09 0 00-.883.286 2.27 2.27 0 00-.697.655L14.199 59.595a2.51 2.51 0 00-.437 1.651c.051.614.313 1.153.7 1.54l6.73 6.727a5.505 5.505 0 00-.657 2.265 5.51 5.51 0 001.345 4.001 5.42 5.42 0 003.758 1.868c.077.005.156.005.236.008-.599 1.951-.11 4.167 1.45 5.655a5.415 5.415 0 003.4 1.494c-.819 2.047-.376 4.488 1.298 6.085a5.42 5.42 0 003.763 1.513 5.396 5.396 0 003.863-1.62c.383 2.5 2.443 4.495 5.048 4.666a5.373 5.373 0 002.26-.336 5.573 5.573 0 003.352.96c1.51-.064 2.865-.736 3.879-1.787l-3.702-3.725c.01-.086.025-.168.029-.258a5.546 5.546 0 00-.268-2.097l7.575 7.62a7.297 7.297 0 003.08.545c2.168-.09 4.099-1.122 5.466-2.72l.759-.886c.07-.084.124-.178.17-.28l-11.663-11.73a.84.84 0 01-.058-1.115c.268-.312.73-.323 1.03-.023l13.87 13.95a6.394 6.394 0 002.406.364c1.906-.08 3.606-.987 4.808-2.394l1.832-2.138c.42-.493.67-1.159.647-1.882l-12.172-12.24c-.297-.3-.324-.801-.057-1.113a.69.69 0 011.029-.024l12.229 12.299a5.22 5.22 0 001.57.18c1.563-.064 2.953-.808 3.937-1.96l.492-.575c.985-1.15 1.565-2.707 1.506-4.401-.06-1.694-.744-3.198-1.805-4.266l-3.265-3.283.825.829 8.827-8.04a2.42 2.42 0 00.747-1.375c.099-.559.01-1.11-.22-1.577L82.33 38.755zm-56.54 36.511a3.076 3.076 0 01-2.133-1.06 3.121 3.121 0 01-.763-2.272c.105-1.642 1.468-2.928 3.096-2.928a3.08 3.08 0 012.341 1.067c.547.63.818 1.436.764 2.273-.113 1.711-1.588 3.036-3.305 2.92zm5.293 7.169a3.078 3.078 0 01-2.135-.856c-1.23-1.172-1.296-3.147-.155-4.395.06-.062 1.271-1.355 1.853-1.972l.305-.328a3.069 3.069 0 012.257-.98 3.07 3.07 0 012.134.86 3.12 3.12 0 01.972 2.189c.023.835-.28 1.63-.85 2.237l-.864.922-.586.624c-.032.037-.068.073-.1.108l-.387.41c-.059.064-.118.129-.179.191a3.062 3.062 0 01-2.266.99zm6.936 6.623a3.064 3.064 0 01-2.237.958 3.076 3.076 0 01-2.135-.858c-1.228-1.172-1.296-3.146-.159-4.389l1.546-1.648.599-.638c1.049-1.12 1.393-1.484 1.509-1.61a.547.547 0 00.04-.04l.002-.003c.101-.11.16-.171.162-.173a3.068 3.068 0 012.258-.98c.798 0 1.555.304 2.134.858.604.576.948 1.353.97 2.189a3.128 3.128 0 01-.851 2.243l-3.838 4.091zm10.134 1.09c-.112 1.71-1.585 3.036-3.304 2.922-1.71-.114-3.01-1.61-2.896-3.332.107-1.644 1.465-2.929 3.094-2.929.07 0 .14.002.209.006 1.709.114 3.009 1.609 2.897 3.332zm34.678-18.82l-24.18-24.314.272-.694c.14-.362.123-.79-.084-1.15a1.136 1.136 0 00-.916-.587l-1.797-.109-1.963-.117-.15 2.347c-.001.049-.39 5.386-3.089 10.208-2.766 4.949-6.432 6.655-6.99 6.765-.625.122-1.28.238-1.823.238-.374 0-.662-.053-.908-.167l-.918-.429a1.629 1.629 0 01-.834-.931 1.808 1.808 0 010-1.256l9.197-20.357 1.564-1.039.63-.242h-.001L62.4 35.048a6.455 6.455 0 012.26-.432l.065-.001c.75 0 1.493.13 2.204.39l13.462 4.879 11.48 23.213-9.04 8.231z" fill="#0088CF"/><path d="M95.914 23.93l-9.087 4.569a5.739 5.739 0 00-2.868 3.328 5.803 5.803 0 00.305 4.4l11.898 24.057a5.703 5.703 0 003.301 2.89 5.646 5.646 0 004.361-.307l9.085-4.572L95.914 23.93zm7.886 34.38a2.198 2.198 0 01-2.188-2.206 2.2 2.2 0 012.188-2.21c1.209 0 2.191.99 2.191 2.21a2.199 2.199 0 01-2.191 2.206z" fill="#242321"/><path d="M28.45 31.233a5.754 5.754 0 00-2.342-3.724l-8.31-5.885L-4.09 53.05l8.308 5.886a5.682 5.682 0 007.956-1.402l15.323-21.998a5.778 5.778 0 00.955-4.303zM7.405 52.579a2.19 2.19 0 01-2.491 1.854 2.203 2.203 0 01-1.839-2.513 2.192 2.192 0 012.49-1.855 2.208 2.208 0 011.84 2.514z" fill="#0088CF"/></g><defs><clipPath id="clip0_465_1356"><path fill="#fff" d="M0 0h117v118H0z"/></clipPath></defs></svg>