<svg width="31" height="31" fill="none" xmlns="http://www.w3.org/2000/svg"><path d="M27.126 10.333h-5.167a3.87 3.87 0 01-3.875-3.875V1.292A1.28 1.28 0 0016.792 0H5.167a2.59 2.59 0 00-2.583 2.583v25.834A2.59 2.59 0 005.167 31h20.667a2.59 2.59 0 002.583-2.583V11.625a1.28 1.28 0 00-1.291-1.292zm-5.167 15.5H9.042a1.28 1.28 0 01-1.291-1.291 1.28 1.28 0 011.291-1.292H21.96a1.28 1.28 0 011.292 1.292 1.28 1.28 0 01-1.292 1.291zm0-5.166H9.042a1.28 1.28 0 01-1.291-1.292 1.28 1.28 0 011.291-1.292H21.96a1.28 1.28 0 011.292 1.292 1.28 1.28 0 01-1.292 1.292zm0-5.167H9.042a1.28 1.28 0 01-1.291-1.292 1.28 1.28 0 011.291-1.291H21.96a1.28 1.28 0 011.292 1.291A1.28 1.28 0 0121.96 15.5zM20.667 1.292v3.875a2.59 2.59 0 002.584 2.583h3.875c1.162 0 1.73-1.395.904-2.196L22.863.387c-.8-.826-2.196-.232-2.196.905z" fill="#0088CF"/></svg>