<svg version="1.0" xmlns="http://www.w3.org/2000/svg" width="182.667" height="146.667" viewBox="0 0 137 110"><path d="M0 55v55h137V0H0v55zm19.1-10.4l2.6 5.4H19c-1.4 0-3.5-.7-4.6-1.5-2.8-2.1-3.7-1.8-3.1 1.2.7 3.7-3.4 10.8-7.5 12.9L.7 64.2l.7-3.2c1.2-6.1 5.9-15 9.7-18.5 2.2-1.9 4.2-3.5 4.7-3.4.4 0 1.9 2.5 3.3 5.5zm105.1-3.4c1.7 1.1 4.3 4.2 5.9 6.7 3.2 4.9 6.6 14.7 5.6 15.7-1.1 1.1-6.7-3.7-8.6-7.5-1.2-2.2-1.7-4.7-1.4-6.4.6-3-.7-3.6-2.7-1.2-.7.8-2.7 1.5-4.5 1.5h-3.2l2.6-5.4c1.4-3 2.8-5.5 2.9-5.5.2-.1 1.8.9 3.4 2.1zM27.5 43c0 1.9-.4 2.4-2 2.2-2.6-.5-5.6-3.2-4.9-4.4.3-.5 2-.8 3.7-.6 2.7.2 3.2.7 3.2 2.8zm88.3-2.2c1 .7.8 1.2-.5 2.4-2.9 2.4-5.3 2.9-5.9 1.3-1.4-3.6 2.7-6 6.4-3.7zM27 50.4c0 3.1-3.5 5.6-7.5 5.5l-3-.1 3.2-1.1c4.6-1.7 5.9-3.2 4.3-5.2-1-1.3-.9-1.5.9-1.5 1.6 0 2.1.6 2.1 2.4zm85.5-.5c-.6 2.1 1.1 3.9 5.2 5.1l2.8.8-3.3.1c-4.9.1-7.2-1.5-7.2-4.9 0-2.1.5-3 1.6-3 1 0 1.3.6.9 1.9zM25 61.5c-1.8 2.1-7.2 2-6.8-.1.4-2.2 7.2-4.5 7.6-2.6.2.7-.2 1.9-.8 2.7zm94 .2c0 1.7-5.2 1.7-6.8.1-.7-.7-1.2-2-1.2-2.9 0-1.7.2-1.7 4-.1 2.2.9 4 2.3 4 2.9zM14.9 65.2c.1 3.7 0 3.8-3.5 3.8-2 0-5.2-.8-7.2-1.7L.7 65.6l4-1.3c2.2-.8 5.1-2.5 6.4-3.9 2.1-2.3 2.4-2.3 3-.7.4 1 .8 3.5.8 5.5zm117.7-.7l3.8 1.3-3.2 1.6c-1.7.9-4.9 1.6-7.2 1.6-4.4 0-4.8-.9-3.4-7.9l.7-3.2 2.7 2.6c1.5 1.5 4.5 3.2 6.6 4zM23 67.5c-1.5 1.8-5.3 2-4.8.3.4-1.2 4.8-2.8 5.7-2.2.2.2-.2 1-.9 1.9zm96.6.6c.8 1.4-4 1.1-5.4-.3-.7-.7-1.2-1.5-1.2-1.9 0-1 5.8 1 6.6 2.2z"/></svg>