<svg xmlns="http://www.w3.org/2000/svg" width="32" height="32"><path d="M25.74 21.729l-.568-.956-.59.351.049.684 1.109-.079zm-5.255 2.016l.489-.999-.347-.17-.377.082.235 1.087zm5.625 3.167l-.623.921 1.896 1.283-.163-2.284-1.109.079zm3.606-12.806c0 2.521-1.636 4.939-4.545 6.668l1.137 1.912c3.328-1.978 5.632-5.017 5.632-8.579h-2.224zM16 5.108c3.901 0 7.383 1.08 9.859 2.768 2.481 1.692 3.857 3.914 3.857 6.23h2.224c0-3.268-1.943-6.101-4.829-8.068-2.891-1.971-6.823-3.154-11.112-3.154v2.224zM2.284 14.106c0-2.316 1.376-4.538 3.857-6.23C8.617 6.188 12.099 5.108 16 5.108V2.884c-4.289 0-8.221 1.183-11.112 3.154-2.885 1.967-4.829 4.8-4.829 8.068h2.224zM16 23.104c-3.901 0-7.383-1.08-9.859-2.768-2.481-1.692-3.857-3.914-3.857-6.23H.06c0 3.268 1.943 6.1 4.829 8.068 2.891 1.971 6.823 3.155 11.112 3.155v-2.224zm4.25-.446a20.147 20.147 0 01-4.25.446v2.224c1.641 0 3.227-.173 4.72-.496l-.47-2.174zm6.483 3.333c-1.609-1.089-3.9-2.336-5.76-3.245l-.977 1.998c1.815.888 4.003 2.082 5.491 3.089l1.247-1.842zm-2.103-4.183l.37 5.183 2.219-.159-.37-5.183-2.219.158zm-12.156-7.236a1.763 1.763 0 11-3.525 0 1.763 1.763 0 013.525 0zm5.289 0a1.763 1.763 0 11-3.525 0 1.763 1.763 0 013.525 0zm5.288 0a1.763 1.763 0 11-3.525 0 1.763 1.763 0 013.525 0z"/></svg>