<svg width="51" height="43" fill="none" xmlns="http://www.w3.org/2000/svg"><path d="M25.5.383C11.839.383.763 8.626.763 18.795c0 6.11 4 11.525 10.158 14.874-.017.053-4.906 8.948-4.906 8.948s14.93-5.694 14.97-5.717c1.465.202 2.976.305 4.517.305 13.661 0 24.737-8.243 24.737-18.41C50.237 8.626 39.161.383 25.5.383zM13.624 20.762a1.97 1.97 0 11.002-3.94 1.97 1.97 0 01-.002 3.94zm7.834.082a1.97 1.97 0 11.002-3.939 1.97 1.97 0 01-.002 3.94zm7.956 0a1.97 1.97 0 11.001-3.939 1.97 1.97 0 01-.001 3.94zm7.875 0a1.97 1.97 0 11.001-3.939 1.97 1.97 0 01-.001 3.94z" fill="#fff"/></svg>