<svg xmlns="http://www.w3.org/2000/svg" width="32" height="32"><path d="M8.406 21.72l1.81-.518-.39-1.364H8.407v1.882zm1.639 5.729l-1.81.518.863 3.016 2.255-2.18-1.308-1.353zm5.926-5.729v-1.882h-.761l-.547.529 1.308 1.353zM3.766 6.663c0-1.039.843-1.882 1.882-1.882V1.017A5.646 5.646 0 00.002 6.663h3.764zm0 11.293V6.663H.002v11.293h3.764zm1.882 1.882a1.883 1.883 0 01-1.882-1.882H.002a5.646 5.646 0 005.646 5.646v-3.764zm2.758 0H5.648v3.764h2.758v-3.764zm3.448 7.094l-1.639-5.73-3.619 1.035 1.639 5.73 3.619-1.035zm2.808-6.565l-5.926 5.73 2.617 2.706 5.926-5.73-2.617-2.706zm11.69-.529H15.971v3.764h10.381v-3.764zm1.882-1.882a1.883 1.883 0 01-1.882 1.882v3.764a5.646 5.646 0 005.646-5.646h-3.764zm0-11.293v11.293h3.764V6.663h-3.764zm-1.882-1.882c1.04 0 1.882.843 1.882 1.882h3.764a5.646 5.646 0 00-5.646-5.646v3.764zm-20.704 0h20.703V1.017H5.648v3.764z"/></svg>