<svg width="28" height="28" fill="none" xmlns="http://www.w3.org/2000/svg"><path d="M22.425 19.06l-2.834-1.98a2.184 2.184 0 00-3.047.542l-.658.943c-1.102-.74-2.333-1.772-3.506-2.945-1.172-1.172-2.205-2.403-2.944-3.506l.942-.657a2.19 2.19 0 00.542-3.048L8.94 5.575a2.19 2.19 0 00-1.787-.945c-.245 0-.484.042-.713.127-.259.096-.5.213-.736.362l-.392.275a3 3 0 00-.276.247c-.477.477-.816 1.081-1.007 1.796-.816 3.058 1.205 7.682 5.029 11.506 3.211 3.211 7.069 5.206 10.068 5.206a5.6 5.6 0 001.438-.177c.715-.191 1.319-.53 1.796-1.007.087-.087.17-.178.26-.293l.275-.394c.136-.217.253-.458.349-.718.334-.901-.003-1.929-.819-2.5z" fill="#fff"/></svg>