<svg width="143" height="143" fill="none" xmlns="http://www.w3.org/2000/svg"><path fill-rule="evenodd" clip-rule="evenodd" d="M16.302 16.302h15.73v15.73h-15.73v-15.73zM5.72 100.386h36.894v36.894H5.72v-36.894zm5.148 5.434H37.18v26.312H10.868V105.82zm5.434 5.148h15.73v15.73h-15.73v-15.73zM100.386 5.72h36.894v36.894h-36.894V5.72zm5.434 5.148h26.312V37.18H105.82V10.868zm5.148 5.434h15.73v15.73h-15.73v-15.73zM58.344 74.074h5.148v-5.148h-5.148v5.148zm42.042-5.148h5.434v-5.434h-5.434v5.434zm15.73-21.164h5.434v5.434h-5.434v-5.434zm0 31.746v-5.434h-5.148v5.434h5.148zm-42.042 15.73h10.582V84.656h-15.73v10.582h5.148zm-15.73-5.434h5.148v5.434h-5.148v-5.434zm-10.582 5.434h5.434v10.582h-5.434V95.238H37.18v-5.434h5.434v-5.148H37.18v-5.148h21.164v-5.434h-5.148V53.196h-5.434v15.73h-5.148v-5.434H37.18v-5.148h5.434v-5.148H37.18v-5.434h26.312v5.434h-5.148v10.296h5.148v-5.148h16.016v5.148H68.926v10.582h-5.434v10.582h-15.73v10.582zm5.434 36.894h5.148v-5.434h-5.148v5.434zm52.624-42.328H74.074V79.508h-5.148v-5.434h5.148v-5.148h5.434v10.582h10.296v-5.434h-5.148v-5.148h-5.148v-5.434h5.148v-5.148h-5.148v-5.148H68.926V37.18h5.148v-5.148h-5.148v-5.148h-5.434v15.73h-5.148v-15.73H47.762V21.45h5.434v-5.148h-5.434v-5.434h5.434V5.72h5.148v10.582h5.148v-5.434h10.582V5.72h5.434v5.148h10.296V5.72h5.434v10.582H84.656v5.148h5.148v5.434h5.434v15.73h-5.434v5.148h-5.148v10.582h10.582v10.582h5.148v5.148h5.434v15.73zm10.296 0h-5.148v-5.148h5.148v5.148zm-15.73 10.582h5.434v5.434h-5.434v-5.434zm10.582 21.164v5.148h10.582v5.434h10.582V121.55h-5.434v5.148h-5.148v-10.582h-5.434v5.434h-5.148zm-31.46 0h5.148v-5.434h-5.148v5.434zm15.73 10.582H84.656v5.148H47.762v-26.312h5.434v10.582h10.296v10.582h16.016v-5.434h-5.434v-5.148h-5.148v-5.434H58.344v-5.148h5.148v-5.148h-5.148v-5.434h21.164v5.434h5.148v5.148h-5.148v-5.148H68.926v5.148h20.878v-10.582h-5.148v-5.148h5.148V84.656h10.582v-5.148h-5.148V68.926h-5.434v-15.73h5.434v-5.434h5.148v10.582h5.434V47.762h5.148v10.582h10.582v5.148h-10.582v5.434h5.148v5.148h10.582v10.582h5.434v5.148h5.148V79.508h-5.148v-5.434h5.148v-15.73h-5.148V47.762h-5.434v15.73h5.434v5.434H121.55v26.312h-5.434v-5.434h10.582v10.582h10.582v10.582h-5.148v-5.148H121.55v5.148h5.148v5.148h10.582v21.164h-31.46v-5.148h-5.434v5.148h-5.148v-5.148zm0-21.164h16.302v-15.73H95.238v15.73zm-5.434 15.73v-5.148h-5.148v5.148h5.148zm10.582-5.148v5.148h-5.148v5.434h5.148v-5.434h5.434v-5.148h-5.434zM47.762 84.656V74.074h-15.73v10.582h-15.73v-5.148h-5.434v15.73H5.72V74.074h10.582v-5.148h-5.434v-5.434H5.72v-5.148h5.148v-5.148H5.72v-5.434h26.312v5.434h-15.73v5.148h5.148v5.148h5.434v-5.148h5.148v10.582h-5.148v5.148h5.148v-5.148h10.582v15.73h5.148zm-31.46 5.148h5.148v5.434h-5.148v-5.434zm31.46-57.772h5.434v10.582h-5.434V32.032zm10.582-5.148h5.148V21.45h-5.148v5.434zm10.582 0h5.148V21.45h5.434v-5.148H68.926v10.582zm15.73 20.878v-5.148h-5.148V37.18h-5.434v10.582h10.582zm5.148-5.148V37.18h-5.148v5.434h5.148zm0-15.73H79.508v5.148h10.296v-5.148zM5.72 5.72h36.894v36.894H5.72V5.72zm5.148 5.148H37.18V37.18H10.868V10.868z" fill="#202020"/></svg>