<svg width="85" height="85" fill="none" xmlns="http://www.w3.org/2000/svg"><g clip-path="url(#clip0_370_122)"><path d="M68.769 23.655c3.648 3.874 5.606 8.22 5.606 15.264 0 12.396-8.701 23.506-21.356 29l-3.163-4.881c11.812-6.39 14.121-14.68 15.042-19.908-1.902.985-4.392 1.328-6.832 1.102-6.39-.592-11.425-5.837-11.425-12.357a12.395 12.395 0 0112.395-12.396c3.8 0 7.434 1.735 9.733 4.176zm-35.417 0c3.648 3.874 5.607 8.22 5.607 15.264 0 12.396-8.702 23.506-21.357 29l-3.162-4.881c11.811-6.39 14.12-14.68 15.041-19.908-1.902.985-4.391 1.328-6.832 1.102-6.389-.592-11.422-5.837-11.422-12.357a12.396 12.396 0 0112.396-12.396c3.8 0 7.434 1.735 9.733 4.176h-.004z" fill="#0088CF" fill-opacity=".08"/></g><defs><clipPath id="clip0_370_122"><path fill="#fff" d="M0 0h85v85H0z"/></clipPath></defs></svg>