<svg width="16" height="16" fill="none" xmlns="http://www.w3.org/2000/svg"><g clip-path="url(#clip0_370_295)"><path fill-rule="evenodd" clip-rule="evenodd" d="M8.859 1.224a.953.953 0 00-.858-.557.953.953 0 00-.857.556l-1.748 3.7-3.91.596a.97.97 0 00-.771.68 1.03 1.03 0 00.242 1.025L3.785 10.1l-.667 4.064a1.02 1.02 0 00.38.978.923.923 0 001.008.075L8 13.299l3.496 1.92a.923.923 0 001.007-.075 1.02 1.02 0 00.38-.978l-.667-4.064 2.829-2.877a1.03 1.03 0 00.242-1.024.97.97 0 00-.772-.68l-3.909-.597-1.748-3.7z" fill="#FDD442"/></g><defs><clipPath id="clip0_370_295"><path fill="#fff" d="M0 0h16v16H0z"/></clipPath></defs></svg>