<svg width="16" height="16" fill="none" xmlns="http://www.w3.org/2000/svg"><g clip-path="url(#clip0_370_422)"><path fill-rule="evenodd" clip-rule="evenodd" d="M7.144 1.224A.953.953 0 018 .667c.364 0 .697.216.858.557l1.748 3.699 3.91.597a.97.97 0 01.771.68 1.03 1.03 0 01-.242 1.024L12.216 10.1l.668 4.064a1.02 1.02 0 01-.38.978.923.923 0 01-1.008.076L8 13.299l-3.495 1.92a.923.923 0 01-1.008-.076 1.02 1.02 0 01-.38-.978l.667-4.064L.957 7.224A1.03 1.03 0 01.715 6.2a.97.97 0 01.771-.68l3.91-.597 1.748-3.7z" fill="#FDD442" fill-opacity=".2"/></g><defs><clipPath id="clip0_370_422"><path fill="#fff" d="M0 0h16v16H0z"/></clipPath></defs></svg>