<svg xmlns="http://www.w3.org/2000/svg" width="32" height="32"><path fill="none" stroke-width="1.032" stroke="#000" d="M30.521 13.379c0 6.556-5.315 11.871-11.871 11.871S6.779 19.935 6.779 13.379 12.094 1.508 18.65 1.508s11.871 5.315 11.871 11.871z"/><path fill="none" stroke-width="1.032" stroke="#000" d="M28.456 13.379c0 5.416-4.39 9.806-9.806 9.806s-9.806-4.39-9.806-9.806c0-5.416 4.391-9.806 9.806-9.806s9.806 4.391 9.806 9.806z"/><path d="M23.108 12.817c1.137 0 1.955-.751 1.955-1.789s-.817-1.778-1.955-1.778c-1.138 0-1.966.74-1.966 1.778s.828 1.789 1.966 1.789zm-4.075 2.264l-4.638-5.765h-.906v7.731h1.104v-5.765l4.638 5.765h.906V9.316h-1.104v5.765zm4.075-5.202c.718 0 1.215.464 1.215 1.149 0 .674-.497 1.149-1.215 1.149-.729 0-1.226-.475-1.226-1.149 0-.685.497-1.149 1.226-1.149zm-1.745 4.528h3.49v-.718h-3.49v.718z"/><path fill="none" stroke-width="1.032" stroke="#000" d="M1.961 27.822l7.389-7.013 2.19 2.19-7.448 7.069a1.548 1.548 0 11-2.131-2.245z"/></svg>