<svg width="135" height="135" fill="none" xmlns="http://www.w3.org/2000/svg"><g fill="#fff" fill-opacity=".24" clip-path="url(#clip0_394_527)"><path d="M131.291 113.397L100.32 82.423a59.619 59.619 0 01-17.9 17.896l30.974 30.974c4.945 4.943 12.962 4.943 17.896 0 4.945-4.936 4.945-12.953.001-17.896zM101.25 50.625C101.25 22.668 78.582 0 50.625 0S0 22.668 0 50.625s22.668 50.624 50.625 50.624 50.625-22.667 50.625-50.624zM50.625 88.592c-20.937 0-37.968-17.03-37.968-37.967 0-20.937 17.03-37.968 37.968-37.968 20.937 0 37.97 17.031 37.97 37.968 0 20.938-17.033 37.967-37.97 37.967z"/><path d="M21.094 50.625h8.436c0-11.63 9.464-21.094 21.094-21.094v-8.437c-16.28 0-29.53 13.25-29.53 29.531z"/></g><defs><clipPath id="clip0_394_527"><path fill="#fff" d="M0 0h135v135H0z"/></clipPath></defs></svg>