<svg xmlns="http://www.w3.org/2000/svg" width="32" height="32"><path fill="none" stroke-width="2.286" stroke="#000" d="M30.857 16c0 8.205-6.652 14.857-14.857 14.857S1.143 24.205 1.143 16C1.143 7.795 7.795 1.143 16 1.143S30.857 7.795 30.857 16z"/><path d="M15.451 20.137c-.549-.518-.823-1.166-.823-1.943 0-.625.19-1.181.571-1.669.381-.503.8-.891 1.257-1.166.472-.274.899-.602 1.28-.983s.571-.785.571-1.211c0-.472-.19-.861-.571-1.166-.366-.32-.899-.48-1.6-.48-1.25 0-2.309.533-3.177 1.6l-1.531-1.714c1.234-1.509 2.895-2.263 4.983-2.263 1.417 0 2.545.335 3.383 1.006s1.257 1.531 1.257 2.583c0 .625-.145 1.189-.434 1.691a3.973 3.973 0 01-1.029 1.211c-.396.305-.792.594-1.189.869s-.739.579-1.029.914c-.274.32-.411.663-.411 1.029 0 .396.168.739.503 1.029l-2.011.663zm1.943 4.274c-.305.305-.678.457-1.12.457s-.823-.152-1.143-.457c-.305-.32-.457-.701-.457-1.143s.152-.815.457-1.12c.32-.32.701-.48 1.143-.48s.815.16 1.12.48c.32.305.48.678.48 1.12s-.16.823-.48 1.143z"/></svg>