<svg xmlns="http://www.w3.org/2000/svg" width="32" height="32"><path fill="none" stroke-width="2.133" stroke="#000" d="M14.99 2.332a1.142 1.142 0 012.02 0l3.39 6.425a3.424 3.424 0 002.446 1.777l7.158 1.239a1.142 1.142 0 01.624 1.921l-5.063 5.209a3.422 3.422 0 00-.934 2.876l1.034 7.191a1.141 1.141 0 01-1.634 1.187l-6.519-3.205a3.426 3.426 0 00-3.024 0l-6.519 3.205a1.142 1.142 0 01-1.634-1.187l1.034-7.191a3.429 3.429 0 00-.934-2.876l-5.063-5.209a1.142 1.142 0 01.624-1.921l7.158-1.239A3.427 3.427 0 0011.6 8.757l3.39-6.425z"/></svg>