<svg width="26" height="15" fill="none" xmlns="http://www.w3.org/2000/svg"><path d="M25.858 13.2c-.034-.065-.056-.119-.09-.162-.456-.763-1.31-1.708-2.585-2.825l-.023-.022-.012-.01-.01-.011h-.012c-.581-.516-.945-.87-1.093-1.053-.285-.344-.342-.687-.194-1.031.114-.269.513-.817 1.218-1.676.376-.451.66-.816.877-1.085 1.56-1.955 2.243-3.212 2.027-3.76l-.08-.129c-.057-.075-.193-.15-.421-.215-.228-.064-.512-.075-.865-.032l-3.895.022a.482.482 0 00-.273.01c-.114.022-.17.043-.17.043l-.069.033-.057.043c-.045.021-.091.075-.148.129a.765.765 0 00-.137.225A20.336 20.336 0 0118.4 4.562a22.8 22.8 0 01-.922 1.375c-.285.387-.512.677-.706.86a5.505 5.505 0 01-.512.44c-.148.108-.274.161-.353.14-.08-.022-.16-.032-.228-.054a.924.924 0 01-.307-.311 1.427 1.427 0 01-.16-.495c-.023-.204-.045-.376-.045-.515 0-.14 0-.355.011-.612.011-.27.011-.44.011-.538 0-.322.012-.676.023-1.052.012-.376.023-.677.034-.903.012-.225.012-.45.012-.698 0-.247-.012-.44-.046-.58-.034-.14-.08-.28-.136-.408a.835.835 0 00-.274-.312 1.576 1.576 0 00-.455-.172c-.478-.107-1.093-.16-1.833-.16C10.84.544 9.758.651 9.28.876a1.756 1.756 0 00-.512.387c-.16.183-.183.29-.069.312.547.075.922.258 1.15.548l.08.15c.068.108.125.312.194.591.068.28.102.59.125.935a9.32 9.32 0 010 1.6c-.046.44-.091.784-.125 1.031a2.162 2.162 0 01-.183.602c-.08.15-.136.247-.16.28a.189.189 0 01-.067.064c-.114.043-.24.064-.365.064s-.284-.064-.455-.182a2.853 2.853 0 01-.558-.494c-.194-.205-.41-.505-.66-.87-.24-.377-.502-.817-.763-1.333l-.217-.365c-.136-.236-.319-.58-.558-1.042a16.923 16.923 0 01-.626-1.321.813.813 0 00-.33-.408l-.069-.043a.754.754 0 00-.216-.108c-.102-.043-.205-.064-.307-.086L.877 1.21c-.376 0-.638.086-.775.247l-.056.075A.424.424 0 000 1.737c0 .097.023.204.08.344a40.422 40.422 0 001.765 3.47c.637 1.106 1.184 2.008 1.662 2.696.467.677.945 1.321 1.435 1.934.49.601.808.988.968 1.16.159.172.284.3.375.386l.342.312c.216.204.535.451.956.73.422.29.888.57 1.39.838a7.68 7.68 0 001.776.677 6.643 6.643 0 001.981.215h1.56c.319-.022.558-.118.717-.28l.057-.064c.034-.053.069-.129.103-.236.034-.107.045-.226.045-.355a3.813 3.813 0 01.091-.988c.069-.29.148-.516.228-.666a1.5 1.5 0 01.296-.376c.114-.107.182-.161.228-.183.045-.021.08-.032.102-.043.217-.064.467 0 .763.194.296.204.57.451.831.741.262.29.57.623.923.988.364.366.671.634.945.817l.273.15c.182.108.41.194.706.28.285.085.547.107.763.064l3.461-.054c.342 0 .615-.053.797-.16.194-.108.308-.226.342-.355.034-.13.034-.269.011-.43-.057-.172-.09-.28-.114-.344z" fill="#fff"/></svg>