<svg xmlns="http://www.w3.org/2000/svg" width="32" height="32"><path d="M0 32l2.207-8C.773 21.517 0 18.759 0 15.89 0 7.173 7.172 0 15.945 0S32 7.172 32 15.89 24.717 32 15.945 32c-2.759 0-5.407-.883-7.779-2.207L.001 32zm8.607-5.075l.497.276c2.041 1.269 4.414 2.041 6.897 2.041 7.228 0 13.242-6.014 13.242-13.352S23.229 2.759 15.946 2.759 2.76 8.607 2.76 15.89c0 2.538.717 5.021 2.041 7.117l.331.497-1.269 4.635 4.745-1.214zm2.044-18.484l1.048.055c.221 0 .386.165.441.331l1.6 3.586c.055.166 0 .386-.11.552l-1.324 1.49c-.11.11-.11.276-.055.441 1.71 3.31 4.855 4.634 5.793 4.965a.43.43 0 00.441-.11l1.379-1.765a.525.525 0 01.662-.165l3.476 1.6c.221.11.331.386.276.607l-.165.772a3.257 3.257 0 01-1.435 2.097c-.993.607-2.207.883-3.752.441-4.855-1.379-7.614-4.579-9.048-6.565s-2.041-3.972-1.655-5.628c.221-1.104 1.048-1.931 1.545-2.372.221-.221.552-.331.883-.331z"/></svg>