<svg width="42" height="42" viewBox="0 0 42 42" fill="none" xmlns="http://www.w3.org/2000/svg">
<g id="clock_time_icon_142903 2">
<path id="Vector" fill-rule="evenodd" clip-rule="evenodd" d="M22.75 19.9896V12.25C22.75 11.284 21.966 10.5 21 10.5C20.034 10.5 19.25 11.284 19.25 12.25V20.9805C19.2469 21.2893 19.3257 21.5944 19.4775 21.863C19.6481 22.1528 19.8729 22.3736 20.1419 22.5253L27.7027 26.8905C28.5393 27.3735 29.6103 27.0866 30.0933 26.25C30.5763 25.4134 30.2893 24.3425 29.4527 23.8595L22.75 19.9896ZM21 3.5C30.6652 3.5 38.5 11.3348 38.5 21C38.5 30.6652 30.6652 38.5 21 38.5C11.3348 38.5 3.5 30.6652 3.5 21C3.5 11.3348 11.3348 3.5 21 3.5Z" fill="#0088CF"/>
</g>
</svg>
