<svg width="39" height="39" viewBox="0 0 39 39" fill="none" xmlns="http://www.w3.org/2000/svg">
<g id="documents-black-interface-symbol_icon-icons.com_54548 1">
<g id="Group">
<g id="Group_2">
<path id="Vector" d="M11.3225 8.80645H5.03218L12.5806 0V7.54839C12.5806 8.30323 11.9515 8.80645 11.3225 8.80645Z" fill="#0088CF"/>
<path id="Vector_2" d="M13.8387 7.54839V0H26.4194C27.8033 0 28.9355 1.13223 28.9355 2.51613C30.3194 2.51613 31.4516 3.64835 31.4516 5.03226C32.8355 5.03226 33.9678 6.16448 33.9678 7.54839V36.4839C33.9678 37.8677 32.8355 39 31.4516 39H12.5807C11.1968 39 10.0645 37.8677 10.0645 36.4839C8.68071 36.4839 7.54842 35.3516 7.54842 33.9677C6.16458 33.9677 5.03229 32.8355 5.03229 31.4516V10.0645H11.3226C12.7064 10.0645 13.8387 8.93229 13.8387 7.54839ZM12.5807 37.7419H31.4516C32.0806 37.7419 32.7097 37.2387 32.7097 36.4839V7.54839C32.7097 6.91939 32.2065 6.29032 31.4516 6.29032V33.9677C31.4516 35.3516 30.3194 36.4839 28.9355 36.4839H11.3226C11.3226 37.1129 11.8258 37.7419 12.5807 37.7419ZM10.0645 35.2258H28.9355C29.5645 35.2258 30.1936 34.7226 30.1936 33.9677V5.03226C30.1936 4.40326 29.6904 3.77419 28.9355 3.77419V31.4516C28.9355 32.8355 27.8033 33.9677 26.4194 33.9677H8.80648C8.80648 34.5968 9.30971 35.2258 10.0645 35.2258Z" fill="#0088CF"/>
</g>
</g>
</g>
</svg>
