<svg width="49" height="49" viewBox="0 0 49 49" fill="none" xmlns="http://www.w3.org/2000/svg">
<g id="-local-taxi_90159 1">
<path id="Vector" d="M38.6283 12.2704C38.22 11.0658 37.0767 10.2083 35.7292 10.2083H30.625V6.125H18.375V10.2083H13.2708C11.9233 10.2083 10.8004 11.0658 10.3717 12.2704L6.125 24.5V40.8333C6.125 41.9563 7.04375 42.875 8.16667 42.875H10.2083C11.3313 42.875 12.25 41.9563 12.25 40.8333V38.7917H36.75V40.8333C36.75 41.9563 37.6688 42.875 38.7917 42.875H40.8333C41.9563 42.875 42.875 41.9563 42.875 40.8333V24.5L38.6283 12.2704ZM13.2708 32.6667C11.5763 32.6667 10.2083 31.2987 10.2083 29.6042C10.2083 27.9096 11.5763 26.5417 13.2708 26.5417C14.9654 26.5417 16.3333 27.9096 16.3333 29.6042C16.3333 31.2987 14.9654 32.6667 13.2708 32.6667ZM35.7292 32.6667C34.0346 32.6667 32.6667 31.2987 32.6667 29.6042C32.6667 27.9096 34.0346 26.5417 35.7292 26.5417C37.4237 26.5417 38.7917 27.9096 38.7917 29.6042C38.7917 31.2987 37.4237 32.6667 35.7292 32.6667ZM10.2083 22.4583L13.2708 13.2708H35.7292L38.7917 22.4583H10.2083Z" fill="#0088CF"/>
</g>
</svg>
