<svg width="35" height="40" viewBox="0 0 35 40" fill="none" xmlns="http://www.w3.org/2000/svg">
<g id="edit-document_icon-icons.com_54542 1" clip-path="url(#clip0_419_3885)">
<g id="Group">
<g id="Group_2">
<path id="Vector" d="M16.7279 8.97062C16.7279 9.85297 17.3713 10.4412 18.0147 10.4412H24.4485L16.7279 0.147095V8.97062Z" fill="#0088CF"/>
<path id="Vector_2" d="M34.2279 6.9118L32.6839 5.14709C31.6544 3.97062 30.1104 3.97062 29.0809 5.14709L24.4485 10.4412L23.1618 11.9118H18.0147C16.5992 11.9118 15.4412 10.5883 15.4412 8.97062V0.147095H2.57353C1.15805 0.147095 0 1.47058 0 3.08827V36.9118C0 38.5294 1.15805 39.853 2.57353 39.853H21.875C23.2904 39.853 24.4485 38.5294 24.4485 36.9118V22.2059L34.2279 11.0294C35.2574 9.85297 35.2574 8.08827 34.2279 6.9118ZM10.6801 32.0588L11.4522 27.4999L14.6691 31.1764L10.6801 32.0588ZM15.6985 30.1471L12.3529 26.3235L26.7647 9.85289L30.1104 13.6764L15.6985 30.1471ZM33.3272 9.99999L31.1397 12.5L27.7941 8.67642L29.9817 6.17646C30.4964 5.58823 31.2684 5.58823 31.7831 6.17646L33.3272 7.94117C33.8419 8.5294 33.8419 9.41176 33.3272 9.99999Z" fill="#0088CF"/>
</g>
</g>
</g>
<defs>
<clipPath id="clip0_419_3885">
<rect width="35" height="40" fill="white"/>
</clipPath>
</defs>
</svg>
