<svg width="60" height="60" viewBox="0 0 60 60" fill="none" xmlns="http://www.w3.org/2000/svg">
<g id="4047289-auto-car-combi-commercial-compact-computer_113535 10" clip-path="url(#clip0_419_3894)">
<path id="Vector" d="M17.0611 36.4839C17.5189 36.4839 17.8926 36.1242 17.9148 35.672C17.9156 35.6579 17.9159 35.6436 17.9159 35.6293C17.9159 35.1573 17.5332 34.7745 17.0612 34.7745C16.5892 34.7745 16.2064 35.1573 16.2064 35.6293C16.2064 35.6436 16.2068 35.6579 16.2076 35.672C16.2297 36.1242 16.6034 36.4839 17.0611 36.4839Z" fill="#0088CF"/>
<path id="Vector_2" d="M43.7613 34.7745C43.2892 34.7745 42.9065 35.1573 42.9065 35.6293C42.9065 35.6436 42.9069 35.6579 42.9076 35.672C42.9298 36.1242 43.3036 36.4839 43.7613 36.4839C44.2191 36.4839 44.5928 36.1242 44.615 35.672C44.6158 35.6579 44.6161 35.6436 44.6161 35.6293C44.616 35.1573 44.2333 34.7745 43.7613 34.7745Z" fill="#0088CF"/>
<path id="Vector_3" d="M10.3576 35.8341H12.9717C13.0779 38.0007 14.8683 39.7239 17.0613 39.7239C19.2543 39.7239 21.0448 38.0007 21.1509 35.8341H39.6717C39.778 38.0007 41.5683 39.7239 43.7613 39.7239C45.9543 39.7239 47.7448 38.0007 47.8509 35.8341H49.9935C50.2341 35.8341 50.4525 35.7261 50.6103 35.5521C50.7681 35.3781 50.8659 35.1381 50.8659 34.8723C50.8659 34.6437 50.7922 34.4223 50.6572 34.2483L50.2126 33.6741C51.2056 31.4253 50.8576 28.2027 50.5263 26.3475C50.3361 25.2789 49.7524 24.3447 48.9105 23.7753C47.9018 23.0925 46.1841 22.1595 43.3527 21.1647C37.7175 19.1853 27.7557 20.9055 25.7942 22.5147C24.2312 23.7963 21.1388 26.8347 17.219 27.2847C15.1821 27.5181 13.4378 28.1139 12.2318 28.6329C11.1584 29.0943 10.4403 30.2193 10.4012 31.4883L10.3586 32.8641L9.67883 33.3639C9.50843 33.4893 9.37229 33.6567 9.27863 33.8499C9.18503 34.0425 9.13403 34.2609 9.13403 34.4859C9.13409 35.2305 9.68189 35.8341 10.3576 35.8341ZM46.348 35.8341C46.2436 37.1691 45.1234 38.2239 43.7614 38.2239C42.3994 38.2239 41.2792 37.1691 41.1748 35.8341C41.1694 35.7669 41.1664 35.6985 41.1664 35.6295C41.1664 34.1985 42.3304 33.0345 43.7614 33.0345C45.1924 33.0345 46.3564 34.1985 46.3564 35.6295C46.3564 35.6985 46.3534 35.7669 46.348 35.8341ZM49.6628 29.2665C49.8629 29.3079 50.009 29.4794 50.0201 29.6835C50.0694 30.5914 49.9347 31.5265 49.8448 32.0263C49.8063 32.2397 49.6205 32.3945 49.4036 32.3945H49.1037C48.8396 32.3945 48.6326 32.1673 48.6574 31.9043L48.8375 29.9827C48.8465 29.8865 48.8864 29.7958 48.9512 29.7241L49.2393 29.4051C49.3459 29.287 49.507 29.2343 49.6628 29.2665ZM40.8685 25.0967L41.1701 23.6926C41.3021 23.0784 41.814 22.6186 42.4388 22.553L42.6947 22.5262C42.7484 22.544 42.8032 22.5614 42.8557 22.5799C45.628 23.5539 47.2213 24.443 48.0697 25.0174C48.573 25.3578 48.93 25.9383 49.0496 26.6103C49.0642 26.692 49.0783 26.7734 49.0918 26.8544H42.2887C41.9786 26.8544 41.6767 26.7552 41.427 26.5712C40.967 26.2324 40.7485 25.6553 40.8685 25.0967ZM34.6614 30.1145H33.1614C32.8797 30.1145 32.6514 29.8861 32.6514 29.6045C32.6514 29.3228 32.8797 29.0945 33.1614 29.0945H34.6614C34.943 29.0945 35.1714 29.3228 35.1714 29.6045C35.1714 29.8861 34.943 30.1145 34.6614 30.1145ZM26.1407 24.1853C26.3708 23.9887 26.5694 23.8189 26.7454 23.6746C27.0067 23.4602 28.1039 22.9295 30.3876 22.4538C32.2879 22.058 34.3958 21.8239 36.3904 21.7832L35.693 25.784C35.5169 26.7938 34.6604 27.5441 33.6363 27.5857L23.2211 28.0084C22.628 28.0325 22.0571 27.8131 21.6341 27.4115C23.5253 26.4194 25.0531 25.1147 26.1407 24.1853ZM17.0613 33.0345C18.4924 33.0345 19.6563 34.1985 19.6563 35.6295C19.6563 35.6985 19.6533 35.7669 19.6479 35.8341C19.5435 37.1691 18.4233 38.2239 17.0613 38.2239C15.6993 38.2239 14.5791 37.1691 14.4748 35.8341C14.4693 35.7669 14.4663 35.6985 14.4663 35.6295C14.4664 34.1985 15.6304 33.0345 17.0613 33.0345ZM11.9713 30.1545C12.38 30.1545 12.7113 30.6559 12.7113 31.2745C12.7113 31.8931 12.38 32.3945 11.9713 32.3945C11.5627 32.3945 11.2313 31.8931 11.2313 31.2745C11.2314 30.6559 11.5627 30.1545 11.9713 30.1545Z" fill="#0088CF"/>
<path id="Vector_4" d="M35.5966 44.4864H38.3974C38.5112 46.653 40.4295 48.3762 42.7791 48.3762C45.1288 48.3762 47.0471 46.653 47.1609 44.4864H67.0046C67.1184 46.653 69.0366 48.3762 71.3863 48.3762C73.7359 48.3762 75.6543 46.653 75.768 44.4864H78.0637C78.3214 44.4864 78.5554 44.3784 78.7245 44.2044C78.8936 44.0304 78.9984 43.7904 78.9984 43.5246C78.9984 43.296 78.9194 43.0746 78.7747 42.9006L78.2984 42.3264C79.3623 40.0776 78.9894 36.855 78.6345 34.9998C78.4307 33.9312 77.8053 32.997 76.9033 32.4276C75.8226 31.7448 73.9822 30.8118 70.9485 29.817C64.9108 27.8376 54.2374 29.5578 52.1359 31.167C50.4612 32.4486 47.1479 35.487 42.9481 35.937C40.7657 36.1704 38.8969 36.7662 37.6047 37.2852C36.4546 37.7466 35.6852 38.8716 35.6434 40.1406L35.5977 41.5164L34.8694 42.0162C34.6868 42.1416 34.5409 42.309 34.4406 42.5022C34.3403 42.6948 34.2856 42.9132 34.2856 43.1382C34.2857 43.8828 34.8726 44.4864 35.5966 44.4864ZM74.1577 44.4864C74.0459 45.8214 72.8456 46.8762 71.3864 46.8762C69.9271 46.8762 68.7269 45.8214 68.6151 44.4864C68.6092 44.4192 68.606 44.3508 68.606 44.2818C68.606 42.8508 69.8531 41.6868 71.3864 41.6868C72.9196 41.6868 74.1667 42.8508 74.1667 44.2818C74.1667 44.3508 74.1635 44.4192 74.1577 44.4864ZM77.7093 37.9188C77.9238 37.9602 78.0803 38.1318 78.0922 38.3358C78.145 39.2437 78.0007 40.1788 77.9043 40.6786C77.8631 40.8921 77.664 41.0468 77.4316 41.0468H77.1103C76.8273 41.0468 76.6056 40.8196 76.6321 40.5566L76.8251 38.6351C76.8347 38.5388 76.8774 38.4481 76.9469 38.3764L77.2556 38.0574C77.3698 37.9394 77.5424 37.8866 77.7093 37.9188ZM68.2869 33.7491L68.61 32.345C68.7514 31.7307 69.2999 31.2709 69.9694 31.2054L70.2435 31.1785C70.3011 31.1963 70.3597 31.2138 70.416 31.2322C73.3863 32.2062 75.0935 33.0954 76.0025 33.6697C76.5417 34.0101 76.9242 34.5906 77.0523 35.2626C77.0679 35.3444 77.083 35.4257 77.0975 35.5068H69.8085C69.4762 35.5068 69.1527 35.4075 68.8853 35.2236C68.3924 34.8848 68.1583 34.3077 68.2869 33.7491ZM61.6364 38.7668H60.0293C59.7274 38.7668 59.4828 38.5385 59.4828 38.2568C59.4828 37.9752 59.7274 37.7468 60.0293 37.7468H61.6364C61.9382 37.7468 62.1828 37.9752 62.1828 38.2568C62.1828 38.5385 61.9382 38.7668 61.6364 38.7668ZM52.507 32.8377C52.7536 32.6411 52.9664 32.4712 53.155 32.327C53.4349 32.1126 54.6105 31.5819 57.0573 31.1061C59.0933 30.7103 61.3518 30.4763 63.4889 30.4355L62.7417 34.4364C62.553 35.4462 61.6354 36.1965 60.5381 36.2381L49.379 36.6608C48.7434 36.6848 48.1318 36.4654 47.6786 36.0639C49.7049 35.0717 51.3417 33.7671 52.507 32.8377ZM42.7791 41.6868C44.3124 41.6868 45.5595 42.8508 45.5595 44.2818C45.5595 44.3508 45.5563 44.4192 45.5505 44.4864C45.4386 45.8214 44.2384 46.8762 42.7791 46.8762C41.3199 46.8762 40.1196 45.8214 40.0078 44.4864C40.002 44.4192 39.9988 44.3508 39.9988 44.2818C39.9988 42.8508 41.246 41.6868 42.7791 41.6868ZM37.3256 38.8068C37.7635 38.8068 38.1184 39.3083 38.1184 39.9269C38.1184 40.5454 37.7635 41.0469 37.3256 41.0469C36.8877 41.0469 36.5328 40.5455 36.5328 39.9269C36.5328 39.3083 36.8877 38.8068 37.3256 38.8068Z" fill="#0088CF"/>
</g>
<defs>
<clipPath id="clip0_419_3894">
<rect width="60" height="60" fill="white"/>
</clipPath>
</defs>
</svg>
