<svg width="141" height="161" fill="none" xmlns="http://www.w3.org/2000/svg"><g fill="#fff" fill-opacity=".24" clip-path="url(#clip0_456_147)"><path d="M67.393 36.107c0 3.552 2.591 5.92 5.183 5.92h25.92L67.393.592v35.514z"/><path d="M137.89 27.82l-6.221-7.102c-4.147-4.736-10.367-4.736-14.515 0L98.493 42.026l-5.184 5.92H72.573c-5.702 0-10.367-5.328-10.367-11.839V.593H10.368C4.665.593 0 5.92 0 12.43v136.14c0 6.511 4.665 11.839 10.368 11.839h77.757c5.702 0 10.368-5.328 10.368-11.839V89.38l39.397-44.986c4.147-4.735 4.147-11.838 0-16.573zM43.026 129.037l3.11-18.349 12.96 14.797-16.07 3.552zm20.217-7.695l-13.478-15.39 58.059-66.294 13.478 15.39-58.06 66.294zM134.26 40.25l-8.812 10.063-13.478-15.39 8.812-10.062c2.074-2.368 5.184-2.368 7.258 0l6.22 7.103a6.298 6.298 0 010 8.286z"/></g><defs><clipPath id="clip0_456_147"><path fill="#fff" d="M0 0h141v161H0z"/></clipPath></defs></svg>