<svg width="252" height="185" fill="none" xmlns="http://www.w3.org/2000/svg"><g fill="#fff" fill-opacity=".21" clip-path="url(#clip0_456_152)"><path d="M144.935 141.334c-3.781-.601-3.867-10.913-3.867-10.913s11.104-10.921 13.519-25.6c6.507 0 10.526-15.61 4.015-21.101.279-5.781 8.363-45.374-32.602-45.374-40.96 0-32.868 39.593-32.597 45.374-6.507 5.492-2.488 21.101 4.02 21.101 2.415 14.68 13.518 25.6 13.518 25.6s-.09 10.312-3.867 10.913C94.908 143.262 49.486 163.167 49.486 185h153.037c0-21.833-45.422-41.738-57.588-43.666z"/><path d="M68.556 144.816c8.791-5.42 19.457-10.443 28.208-13.473-3.14-4.467-6.637-10.569-8.832-17.782-3.064-2.511-5.57-6.107-7.178-10.506-1.6-4.422-2.212-9.358-1.708-13.915.356-3.28 1.289-6.333 2.713-9.006-.86-9.314-1.478-27.574 10.454-40.894 4.633-5.167 10.472-8.88 17.479-11.115C108.435 15.175 101.888 0 76.522 0c-40.968 0-32.875 39.593-32.6 45.374-6.507 5.483-2.487 21.101 4.02 21.101 2.42 14.67 13.513 25.591 13.513 25.591s-.09 10.316-3.861 10.921C45.422 104.907 0 124.812 0 146.654h65.681a149.11 149.11 0 012.875-1.838zm117.766 1.838h65.677c0-21.842-45.421-41.747-57.597-43.667-3.763-.605-3.853-10.92-3.853-10.92s11.099-10.922 13.518-25.592c6.508 0 10.527-15.618 4.02-21.101C208.357 39.593 216.451 0 175.481 0c-25.365 0-31.917 15.176-33.174 28.125 7.016 2.235 12.856 5.948 17.479 11.115 11.932 13.32 11.315 31.58 10.459 40.894 1.428 2.673 2.357 5.727 2.712 9.006.509 4.557-.108 9.493-1.707 13.915-1.614 4.399-4.11 7.995-7.179 10.506-2.199 7.213-5.7 13.315-8.836 17.782 8.751 3.03 19.426 8.053 28.208 13.473.982.614 1.942 1.219 2.879 1.838z"/></g><defs><clipPath id="clip0_456_152"><path fill="#fff" d="M0 0h252v185H0z"/></clipPath></defs></svg>