<svg width="520" height="242" viewBox="0 0 520 242" fill="none" xmlns="http://www.w3.org/2000/svg">
<path d="M15.7776 193.537H48.2801C49.6005 220.475 71.8612 241.901 99.1275 241.901C126.394 241.901 148.655 220.475 149.975 193.537H380.25C381.571 220.475 403.831 241.901 431.098 241.901C458.364 241.901 480.625 220.475 481.945 193.537H508.585C511.576 193.537 514.292 192.195 516.253 190.031C518.215 187.868 519.431 184.884 519.431 181.579C519.431 178.737 518.515 175.984 516.836 173.821L511.308 166.681C523.655 138.721 519.328 98.6536 515.209 75.5873C512.844 62.301 505.586 50.6858 495.119 43.6063C482.578 35.1168 461.221 23.5165 426.017 11.1478C355.953 -13.4628 232.095 7.92507 207.707 27.9328C188.274 43.8673 149.825 81.6448 101.089 87.2398C75.7627 90.1417 54.0758 97.5495 39.0812 104.002C25.7352 109.739 16.8064 123.727 16.3207 139.505L15.7911 156.61L7.33887 162.825C5.22023 164.384 3.52755 166.465 2.36305 168.867C1.19929 171.262 0.565186 173.977 0.565186 176.775C0.565932 186.033 7.37691 193.537 15.7776 193.537ZM463.258 193.537C461.96 210.136 448.033 223.251 431.098 223.251C414.164 223.251 400.236 210.136 398.939 193.537C398.871 192.702 398.834 191.851 398.834 190.993C398.834 173.201 413.306 158.729 431.098 158.729C448.891 158.729 463.363 173.201 463.363 190.993C463.363 191.851 463.326 192.702 463.258 193.537ZM504.473 111.88C506.961 112.395 508.778 114.528 508.916 117.065C509.528 128.353 507.854 139.979 506.735 146.193C506.257 148.847 503.947 150.771 501.25 150.771H497.521C494.238 150.771 491.665 147.946 491.972 144.677L494.211 120.785C494.323 119.589 494.819 118.461 495.625 117.569L499.207 113.603C500.532 112.135 502.536 111.48 504.473 111.88ZM395.131 60.0361L398.881 42.5783C400.521 34.9415 406.886 29.2241 414.655 28.4095L417.836 28.0753C418.504 28.2968 419.185 28.5139 419.837 28.7429C454.306 40.8535 474.117 51.9085 484.666 59.0492C490.923 63.282 495.362 70.4996 496.849 78.8548C497.03 79.8708 497.205 80.8824 497.373 81.8902H412.788C408.932 81.8902 405.179 80.6563 402.074 78.3691C396.356 74.1564 393.639 66.9814 395.131 60.0361ZM317.955 122.423H299.305C295.803 122.423 292.964 119.584 292.964 116.082C292.964 112.581 295.803 109.741 299.305 109.741H317.955C321.457 109.741 324.296 112.581 324.296 116.082C324.296 119.584 321.457 122.423 317.955 122.423ZM212.014 48.7044C214.875 46.2598 217.345 44.1478 219.533 42.3545C222.782 39.689 236.424 33.0906 264.818 27.1756C288.444 22.2542 314.653 19.3441 339.452 18.8376L330.781 68.5816C328.593 81.1368 317.944 90.4655 305.21 90.9825L175.715 96.238C168.34 96.5372 161.242 93.8091 155.983 88.8168C179.497 76.481 198.492 60.2599 212.014 48.7044ZM99.1275 158.729C116.92 158.729 131.392 173.201 131.392 190.993C131.392 191.851 131.355 192.702 131.288 193.537C129.99 210.136 116.062 223.251 99.1275 223.251C82.1933 223.251 68.2655 210.136 66.9682 193.537C66.9003 192.702 66.863 191.851 66.863 190.993C66.8637 173.201 81.3361 158.729 99.1275 158.729ZM35.842 122.921C40.9238 122.921 45.0425 129.155 45.0425 136.847C45.0425 144.537 40.9238 150.772 35.842 150.772C30.761 150.772 26.6416 144.538 26.6416 136.847C26.6424 129.155 30.761 122.921 35.842 122.921Z" fill="white" fill-opacity="0.48"/>
</svg>
