<svg width="58" height="58" viewBox="0 0 58 58" fill="none" xmlns="http://www.w3.org/2000/svg">
<g id="car_vehicle_transport_icon_144665 1">
<path id="Vector" fill-rule="evenodd" clip-rule="evenodd" d="M42.2917 34.4375C42.2917 33.6363 42.6099 32.8679 43.1764 32.3014C43.743 31.7349 44.5113 31.4166 45.3125 31.4166C46.1137 31.4166 46.882 31.7349 47.4486 32.3014C48.0151 32.8679 48.3333 33.6363 48.3333 34.4375C48.3333 35.2386 48.0151 36.007 47.4486 36.5735C46.882 37.14 46.1137 37.4583 45.3125 37.4583C44.5113 37.4583 43.743 37.14 43.1764 36.5735C42.6099 36.007 42.2917 35.2386 42.2917 34.4375ZM22.9583 41.6875H35.0417V38.6666H22.9583V41.6875ZM12.6875 36.8541C11.8863 36.8541 11.118 36.5359 10.5514 35.9693C9.98493 35.4028 9.66667 34.6345 9.66667 33.8333C9.66667 33.0321 9.98493 32.2638 10.5514 31.6972C11.118 31.1307 11.8863 30.8125 12.6875 30.8125C13.4887 30.8125 14.257 31.1307 14.8236 31.6972C15.3901 32.2638 15.7083 33.0321 15.7083 33.8333C15.7083 34.6345 15.3901 35.4028 14.8236 35.9693C14.257 36.5359 13.4887 36.8541 12.6875 36.8541ZM18.6083 15.3337C18.7775 14.8383 19.2367 14.5 19.7442 14.5H38.2437C38.7633 14.5 39.2225 14.8383 39.4279 15.4425L43.1738 25.375H14.8263L18.6083 15.3337ZM50.75 24.5255V23.5625C50.75 23.0818 50.559 22.6207 50.2191 22.2808C49.8792 21.9409 49.4182 21.75 48.9375 21.75H46.9679L43.9833 13.8354C43.589 12.6261 42.8231 11.572 41.7947 10.8235C40.7663 10.075 39.5278 9.67011 38.2558 9.66663H19.7321C17.1221 9.67871 14.8263 11.3583 14.0529 13.7387L11.0321 21.75H9.0625C8.5818 21.75 8.12078 21.9409 7.78087 22.2808C7.44096 22.6207 7.25 23.0818 7.25 23.5625V24.5255C7.2501 24.9379 7.39084 25.3379 7.64897 25.6596C7.9071 25.9812 8.26719 26.2051 8.66979 26.2945L9.2075 26.4141L8.27708 28.5287C7.611 30.0319 7.26532 31.6574 7.26208 33.3016L7.25 47.5841C7.25 48.6595 8.13208 49.5416 9.2075 49.5416H12.5425C13.6179 49.5416 14.5 48.6595 14.5 47.5841V45.3125H12.6875V43.5H45.3125V45.3125H43.5V47.5841C43.5 48.6595 44.3821 49.5416 45.4575 49.5416H48.7925C49.8679 49.5416 50.75 48.6595 50.75 47.5841V33.3258C50.75 31.6704 50.3996 30.027 49.7229 28.5166L48.7925 26.4141L49.3302 26.2945C49.7328 26.2051 50.0929 25.9812 50.351 25.6596C50.6092 25.3379 50.7499 24.9379 50.75 24.5255Z" fill="white"/>
</g>
</svg>
