<svg width="244" height="244" viewBox="0 0 244 244" fill="none" xmlns="http://www.w3.org/2000/svg">
<path id="Vector" fill-rule="evenodd" clip-rule="evenodd" d="M41 7.25C41 3.52211 44.022 0.5 47.75 0.5H196.25C199.978 0.5 203 3.52211 203 7.25V14H236.75C240.478 14 243.5 17.0221 243.5 20.75V61.25C243.5 79.8895 228.389 95 209.75 95H198.391C188.722 122.357 164.773 142.969 135.5 147.88V189.5H176C179.728 189.5 182.75 192.522 182.75 196.25V236.75C182.75 240.478 179.728 243.5 176 243.5H68C64.272 243.5 61.25 240.478 61.25 236.75V196.25C61.25 192.522 64.272 189.5 68 189.5H108.5V147.88C79.2273 142.969 55.2783 122.357 45.6089 95H34.25C15.6104 95 0.5 79.8895 0.5 61.25V20.75C0.5 17.0221 3.52211 14 7.25 14H41V7.25ZM203 68V27.5H230V61.25C230 72.4341 220.934 81.5 209.75 81.5H203V68ZM41 27.5H14V61.25C14 72.4341 23.0663 81.5 34.25 81.5H41V68V27.5Z" fill="white" fill-opacity="0.17"/>
</svg>
