<svg width="65" height="65" viewBox="0 0 65 65" fill="none" xmlns="http://www.w3.org/2000/svg">
<g id="353443-clock-stopwatch-timer-watch_107503 1">
<g id="Group">
<path id="Vector" d="M29.0888 12.6049H36.0296C36.6989 12.6049 37.2473 12.0565 37.2473 11.3872V9.47884C37.2473 8.80955 36.6989 8.26111 36.0296 8.26111H29.0888C28.4195 8.26111 27.8711 8.80955 27.8711 9.47884V11.3872C27.8701 12.0565 28.4185 12.6049 29.0888 12.6049Z" fill="#0088CF"/>
<path id="Vector_2" d="M32.4998 14.1893C26.6123 14.1893 21.2782 16.5953 17.4219 20.474L22.047 23.8134C24.8349 21.2957 28.5145 19.7478 32.5587 19.7478C41.2251 19.7478 48.2755 26.7983 48.2755 35.4646C48.2755 44.131 41.2261 51.1814 32.5587 51.1814C23.8914 51.1814 16.842 44.132 16.842 35.4646C16.842 31.6307 18.2252 28.1166 20.5155 25.3856L17.042 20.8935C13.4477 24.7051 11.2266 29.8249 11.2266 35.4646C11.2266 47.1961 20.7694 56.74 32.4998 56.74C44.2303 56.74 53.7731 47.1961 53.7731 35.4646C53.7731 23.7332 44.2303 14.1893 32.4998 14.1893Z" fill="#242321"/>
<path id="Vector_3" d="M32.6602 38.9635C31.5837 38.9635 30.6351 38.4476 30.0176 37.6605L30.0115 37.6686L22.3242 27.7266C20.6901 29.8818 19.709 32.5569 19.709 35.4637C19.709 42.5487 25.4727 48.3113 32.5577 48.3113C39.6427 48.3113 45.4053 42.5476 45.4053 35.4637C45.4053 28.3797 39.6416 22.615 32.5577 22.615C29.4732 22.615 26.6396 23.7088 24.4225 25.5278L34.3939 32.7266L34.3878 32.7347C35.3638 33.3217 36.022 34.381 36.022 35.6028C36.023 37.4584 34.5188 38.9635 32.6602 38.9635Z" fill="#0088CF"/>
</g>
</g>
</svg>
