<svg width="53" height="53" viewBox="0 0 53 53" fill="none" xmlns="http://www.w3.org/2000/svg">
<g id="construction_drill_perforator_tool_icon_153252 1">
<g id="Group">
<path id="Vector" d="M20.8687 42.5656C20.5375 41.4063 19.875 40.5781 19.0469 39.75H4.47187C3.80938 40.5781 3.3125 41.5719 3.3125 42.7312V44.7188C3.3125 45.7125 3.975 46.375 4.96875 46.375H19.875C20.3719 46.375 20.8687 46.0438 21.2 45.7125C21.5312 45.2156 21.5312 44.7188 21.3656 44.2219L20.8687 42.5656Z" fill="#242321"/>
<path id="Vector_2" d="M49.6875 16.5625H44.7188V16.0656C44.7188 13.5812 42.7312 11.5938 40.2469 11.5938H38.0938C38.0938 10.6 37.4313 9.9375 36.4375 9.9375H11.5938C6.95625 9.9375 3.3125 13.5813 3.3125 18.2188C3.3125 22.0281 5.9625 25.175 9.44062 26.1688L5.9625 36.4375H19.3781L20.5375 33.125H24.3469C27.4937 33.125 30.1438 30.9719 30.8063 28.1562L31.1375 26.5H36.4375C37.4313 26.5 38.0938 25.8375 38.0938 24.8438H40.2469C42.7312 24.8438 44.7188 22.8563 44.7188 20.3719V19.875H49.6875C50.6813 19.875 51.3438 19.2125 51.3438 18.2188C51.3438 17.225 50.6813 16.5625 49.6875 16.5625ZM14.7406 17.225L13.0844 20.5375C12.7531 21.2 12.2563 21.5312 11.5938 21.5312C11.2625 21.5312 11.0969 21.5312 10.9312 21.3656C10.1031 21.0344 9.77187 20.0406 10.2687 19.2125L11.925 15.9C12.2562 15.0719 13.25 14.7406 13.9125 15.0719C14.7406 15.5688 15.0719 16.5625 14.7406 17.225ZM21.3656 17.225L19.7094 20.5375C19.3781 21.2 18.8813 21.5312 18.2188 21.5312C17.8875 21.5312 17.7219 21.5312 17.5563 21.3656C16.7281 21.0344 16.3969 20.0406 16.8937 19.2125L18.55 15.9C18.8812 15.0719 19.875 14.7406 20.7031 15.2375C21.3656 15.5687 21.6969 16.5625 21.3656 17.225ZM27.4938 27.3281C27.1625 28.8188 25.8375 29.8125 24.1813 29.8125H21.5312L22.6906 26.5H27.6594L27.4938 27.3281Z" fill="#242321"/>
</g>
</g>
</svg>
