<svg width="26" height="26" viewBox="0 0 26 26" fill="none" xmlns="http://www.w3.org/2000/svg">
<g id="blood_drop_icon_133865 1">
<g id="blood drop">
<path id="Vector" d="M13.5444 1.01561C13.3951 0.880861 13.2011 0.806274 13 0.806274C12.7989 0.806274 12.6049 0.880861 12.4556 1.01561C12.1144 1.32436 4.0625 8.61248 4.0625 16.25C4.0625 18.6204 5.00413 20.8936 6.68023 22.5697C8.35634 24.2459 10.6296 25.1875 13 25.1875C15.3704 25.1875 17.6437 24.2459 19.3198 22.5697C20.9959 20.8936 21.9375 18.6204 21.9375 16.25C21.9375 8.61248 13.8856 1.32436 13.5444 1.01561ZM15.7544 21.8644C14.8911 22.2642 13.9514 22.4721 13 22.4737C12.7845 22.4737 12.5778 22.3881 12.4255 22.2358C12.2731 22.0834 12.1875 21.8767 12.1875 21.6612C12.1875 21.4457 12.2731 21.2391 12.4255 21.0867C12.5778 20.9343 12.7845 20.8487 13 20.8487C13.7139 20.851 14.4193 20.6928 15.0638 20.3856C15.2598 20.294 15.4843 20.2841 15.6877 20.358C15.8911 20.4319 16.0569 20.5836 16.1484 20.7797C16.24 20.9758 16.25 21.2002 16.1761 21.4036C16.1022 21.607 15.9505 21.7728 15.7544 21.8644ZM17.745 20.41C17.5982 20.5668 17.3953 20.6592 17.1806 20.6668C16.9659 20.6744 16.7569 20.5967 16.5994 20.4506C16.4425 20.3038 16.3502 20.1009 16.3426 19.8862C16.335 19.6715 16.4127 19.4625 16.5587 19.305C17.4043 18.4018 17.8749 17.2109 17.875 15.9737C17.875 15.7582 17.9606 15.5516 18.113 15.3992C18.2653 15.2468 18.472 15.1612 18.6875 15.1612C18.903 15.1612 19.1097 15.2468 19.262 15.3992C19.4144 15.5516 19.5 15.7582 19.5 15.9737C19.4984 17.6215 18.8711 19.2071 17.745 20.41Z" fill="#0088CF"/>
</g>
</g>
</svg>
