<svg width="117" height="118" viewBox="0 0 117 118" fill="none" xmlns="http://www.w3.org/2000/svg">
<g id="handshake_78914 1" clip-path="url(#clip0_465_1356)">
<g id="Group">
<g id="Group_2">
<g id="Group_3">
<path id="Vector" d="M82.3313 38.7553C82.2015 38.4986 82.0295 38.2598 81.8108 38.0598C81.5914 37.8604 81.3457 37.714 81.0896 37.6214L67.6286 32.7421C66.6908 32.4022 65.6865 32.2199 64.641 32.2294C63.5967 32.2406 62.5969 32.443 61.6639 32.8011L51.4504 36.7306C50.7315 37.0079 50.0178 37.3266 49.314 37.6894C49.0789 37.812 48.8478 37.945 48.618 38.0752C47.8469 37.6539 47.0419 37.2828 46.2019 36.9671C43.5225 35.957 40.7789 35.6161 38.1236 35.8449L31.2521 36.4398C30.9532 36.4658 30.6514 36.5589 30.3694 36.726C30.0874 36.8936 29.8545 37.1197 29.6715 37.381L14.1994 59.5952C13.8806 60.0513 13.7104 60.6319 13.7625 61.2461C13.8134 61.8603 14.0755 62.3989 14.4626 62.7861L21.1924 69.5127C20.8234 70.1942 20.5894 70.9594 20.5354 71.7783C20.4383 73.2498 20.9175 74.6704 21.8802 75.779C22.8444 76.8871 24.1775 77.5508 25.6377 77.6469C25.7154 77.6522 25.7945 77.6522 25.8736 77.6552C25.2751 79.6064 25.7648 81.8223 27.3237 83.3104C28.2567 84.2014 29.453 84.7205 30.7243 84.8037C29.9053 86.8509 30.3481 89.2923 32.0218 90.8894C33.0426 91.8652 34.3775 92.4015 35.7845 92.4015C37.2493 92.4015 38.6158 91.8244 39.6478 90.7825C40.0315 93.2828 42.0913 95.2766 44.6964 95.4483C44.8164 95.4566 44.9391 95.4619 45.059 95.4619C45.7247 95.4619 46.3625 95.3352 46.9555 95.1121C47.9242 95.7634 49.0791 96.1222 50.3081 96.072C51.8185 96.0084 53.1734 95.3363 54.1866 94.2849L50.4854 90.5603C50.4941 90.4741 50.5098 90.3916 50.5135 90.3024C50.5615 89.5709 50.4621 88.8629 50.2461 88.2049L57.8212 95.8254C58.7771 96.2176 59.8173 96.4142 60.9007 96.37C63.0686 96.2808 64.9998 95.2483 66.3674 93.6507L67.1257 92.7638C67.1958 92.6799 67.2497 92.5857 67.2964 92.4843L55.6332 80.7539C55.3324 80.4536 55.3084 79.9539 55.5753 79.6393C55.8427 79.3266 56.3059 79.316 56.6043 79.6163L70.4752 93.5668C71.2312 93.8341 72.0401 93.9643 72.8808 93.9295C74.7867 93.8509 76.4873 92.9431 77.6895 91.5359L79.521 89.3978C79.941 88.9046 80.1915 88.239 80.168 87.5158L67.9958 75.2768C67.6986 74.9758 67.6718 74.475 67.9385 74.1629C68.2077 73.8497 68.6697 73.8391 68.9675 74.1394L81.197 86.4379C81.6988 86.573 82.226 86.6391 82.7678 86.6172C84.3304 86.5536 85.7202 85.8101 86.7042 84.6578L87.1962 84.0832C88.1806 82.9334 88.7611 81.3757 88.7019 79.6817C88.6422 77.9885 87.9578 76.484 86.8966 75.416L83.6318 72.1332L84.4567 72.9615L93.2843 64.922C93.6593 64.5821 93.9312 64.1062 94.0309 63.5468C94.1298 62.9882 94.0402 62.4364 93.8104 61.9697L82.3313 38.7553ZM25.7911 75.2664C24.9634 75.212 24.2063 74.8356 23.6581 74.2055C23.1106 73.5773 22.8402 72.7707 22.8953 71.9341C23 70.2922 24.3631 69.0064 25.9906 69.0064C26.0596 69.0064 26.1297 69.0082 26.1987 69.0124C27.0264 69.0679 27.7835 69.4436 28.3317 70.0737C28.8792 70.7034 29.1496 71.5093 29.0963 72.3459C28.9827 74.0574 27.5079 75.3821 25.7911 75.2664ZM31.0835 82.4349C30.2862 82.4349 29.528 82.1316 28.9489 81.5787C27.7197 80.407 27.6532 78.4323 28.794 77.1839C28.8532 77.1219 30.0652 75.8287 30.6468 75.2115L30.9521 74.884C31.5453 74.2528 32.3467 73.9046 33.2089 73.9046C34.0069 73.9046 34.7656 74.2097 35.3435 74.7635C35.9465 75.3381 36.2923 76.1152 36.3147 76.953C36.3375 77.7877 36.0356 78.5838 35.4657 79.1904L34.601 80.1125C34.4162 80.3084 34.2178 80.5202 34.0149 80.7361C33.9827 80.7728 33.947 80.8092 33.9159 80.8435C33.7651 81.0035 33.6317 81.145 33.5281 81.2542C33.469 81.3185 33.41 81.3828 33.3492 81.4453C33.3339 81.4612 33.3223 81.4748 33.3211 81.4766C32.7327 82.095 31.9365 82.4349 31.0835 82.4349ZM38.0199 89.0581C37.4296 89.6765 36.6357 90.0162 35.7834 90.0162C34.9854 90.0162 34.2256 89.711 33.6481 89.1577C32.4196 87.986 32.3524 86.0118 33.4895 84.7693C33.5165 84.7398 34.2283 83.98 35.035 83.1215C35.035 83.1208 35.035 83.1208 35.035 83.1208L35.6339 82.4831C36.6828 81.3632 37.0267 80.9993 37.1426 80.8723C37.1561 80.8599 37.1718 80.8451 37.183 80.8322L37.1853 80.8304C37.2865 80.72 37.3455 80.6587 37.3473 80.6568C37.9394 80.0256 38.742 79.6769 39.6048 79.6769C40.4028 79.6769 41.1599 79.9813 41.7394 80.5347C42.3425 81.1106 42.6866 81.8882 42.7092 82.7237C42.7321 83.5621 42.4302 84.3575 41.858 84.9668C41.8032 85.0261 38.1398 88.9295 38.0199 89.0581ZM48.1543 90.1473C48.0419 91.8576 46.5695 93.184 44.8502 93.0701C43.1409 92.9556 41.8409 91.4605 41.9537 89.7378C42.0607 88.0945 43.4185 86.809 45.0483 86.809C45.1173 86.809 45.1875 86.8113 45.2565 86.8154C46.9658 86.9288 48.2656 88.4239 48.1543 90.1473ZM82.8315 71.3281L58.6512 47.0142L58.9238 46.3198C59.0648 45.9575 59.0467 45.5297 58.8401 45.1699C58.6331 44.8113 58.2867 44.6023 57.924 44.5829L56.127 44.4744L54.1638 44.3571L54.0146 46.7042C54.0127 46.753 53.6238 52.0902 50.9253 56.9123C48.1589 61.8607 44.4932 63.5669 43.9345 63.6766C43.3102 63.7987 42.6557 63.9149 42.1117 63.9149C41.7378 63.9149 41.4501 63.8619 41.2038 63.748L40.2858 63.3191C39.9008 63.1391 39.6071 62.8089 39.4522 62.3876C39.3011 61.981 39.303 61.5367 39.4522 61.1315L48.649 40.7754L50.2128 39.7364L50.8428 39.4944H50.8416L62.4 35.0482C63.1266 34.7691 63.8876 34.6228 64.6604 34.6156L64.7249 34.6149C65.4749 34.6149 66.2178 34.7458 66.9291 35.0044L80.3905 39.8837L91.8712 63.0972L82.8315 71.3281Z" fill="#0088CF"/>
<path id="Vector_2" d="M95.9142 23.9292L86.8268 28.4987C85.5199 29.1576 84.4599 30.3189 83.9592 31.8269C83.459 33.3356 83.6141 34.9055 84.264 36.2266L96.1624 60.2838C96.8145 61.6012 97.9654 62.6721 99.4635 63.1748C100.958 63.6798 102.514 63.5258 103.824 62.8674L112.909 58.2955L95.9142 23.9292ZM103.8 58.3098C102.593 58.3098 101.612 57.3227 101.612 56.1038C101.612 54.8837 102.593 53.8943 103.8 53.8943C105.009 53.8943 105.991 54.8837 105.991 56.1038C105.991 57.3227 105.009 58.3098 103.8 58.3098Z" fill="#242321"/>
<path id="Vector_3" d="M28.4505 31.2327C28.1774 29.6651 27.3045 28.3576 26.1075 27.5093L17.7982 21.624L-4.09082 53.0498L4.21732 58.9362C5.41314 59.7846 6.93003 60.1711 8.48371 59.8968C10.0385 59.6237 11.3338 58.7399 12.1733 57.5345L27.4962 35.5358C28.3381 34.3302 28.7213 32.7988 28.4505 31.2327ZM7.40512 52.579C7.22436 53.7862 6.10989 54.6163 4.91361 54.4329C3.71733 54.2524 2.89467 53.1277 3.07543 51.9205C3.25573 50.7145 4.37111 49.8843 5.56511 50.0655C6.76207 50.248 7.58404 51.3736 7.40512 52.579Z" fill="#0088CF"/>
</g>
</g>
</g>
</g>
<defs>
<clipPath id="clip0_465_1356">
<rect width="117" height="118" fill="white"/>
</clipPath>
</defs>
</svg>
