<svg width="263" height="175" viewBox="0 0 263 175" fill="none" xmlns="http://www.w3.org/2000/svg">
<path d="M191.402 40.3197C191.1 39.7214 190.7 39.1649 190.192 38.6987C189.682 38.2341 189.111 37.8931 188.515 37.6771L157.222 26.306C155.041 25.5137 152.706 25.0889 150.276 25.1109C147.848 25.1372 145.524 25.6088 143.355 26.4435L119.611 35.6012C117.939 36.2473 116.28 36.9902 114.644 37.8356C114.097 38.1213 113.56 38.4312 113.026 38.7347C111.233 37.7529 109.362 36.8881 107.409 36.1523C101.18 33.7981 94.8018 33.0037 88.6287 33.5371L72.654 34.9234C71.9591 34.9841 71.2573 35.2011 70.6018 35.5905C69.9462 35.9809 69.4049 36.5078 68.9793 37.1169L33.01 88.8873C32.2689 89.9502 31.8731 91.3032 31.9942 92.7346C32.1127 94.166 32.722 95.4212 33.622 96.3236L49.2673 112C48.4093 113.588 47.8653 115.372 47.7399 117.28C47.5142 120.709 48.6282 124.02 50.8664 126.604C53.1077 129.186 56.207 130.733 59.6017 130.957C59.7823 130.969 59.9661 130.969 60.15 130.976C58.7586 135.523 59.8971 140.688 63.5213 144.156C65.6904 146.232 68.4714 147.442 71.4268 147.636C69.5228 152.407 70.5524 158.097 74.4432 161.819C76.8163 164.093 79.9199 165.343 83.1908 165.343C86.5961 165.343 89.773 163.998 92.1721 161.569C93.0641 167.397 97.8528 172.043 103.909 172.443C104.188 172.463 104.473 172.475 104.752 172.475C106.3 172.475 107.782 172.18 109.161 171.66C111.413 173.178 114.098 174.014 116.955 173.897C120.466 173.748 123.616 172.182 125.972 169.732L117.367 161.052C117.387 160.851 117.424 160.659 117.433 160.451C117.544 158.746 117.313 157.096 116.811 155.562L134.421 173.322C136.644 174.236 139.062 174.694 141.58 174.591C146.62 174.383 151.11 171.977 154.29 168.254L156.052 166.187C156.215 165.992 156.341 165.772 156.449 165.536L129.335 138.198C128.636 137.498 128.58 136.333 129.2 135.6C129.822 134.871 130.899 134.847 131.592 135.547L163.839 168.058C165.597 168.681 167.477 168.985 169.432 168.904C173.862 168.721 177.816 166.605 180.611 163.325L184.869 158.343C185.845 157.193 186.428 155.642 186.373 153.957L158.075 125.433C157.384 124.732 157.322 123.565 157.942 122.837C158.568 122.108 159.642 122.083 160.334 122.783L188.765 151.444C189.932 151.759 191.157 151.913 192.417 151.862C196.05 151.714 199.281 149.981 201.568 147.296L202.712 145.957C205.001 143.277 206.35 139.647 206.212 135.699C206.074 131.753 204.483 128.247 202.015 125.758L194.426 118.107L196.343 120.038L216.866 101.302C217.737 100.509 218.369 99.4001 218.601 98.0966C218.831 96.7946 218.623 95.5088 218.088 94.4211L191.402 40.3197ZM59.9582 125.409C58.034 125.282 56.2739 124.405 54.9995 122.937C53.7266 121.473 53.0981 119.593 53.2262 117.643C53.4695 113.817 56.6384 110.82 60.4219 110.82C60.5824 110.82 60.7455 110.824 60.9059 110.834C62.8301 110.964 64.5901 111.839 65.8646 113.308C67.1375 114.775 67.766 116.653 67.6422 118.603C67.3781 122.591 63.9494 125.679 59.9582 125.409ZM72.2619 142.115C70.4084 142.115 68.6457 141.409 67.2995 140.12C64.4419 137.389 64.2873 132.787 66.9393 129.878C67.0769 129.733 69.8947 126.72 71.2467 125.281L71.9565 124.518C73.3356 123.047 75.1987 122.235 77.2031 122.235C79.0582 122.235 80.822 122.946 82.1655 124.237C83.5675 125.576 84.3712 127.387 84.4233 129.34C84.4764 131.285 83.7746 133.14 82.4497 134.554L80.4394 136.703C80.0097 137.159 79.5485 137.653 79.0768 138.156C79.0019 138.242 78.919 138.327 78.8468 138.407C78.4961 138.779 78.1859 139.109 77.9452 139.364C77.8076 139.514 77.6706 139.663 77.5293 139.809C77.4937 139.846 77.4666 139.878 77.4639 139.882C76.0959 141.323 74.2451 142.115 72.2619 142.115ZM88.3875 157.551C87.0153 158.992 85.1697 159.784 83.1881 159.784C81.333 159.784 79.5666 159.072 78.2241 157.783C75.3681 155.052 75.2119 150.451 77.8554 147.556C77.9181 147.487 79.573 145.716 81.4483 143.715C81.4483 143.714 81.4483 143.714 81.4483 143.714L82.8407 142.228C85.2791 139.618 86.0787 138.77 86.348 138.474C86.3794 138.445 86.416 138.41 86.442 138.38L86.4474 138.376C86.6827 138.119 86.8198 137.976 86.824 137.972C88.2005 136.5 90.0662 135.688 92.0722 135.688C93.9274 135.688 95.6874 136.397 97.0346 137.687C98.4366 139.029 99.2367 140.841 99.2893 142.788C99.3424 144.742 98.6406 146.596 97.3104 148.016C97.1829 148.154 88.6664 157.251 88.3875 157.551ZM111.948 160.089C111.687 164.075 108.264 167.166 104.267 166.901C100.293 166.634 97.2705 163.15 97.533 159.135C97.7816 155.305 100.938 152.309 104.727 152.309C104.888 152.309 105.051 152.315 105.211 152.324C109.185 152.588 112.207 156.073 111.948 160.089ZM192.565 116.231L136.351 59.567L136.985 57.9487C137.312 57.1044 137.27 56.1075 136.79 55.2691C136.309 54.4333 135.504 53.9462 134.66 53.9011L130.483 53.6481L125.919 53.3747L125.572 58.8446C125.568 58.9585 124.663 71.3969 118.39 82.6348C111.959 94.1671 103.437 98.1433 102.138 98.399C100.686 98.6836 99.165 98.9543 97.9 98.9543C97.0309 98.9543 96.3621 98.8308 95.7894 98.5655L93.6554 97.5659C92.7602 97.1464 92.0775 96.3768 91.7174 95.3949C91.3662 94.4475 91.3705 93.4119 91.7174 92.4677L113.098 45.0275L116.733 42.6062L118.198 42.0422H118.195L145.066 31.6803C146.755 31.0299 148.524 30.6888 150.321 30.6722L150.471 30.6705C152.215 30.6705 153.942 30.9756 155.595 31.5783L186.89 42.9494L213.58 97.0487L192.565 116.231Z" fill="white" fill-opacity="0.2"/>
<path d="M222.98 5.76746L201.854 16.4167C198.816 17.9523 196.351 20.6588 195.187 24.1731C194.024 27.689 194.385 31.3478 195.896 34.4265L223.557 90.4922C225.073 93.5623 227.748 96.0582 231.231 97.2297C234.705 98.4065 238.324 98.0477 241.368 96.5132L262.49 85.8585L222.98 5.76746ZM241.313 85.8918C238.507 85.8918 236.225 83.5914 236.225 80.7506C236.225 77.9072 238.507 75.6014 241.313 75.6014C244.124 75.6014 246.406 77.9072 246.406 80.7506C246.406 83.5914 244.124 85.8918 241.313 85.8918Z" fill="white" fill-opacity="0.2"/>
<path d="M66.1408 22.7885C65.506 19.1351 63.4766 16.088 60.6939 14.1109L41.3766 0.395325L-9.51074 73.6334L9.80391 87.3517C12.5839 89.3288 16.1104 90.2296 19.7223 89.5904C23.337 88.9539 26.3481 86.8941 28.2999 84.085L63.9223 32.8169C65.8795 30.0072 66.7704 26.4381 66.1408 22.7885ZM17.2148 72.5361C16.7946 75.3495 14.2037 77.2841 11.4226 76.8566C8.64154 76.436 6.72904 73.8149 7.14926 71.0016C7.56841 68.1909 10.1614 66.2562 12.9372 66.6784C15.7199 67.1038 17.6308 69.727 17.2148 72.5361Z" fill="white" fill-opacity="0.2"/>
</svg>
