<svg width="31" height="31" viewBox="0 0 31 31" fill="none" xmlns="http://www.w3.org/2000/svg">
<g id="file_document_icon_143599 1">
<path id="Vector" d="M27.1257 10.3333H21.959C19.8148 10.3333 18.084 8.6025 18.084 6.45833V1.29167C18.084 0.568333 17.5157 0 16.7923 0H5.16732C3.74648 0 2.58398 1.1625 2.58398 2.58333V28.4167C2.58398 29.8375 3.74648 31 5.16732 31H25.834C27.2548 31 28.4173 29.8375 28.4173 28.4167V11.625C28.4173 10.9017 27.849 10.3333 27.1257 10.3333ZM21.959 25.8333H9.04232C8.31898 25.8333 7.75065 25.265 7.75065 24.5417C7.75065 23.8183 8.31898 23.25 9.04232 23.25H21.959C22.6823 23.25 23.2507 23.8183 23.2507 24.5417C23.2507 25.265 22.6823 25.8333 21.959 25.8333ZM21.959 20.6667H9.04232C8.31898 20.6667 7.75065 20.0983 7.75065 19.375C7.75065 18.6517 8.31898 18.0833 9.04232 18.0833H21.959C22.6823 18.0833 23.2507 18.6517 23.2507 19.375C23.2507 20.0983 22.6823 20.6667 21.959 20.6667ZM21.959 15.5H9.04232C8.31898 15.5 7.75065 14.9317 7.75065 14.2083C7.75065 13.485 8.31898 12.9167 9.04232 12.9167H21.959C22.6823 12.9167 23.2507 13.485 23.2507 14.2083C23.2507 14.9317 22.6823 15.5 21.959 15.5ZM20.6673 1.29167V5.16667C20.6673 6.5875 21.8298 7.75 23.2507 7.75H27.1257C28.2882 7.75 28.8565 6.355 28.0298 5.55417L22.8632 0.3875C22.0623 -0.439167 20.6673 0.155 20.6673 1.29167Z" fill="#0088CF"/>
</g>
</svg>
