<?xml version="1.0" standalone="no"?>
<!DOCTYPE svg PUBLIC "-//W3C//DTD SVG 20010904//EN"
 "http://www.w3.org/TR/2001/REC-SVG-20010904/DTD/svg10.dtd">
<svg version="1.0" xmlns="http://www.w3.org/2000/svg"
 width="137.000000pt" height="110.000000pt" viewBox="0 0 137.000000 110.000000"
 preserveAspectRatio="xMidYMid meet">

<g transform="translate(0.000000,110.000000) scale(0.100000,-0.100000)"
fill="#000000" stroke="none">
<path d="M0 550 l0 -550 685 0 685 0 0 550 0 550 -685 0 -685 0 0 -550z m191
104 l26 -54 -27 0 c-14 0 -35 7 -46 15 -28 21 -37 18 -31 -12 7 -37 -34 -108
-75 -129 l-31 -16 7 32 c12 61 59 150 97 185 22 19 42 35 47 34 4 0 19 -25 33
-55z m1051 34 c17 -11 43 -42 59 -67 32 -49 66 -147 56 -157 -11 -11 -67 37
-86 75 -12 22 -17 47 -14 64 6 30 -7 36 -27 12 -7 -8 -27 -15 -45 -15 l-32 0
26 54 c14 30 28 55 29 55 2 1 18 -9 34 -21z m-967 -18 c0 -19 -4 -24 -20 -22
-26 5 -56 32 -49 44 3 5 20 8 37 6 27 -2 32 -7 32 -28z m883 22 c10 -7 8 -12
-5 -24 -29 -24 -53 -29 -59 -13 -14 36 27 60 64 37z m-888 -96 c0 -31 -35 -56
-75 -55 l-30 1 32 11 c46 17 59 32 43 52 -10 13 -9 15 9 15 16 0 21 -6 21 -24z
m855 5 c-6 -21 11 -39 52 -51 l28 -8 -33 -1 c-49 -1 -72 15 -72 49 0 21 5 30
16 30 10 0 13 -6 9 -19z m-875 -116 c-18 -21 -72 -20 -68 1 4 22 72 45 76 26
2 -7 -2 -19 -8 -27z m940 -2 c0 -17 -52 -17 -68 -1 -7 7 -12 20 -12 29 0 17 2
17 40 1 22 -9 40 -23 40 -29z m-1041 -35 c1 -37 0 -38 -35 -38 -20 0 -52 8
-72 17 l-35 17 40 13 c22 8 51 25 64 39 21 23 24 23 30 7 4 -10 8 -35 8 -55z
m1177 7 l38 -13 -32 -16 c-17 -9 -49 -16 -72 -16 -44 0 -48 9 -34 79 l7 32 27
-26 c15 -15 45 -32 66 -40z m-1096 -30 c-15 -18 -53 -20 -48 -3 4 12 48 28 57
22 2 -2 -2 -10 -9 -19z m966 -6 c8 -14 -40 -11 -54 3 -7 7 -12 15 -12 19 0 10
58 -10 66 -22z"/>
</g>
</svg>
