<svg width="69" height="72" viewBox="0 0 69 72" fill="none" xmlns="http://www.w3.org/2000/svg">
<g id="#">
<path id="Vector" d="M35.0149 3.95825C22.2641 3.95825 11.8906 14.4373 11.8906 27.3178C11.8906 43.3029 32.5846 66.7699 33.4657 67.761C34.2933 68.6921 35.7381 68.6905 36.5642 67.761C37.4453 66.7699 58.1393 43.3029 58.1393 27.3178C58.139 14.4373 47.7656 3.95825 35.0149 3.95825ZM35.0149 39.0706C28.5997 39.0706 23.3806 33.7983 23.3806 27.3178C23.3806 20.8372 28.5998 15.5651 35.0149 15.5651C41.4301 15.5651 46.6491 20.8374 46.6491 27.3179C46.6491 33.7985 41.4301 39.0706 35.0149 39.0706Z" fill="#0088CF"/>
<ellipse id="Ellipse 33" cx="35" cy="26.4546" rx="12" ry="12.3209" fill="white"/>
</g>
</svg>
