<svg width="21" height="29" viewBox="0 0 21 29" fill="none" xmlns="http://www.w3.org/2000/svg">
<path id="Vector" d="M10.5 0C4.71027 0 0 4.71149 0 10.5027C0 17.6897 9.39647 28.2407 9.79653 28.6863C10.1723 29.1049 10.8284 29.1042 11.2035 28.6863C11.6035 28.2407 21 17.6897 21 10.5027C20.9999 4.71149 16.2897 0 10.5 0ZM10.5 15.7868C7.58704 15.7868 5.21724 13.4164 5.21724 10.5027C5.21724 7.58895 7.5871 5.21853 10.5 5.21853C13.4129 5.21853 15.7827 7.589 15.7827 10.5027C15.7827 13.4164 13.4129 15.7868 10.5 15.7868Z" fill="white"/>
</svg>
