<svg width="28" height="28" viewBox="0 0 28 28" fill="none" xmlns="http://www.w3.org/2000/svg">
<g id="map_pin_icon_173721 1">
<path id="Vector" d="M13.9995 1.74969C11.4477 1.75272 9.00133 2.76775 7.19695 4.57214C5.39257 6.37652 4.37754 8.82292 4.37451 11.3747C4.37451 19.6103 13.1245 25.831 13.4971 26.0916C13.6444 26.1945 13.8198 26.2497 13.9995 26.2497C14.1792 26.2497 14.3546 26.1945 14.502 26.0916C14.8745 25.831 23.6245 19.6103 23.6245 11.3747C23.6215 8.82292 22.6065 6.37652 20.8021 4.57214C18.9977 2.76775 16.5513 1.75272 13.9995 1.74969ZM14.0002 7.87501C14.6924 7.87501 15.3691 8.08028 15.9446 8.46487C16.5202 8.84945 16.9688 9.39608 17.2337 10.0356C17.4986 10.6752 17.5679 11.3789 17.4329 12.0578C17.2979 12.7368 16.9645 13.3604 16.475 13.8499C15.9855 14.3394 15.3619 14.6727 14.683 14.8078C14.004 14.9428 13.3003 14.8735 12.6608 14.6086C12.0212 14.3437 11.4746 13.8951 11.09 13.3195C10.7054 12.7439 10.5002 12.0672 10.5002 11.375C10.5001 10.9154 10.5907 10.4602 10.7665 10.0356C10.9424 9.61096 11.2002 9.22512 11.5252 8.90011C11.8503 8.5751 12.2361 8.31729 12.6607 8.14141C13.0854 7.96552 13.5405 7.875 14.0002 7.87501Z" fill="#0088CF"/>
</g>
</svg>
