<svg width="51" height="43" viewBox="0 0 51 43" fill="none" xmlns="http://www.w3.org/2000/svg">
<path d="M25.5 0.383179C11.8389 0.383179 0.762695 8.62633 0.762695 18.7949C0.762695 24.9059 4.7632 30.32 10.9214 33.6688C10.9037 33.722 6.01532 42.6168 6.01532 42.6168C6.01532 42.6168 20.9444 36.9232 20.9857 36.8996C22.4504 37.1023 23.9605 37.2047 25.502 37.2047C39.1632 37.2047 50.2393 28.9615 50.2393 18.7949C50.2374 8.62633 39.1612 0.383179 25.5 0.383179ZM13.6245 20.7617C12.5378 20.7617 11.6558 19.8797 11.6558 18.793C11.6558 17.7042 12.5378 16.8242 13.6245 16.8242C14.7113 16.8242 15.5933 17.7042 15.5933 18.793C15.5933 19.8797 14.7133 20.7617 13.6245 20.7617ZM21.4582 20.8444C20.3714 20.8444 19.4894 19.9624 19.4894 18.8756C19.4894 17.7869 20.3714 16.9069 21.4582 16.9069C22.5469 16.9069 23.4269 17.7869 23.4269 18.8756C23.4269 19.9624 22.5469 20.8444 21.4582 20.8444ZM29.4139 20.8444C28.3272 20.8444 27.4452 19.9624 27.4452 18.8756C27.4452 17.7869 28.3272 16.9069 29.4139 16.9069C30.5026 16.9069 31.3827 17.7869 31.3827 18.8756C31.3827 19.9624 30.5026 20.8444 29.4139 20.8444ZM37.2889 20.8444C36.2022 20.8444 35.3202 19.9624 35.3202 18.8756C35.3202 17.7869 36.2022 16.9069 37.2889 16.9069C38.3776 16.9069 39.2577 17.7869 39.2577 18.8756C39.2577 19.9624 38.3776 20.8444 37.2889 20.8444Z" fill="white"/>
</svg>
