<svg width="28" height="28" viewBox="0 0 28 28" fill="none" xmlns="http://www.w3.org/2000/svg">
<g id="iconfinder-contat-us-1call-4211833_115049 4">
<g id="_x31_-Call">
<g id="Group">
<path id="Vector" d="M22.4253 19.0608L19.591 17.0803C19.2204 16.8223 18.7871 16.6858 18.3379 16.6858C17.6233 16.6858 16.9527 17.0361 16.5443 17.6223L15.8863 18.5652C14.7836 17.8257 13.5529 16.793 12.3804 15.6204C11.2076 14.4476 10.1749 13.2172 9.43578 12.1144L10.3781 11.4567C11.3674 10.7678 11.6107 9.401 10.92 8.40936L8.93996 5.57544C8.52575 4.98306 7.85754 4.62952 7.15258 4.62952C6.90841 4.62952 6.66872 4.67245 6.44036 4.75684C6.18145 4.85275 5.94027 4.97003 5.70357 5.1185L5.31222 5.39407C5.21438 5.47034 5.12337 5.55344 5.03622 5.64059C4.55877 6.11804 4.21975 6.72217 4.02877 7.43652C3.21294 10.495 5.23403 15.119 9.05788 18.9429C12.2691 22.1541 16.1269 24.1491 19.1257 24.1493C19.1259 24.1493 19.1261 24.1493 19.1264 24.1493C19.6395 24.1493 20.1231 24.0895 20.5645 23.972C21.2788 23.781 21.883 23.442 22.3598 22.965C22.4471 22.8781 22.5304 22.7868 22.6193 22.6717L22.8953 22.2778C23.0305 22.0612 23.1478 21.8198 23.2439 21.5604C23.5776 20.6589 23.2412 19.631 22.4253 19.0608Z" fill="white"/>
</g>
</g>
</g>
</svg>
