<svg width="143" height="143" viewBox="0 0 143 143" fill="none" xmlns="http://www.w3.org/2000/svg">
<g id="qrcodehd_106111 1">
<g id="Layer_x0020_1">
<path id="Vector" fill-rule="evenodd" clip-rule="evenodd" d="M16.3017 16.302H32.0317V32.032H16.3017V16.302ZM5.71973 100.386H42.6137V137.28H5.71973V100.386ZM10.8677 105.82H37.1797V132.132H10.8677V105.82ZM16.3017 110.968H32.0317V126.698H16.3017V110.968ZM100.386 5.71997H137.28V42.614H100.386V5.71997ZM105.82 10.868H132.132V37.18H105.82V10.868ZM110.968 16.302H126.698V32.032H110.968V16.302ZM58.3437 74.074H63.4917V68.926H58.3437V74.074ZM100.386 68.926H105.82V63.492H100.386V68.926ZM116.116 47.762H121.55V53.196H116.116V47.762ZM116.116 79.508V74.074H110.968V79.508H116.116ZM74.0737 95.238H84.6557V89.804V84.656H79.5077H74.0737H68.9257V89.804V95.238H74.0737ZM58.3437 89.804H63.4917V95.238H58.3437V89.804ZM47.7617 95.238H53.1957V105.82H47.7617V95.238H37.1797V89.804H42.6137V84.656H37.1797V79.508H42.6137H47.7617H58.3437V74.074H53.1957V53.196H47.7617V68.926H42.6137V63.492H37.1797V58.344H42.6137V53.196H37.1797V47.762C46.0457 47.762 54.9117 47.762 63.4917 47.762V53.196H58.3437V63.492H63.4917V58.344H68.9257H79.5077V63.492H68.9257V74.074H63.4917V79.508V84.656H47.7617V89.804V95.238ZM53.1957 132.132H58.3437V126.698H53.1957V132.132ZM105.82 89.804H95.2377H89.8037H84.6557H74.0737V84.656V79.508H68.9257V74.074H74.0737V68.926H79.5077V79.508H89.8037V74.074H84.6557V68.926H79.5077V63.492H84.6557V58.344H79.5077V53.196H68.9257V37.18H74.0737V32.032H68.9257V26.884H63.4917V42.614H58.3437V26.884C54.9117 26.884 51.1937 26.884 47.7617 26.884V21.45H53.1957V16.302H47.7617V10.868H53.1957V5.71997H58.3437V16.302H63.4917V10.868H74.0737V5.71997H79.5077V10.868H89.8037V5.71997H95.2377V16.302H84.6557V21.45H89.8037V26.884H95.2377V42.614H89.8037V47.762H84.6557V58.344H89.8037H95.2377V68.926H100.386V74.074H105.82V89.804ZM116.116 89.804H110.968V84.656H116.116V89.804ZM100.386 100.386H105.82V105.82H100.386V100.386ZM110.968 121.55V126.698H121.55V132.132H132.132V121.55H126.698V126.698H121.55V116.116H116.116V121.55H110.968ZM79.5077 121.55H84.6557V116.116H79.5077V121.55ZM95.2377 132.132H84.6557V137.28H53.1957H47.7617V132.132V110.968H53.1957V121.55H63.4917V126.698V132.132H79.5077V126.698H74.0737V121.55H68.9257V116.116H58.3437V110.968H63.4917V105.82H58.3437V100.386H79.5077V105.82H84.6557V110.968H79.5077V105.82H68.9257V110.968H89.8037V100.386H84.6557V95.238H89.8037V89.804V84.656H100.386V79.508H95.2377V68.926H89.8037V58.344V53.196H95.2377V47.762H100.386V58.344H105.82V47.762H110.968V58.344H121.55V63.492H110.968V68.926H116.116V74.074H121.55H126.698V84.656H132.132V89.804H137.28V79.508H132.132V74.074H137.28V58.344H132.132V47.762H126.698V63.492H132.132V68.926H121.55V74.074V89.804V95.238H116.116V89.804H121.55H126.698V100.386H132.132H137.28V105.82V110.968H132.132V105.82H121.55V110.968H126.698V116.116H132.132H137.28V121.55V132.132V137.28H132.132H110.968H105.82V132.132H100.386V137.28H95.2377V132.132ZM95.2377 110.968H111.54V95.238H95.2377V110.968ZM89.8037 126.698V121.55H84.6557V126.698H89.8037ZM100.386 121.55V126.698H95.2377V132.132H100.386V126.698H105.82V121.55H100.386ZM47.7617 84.656V79.508V74.074H42.6137H32.0317V84.656H16.3017V79.508H10.8677V95.238H5.71973V74.074H16.3017V68.926H10.8677V63.492H5.71973V58.344H10.8677V53.196H5.71973V47.762H32.0317V53.196H16.3017V58.344H21.4497V63.492H26.8837V58.344H32.0317V68.926H26.8837V74.074H32.0317V68.926H42.6137V74.074V79.508V84.656H47.7617ZM16.3017 89.804H21.4497V95.238H16.3017V89.804ZM47.7617 32.032H53.1957V42.614H47.7617V32.032ZM58.3437 26.884H63.4917V21.45H58.3437V26.884ZM68.9257 26.884H74.0737V21.45H79.5077V16.302H68.9257V26.884ZM84.6557 47.762V42.614H79.5077V37.18H74.0737V47.762H84.6557ZM89.8037 42.614V37.18H84.6557V42.614H89.8037ZM89.8037 26.884H79.5077V32.032H89.8037V26.884ZM5.71973 5.71997H42.6137V42.614H5.71973V5.71997ZM10.8677 10.868H37.1797V37.18H10.8677V10.868Z" fill="#202020"/>
</g>
</g>
</svg>
