<svg width="85" height="85" viewBox="0 0 85 85" fill="none" xmlns="http://www.w3.org/2000/svg">
<g id="double_quotes_right_end_icon_207080 1" clip-path="url(#clip0_370_122)">
<g id="Group">
<path id="Vector" d="M68.769 23.6546C72.4169 27.5292 74.3755 31.8748 74.3755 38.9192C74.3755 51.315 65.6736 62.4253 53.0192 67.9184L49.8565 63.038C61.668 56.6488 63.9771 48.3578 64.8979 43.1303C62.9961 44.1148 60.5063 44.4584 58.0661 44.2317C51.6769 43.6403 46.6407 38.395 46.6407 31.8748C46.6407 28.5873 47.9466 25.4343 50.2713 23.1097C52.596 20.785 55.7489 19.479 59.0365 19.479C62.8367 19.479 66.4705 21.2144 68.769 23.6546ZM33.3523 23.6546C37.0002 27.5292 38.9588 31.8748 38.9588 38.9192C38.9588 51.315 30.2569 62.4253 17.6025 67.9184L14.4398 63.038C26.2513 56.6488 28.5605 48.3578 29.4813 43.1303C27.5794 44.1148 25.0896 44.4584 22.6494 44.2317C16.2602 43.6403 11.2275 38.395 11.2275 31.8748C11.2275 28.5873 12.5335 25.4343 14.8582 23.1097C17.1829 20.785 20.3358 19.479 23.6234 19.479C27.4236 19.479 31.0573 21.2144 33.3559 23.6546H33.3523Z" fill="#0088CF" fill-opacity="0.08"/>
</g>
</g>
<defs>
<clipPath id="clip0_370_122">
<rect width="85" height="85" fill="white"/>
</clipPath>
</defs>
</svg>
