<svg width="16" height="16" viewBox="0 0 16 16" fill="none" xmlns="http://www.w3.org/2000/svg">
<g id="star" clip-path="url(#clip0_370_295)">
<path id="Star" fill-rule="evenodd" clip-rule="evenodd" d="M8.85902 1.2235C8.69787 0.882502 8.36537 0.666626 8.0013 0.666626C7.63723 0.666626 7.30473 0.882502 7.14359 1.2235L5.3955 4.92255L1.48618 5.51939C1.12599 5.57438 0.826905 5.83815 0.714631 6.19983C0.602357 6.56151 0.696356 6.9584 0.957121 7.22369L3.78511 10.1007L3.1177 14.1653C3.05614 14.5402 3.20368 14.919 3.49827 15.1425C3.79286 15.366 4.18339 15.3955 4.50566 15.2185L8.0013 13.2983L11.4969 15.2185C11.8192 15.3955 12.2097 15.366 12.5043 15.1425C12.7989 14.919 12.9465 14.5402 12.8849 14.1653L12.2175 10.1007L15.0455 7.22369C15.3062 6.9584 15.4002 6.56151 15.288 6.19983C15.1757 5.83815 14.8766 5.57438 14.5164 5.51939L10.6071 4.92255L8.85902 1.2235Z" fill="#FDD442"/>
</g>
<defs>
<clipPath id="clip0_370_295">
<rect width="16" height="16" fill="white"/>
</clipPath>
</defs>
</svg>
