<svg width="16" height="16" viewBox="0 0 16 16" fill="none" xmlns="http://www.w3.org/2000/svg">
<g id="star" clip-path="url(#clip0_370_422)">
<path id="Star" fill-rule="evenodd" clip-rule="evenodd" d="M7.14358 1.22362C7.30473 0.882624 7.63723 0.666748 8.0013 0.666748C8.36537 0.666748 8.69787 0.882624 8.85902 1.22362L10.6071 4.92268L14.5164 5.51952C14.8766 5.57451 15.1757 5.83827 15.288 6.19995C15.4002 6.56163 15.3062 6.95852 15.0455 7.22381L12.2175 10.1009L12.8849 14.1654C12.9465 14.5403 12.7989 14.9191 12.5043 15.1426C12.2097 15.3662 11.8192 15.3956 11.4969 15.2186L8.0013 13.2984L4.50566 15.2186C4.18339 15.3956 3.79286 15.3662 3.49827 15.1426C3.20368 14.9191 3.05614 14.5403 3.11769 14.1654L3.78511 10.1009L0.957121 7.22381C0.696356 6.95852 0.602357 6.56163 0.714631 6.19995C0.826904 5.83827 1.12599 5.57451 1.48618 5.51952L5.3955 4.92268L7.14358 1.22362Z" fill="#FDD442" fill-opacity="0.2"/>
</g>
<defs>
<clipPath id="clip0_370_422">
<rect width="16" height="16" fill="white"/>
</clipPath>
</defs>
</svg>
