<svg width="135" height="135" viewBox="0 0 135 135" fill="none" xmlns="http://www.w3.org/2000/svg">
<g id="magnifier-1_icon-icons.com_56924 1" clip-path="url(#clip0_394_527)">
<g id="Group">
<g id="Group_2">
<path id="Vector" d="M131.291 113.397L100.32 82.4232C95.7049 89.6001 89.5978 95.7042 82.4209 100.319L113.394 131.293C118.339 136.236 126.356 136.236 131.29 131.293C136.235 126.357 136.235 118.34 131.291 113.397Z" fill="white" fill-opacity="0.24"/>
<path id="Vector_2" d="M101.25 50.625C101.25 22.6681 78.5825 0 50.625 0C22.6681 0 0 22.6681 0 50.625C0 78.582 22.6681 101.249 50.625 101.249C78.5825 101.249 101.25 78.582 101.25 50.625ZM50.625 88.5923C29.6878 88.5923 12.6566 71.5625 12.6566 50.6253C12.6566 29.6881 29.6878 12.6569 50.625 12.6569C71.5617 12.6569 88.5943 29.6881 88.5943 50.6253C88.5943 71.5625 71.5617 88.5923 50.625 88.5923Z" fill="white" fill-opacity="0.24"/>
<path id="Vector_3" d="M21.0938 50.625H29.5302C29.5302 38.9942 38.9938 29.5314 50.6243 29.5314V21.0941C34.3433 21.0941 21.0938 34.3436 21.0938 50.625Z" fill="white" fill-opacity="0.24"/>
</g>
</g>
</g>
<defs>
<clipPath id="clip0_394_527">
<rect width="135" height="135" fill="white"/>
</clipPath>
</defs>
</svg>
