<svg width="31" height="31" viewBox="0 0 31 31" fill="none" xmlns="http://www.w3.org/2000/svg">
<g id="coins-stacks-money_icon-icons.com_56191 1" clip-path="url(#clip0_202_329)">
<g id="Group">
<path id="Vector" d="M24.2036 21.1857C24.4251 21.5606 24.5367 21.9977 24.5367 22.4987C24.5367 23.2673 24.3077 23.9067 23.85 24.4195C23.3916 24.9324 22.7318 25.235 21.8668 25.3257V26.6407H20.7656V25.3314C19.326 25.1835 18.4348 24.3453 18.0904 22.8204L19.7929 22.3761C19.9501 23.3354 20.4725 23.8157 21.3596 23.8157C21.774 23.8157 22.0805 23.7137 22.2755 23.5071C22.4706 23.3013 22.569 23.055 22.569 22.7637C22.569 22.4625 22.4706 22.2339 22.2755 22.0806C22.0805 21.9255 21.6455 21.7291 20.9719 21.4906C20.3666 21.2806 19.8934 21.0739 19.5526 20.8662C19.2123 20.6617 18.936 20.3759 18.7242 20.0069C18.5101 19.6362 18.4043 19.2047 18.4043 18.7145C18.4043 18.0711 18.5954 17.4905 18.9738 16.9755C19.3542 16.4612 19.95 16.1471 20.7656 16.0318V15.0158H21.8667V16.0318C23.0967 16.1795 23.8952 16.8757 24.2587 18.1205L22.7389 18.7428C22.4439 17.8897 21.9877 17.4621 21.3672 17.4621C21.0568 17.4621 20.8072 17.5566 20.6197 17.7478C20.4307 17.9389 20.3362 18.1698 20.3362 18.4423C20.3362 18.7186 20.4268 18.9304 20.6084 19.0798C20.7904 19.2274 21.1779 19.4111 21.774 19.6284C22.427 19.8669 22.9417 20.0939 23.3123 20.3059C23.6851 20.5181 23.9802 20.813 24.2036 21.1857ZM31 20.828C31 26.1791 26.6635 30.5158 21.3127 30.5158C15.9616 30.5158 11.6251 26.1791 11.6251 20.828C11.6251 15.4773 15.9616 11.1405 21.3127 11.1405C26.6635 11.1405 31 15.4773 31 20.828ZM29.0627 20.828C29.0627 16.5539 25.5869 13.0781 21.3127 13.0781C17.0387 13.0781 13.5626 16.5539 13.5626 20.828C13.5626 25.1023 17.0386 28.5782 21.3127 28.5782C25.5868 28.5782 29.0627 25.1023 29.0627 20.828ZM15.5 3.39059H27.1251C27.6606 3.39059 28.0936 3.06501 28.0936 2.66391V1.21074C28.0936 0.809702 27.6606 0.484375 27.1251 0.484375H15.5C14.9645 0.484375 14.5312 0.809702 14.5312 1.21074V2.66391C14.5313 3.06501 14.9645 3.39059 15.5 3.39059ZM15.5 7.26557H27.1251C27.6606 7.26557 28.0936 6.94012 28.0936 6.53902V5.08591C28.0936 4.68474 27.6606 4.35923 27.1251 4.35923H15.5C14.9645 4.35923 14.5312 4.68468 14.5312 5.08591V6.53908C14.5313 6.94012 14.9645 7.26557 15.5 7.26557ZM0.968632 26.6407H12.3931C11.8142 25.7551 11.3658 24.7767 11.0688 23.7343H0.968632C0.433236 23.7342 0 24.0596 0 24.4612V25.9139C0 26.315 0.433236 26.6407 0.968632 26.6407ZM12.5937 27.6094H0.968632C0.433236 27.6094 0 27.9347 0 28.3358V29.7891C0 30.1901 0.433236 30.5158 0.968632 30.5158H12.5937C13.1292 30.5158 13.5626 30.1901 13.5626 29.7891V28.3358C13.5626 27.9347 13.1293 27.6094 12.5937 27.6094ZM0.968632 22.7658H10.8418C10.7245 22.1357 10.6565 21.4905 10.6565 20.828C10.6565 20.5008 10.6753 20.1791 10.7056 19.8595H0.968632C0.433236 19.8595 0 20.1848 0 20.5861V22.0388C0 22.4405 0.433236 22.7658 0.968632 22.7658ZM15.5 11.1405H16.9C18.2454 10.5238 19.7362 10.1718 21.3127 10.1718C22.8864 10.1718 24.3797 10.5238 25.7249 11.1405H27.1251C27.6606 11.1405 28.0936 10.8151 28.0936 10.4141V8.96089C28.0936 8.55985 27.6606 8.2342 27.1251 8.2342H15.5C14.9645 8.2342 14.5312 8.55985 14.5312 8.96089V10.4141C14.5313 10.8151 14.9645 11.1405 15.5 11.1405ZM0.968632 11.1405H12.5937C13.1292 11.1405 13.5626 10.8151 13.5626 10.4141V8.96089C13.5626 8.55985 13.1292 8.2342 12.5937 8.2342H0.968632C0.433236 8.2342 0 8.55985 0 8.96089V10.4141C0 10.8151 0.433236 11.1405 0.968632 11.1405ZM0.968632 18.8907H10.8418C11.0309 17.8614 11.3697 16.8869 11.8334 15.9844H0.968632C0.433236 15.9844 0 16.3096 0 16.7107V18.1643C0 18.5654 0.433236 18.8907 0.968632 18.8907ZM0.968632 15.0157H12.3931C12.7376 14.4859 13.1311 13.9939 13.5626 13.536V12.8359C13.5626 12.4348 13.1294 12.1095 12.594 12.1095H0.968632C0.433236 12.1095 0 12.4348 0 12.8359V14.289C0 14.6901 0.433236 15.0157 0.968632 15.0157Z" fill="#0088CF"/>
</g>
</g>
<defs>
<clipPath id="clip0_202_329">
<rect width="31" height="31" fill="white"/>
</clipPath>
</defs>
</svg>
