<svg width="50" height="50" viewBox="0 0 50 50" fill="none" xmlns="http://www.w3.org/2000/svg">
<g id="savings_payment_dollar_investment_money_icon_188483 1">
<path id="Vector" d="M9.9502 23.7227V45.8701H2.64745V23.7227H9.9502ZM6.29394 29.3037C6.60916 29.3037 6.91729 29.2102 7.17938 29.0351C7.44147 28.86 7.64575 28.6111 7.76638 28.3199C7.887 28.0286 7.91856 27.7082 7.85707 27.399C7.79557 27.0899 7.64378 26.8059 7.42089 26.583C7.198 26.3601 6.91402 26.2083 6.60487 26.1468C6.29571 26.0853 5.97526 26.1169 5.68404 26.2375C5.39282 26.3582 5.14391 26.5624 4.96878 26.8245C4.79366 27.0866 4.70019 27.3947 4.70019 27.71C4.70019 28.1327 4.8681 28.538 5.16699 28.8369C5.46587 29.1358 5.87125 29.3037 6.29394 29.3037Z" fill="#0088CF"/>
<path id="Vector_2" d="M31.9619 19.4082C31.9619 20.7963 31.5503 22.1533 30.7791 23.3075C30.0079 24.4617 28.9117 25.3613 27.6292 25.8925C26.3468 26.4237 24.9356 26.5627 23.5741 26.2919C22.2126 26.0211 20.962 25.3526 19.9805 24.3711C18.9989 23.3895 18.3305 22.1389 18.0597 20.7775C17.7888 19.416 17.9278 18.0048 18.4591 16.7223C18.9903 15.4398 19.8899 14.3437 21.0441 13.5725C22.1982 12.8013 23.5552 12.3896 24.9434 12.3896C26.8038 12.393 28.587 13.1335 29.9025 14.449C31.218 15.7646 31.9586 17.5478 31.9619 19.4082ZM24.9434 13.9463C23.8631 13.9465 22.8072 14.267 21.9091 14.8673C21.0111 15.4675 20.3111 16.3206 19.8979 17.3187C19.4846 18.3167 19.3766 19.4149 19.5875 20.4744C19.7983 21.5338 20.3186 22.5069 21.0825 23.2707C21.8464 24.0345 22.8196 24.5546 23.8791 24.7652C24.9386 24.9759 26.0368 24.8677 27.0347 24.4543C28.0327 24.0408 28.8857 23.3408 29.4858 22.4426C30.0859 21.5444 30.4062 20.4884 30.4062 19.4082C30.4044 17.96 29.8283 16.5716 28.8041 15.5477C27.78 14.5238 26.3916 13.9478 24.9434 13.9463Z" fill="#0088CF"/>
<path id="Vector_3" d="M26.6155 22.7158C26.1974 22.972 25.7272 23.1312 25.2395 23.1816V23.3456C25.2437 23.4338 25.2276 23.5218 25.1924 23.6027C25.1572 23.6837 25.1038 23.7554 25.0364 23.8124C24.927 23.9045 24.7887 23.9553 24.6457 23.956C24.506 23.9571 24.3697 23.9122 24.258 23.8281C24.1838 23.7725 24.124 23.7 24.0835 23.6166C24.0431 23.5332 24.0232 23.4413 24.0256 23.3486V23.166C23.5198 23.0751 23.1272 22.873 22.8537 22.58C22.5439 22.2601 22.3538 21.8431 22.3157 21.3994C22.2955 21.1709 22.3076 20.9408 22.3518 20.7158C22.3984 20.4526 22.498 20.2018 22.6448 19.9785C22.8104 19.7392 23.0248 19.5375 23.2737 19.3867C23.5055 19.2429 23.7591 19.1377 24.0246 19.0751V16.9247C23.9219 16.9989 23.829 17.0858 23.7483 17.1835C23.6707 17.276 23.6114 17.3824 23.5735 17.497C23.5323 17.6239 23.5051 17.7549 23.4924 17.8876C23.4534 18.207 23.1995 18.4179 22.9065 18.3759C22.6496 18.3456 22.4543 18.1523 22.3889 17.7841C22.4036 17.1767 22.6018 16.6806 22.9748 16.3095C23.2654 16.0256 23.6281 15.8267 24.0237 15.7343V15.4716C24.0238 15.3518 24.0591 15.2346 24.1251 15.1346C24.1911 15.0346 24.2849 14.9561 24.395 14.9089C24.5052 14.8616 24.6267 14.8476 24.7447 14.8687C24.8626 14.8897 24.9719 14.9449 25.0588 15.0273C25.1179 15.085 25.1644 15.1542 25.1954 15.2306C25.2265 15.3071 25.2415 15.3891 25.2395 15.4716V15.6669C25.4605 15.698 25.6776 15.7527 25.8869 15.83C26.1869 15.9381 26.4614 16.1067 26.6936 16.3251C26.9123 16.5344 27.084 16.7877 27.1975 17.0683C27.31 17.3607 27.3525 17.6755 27.3215 17.9872C27.2701 18.5377 27.0076 19.0469 26.5891 19.4081C26.1999 19.7189 25.7333 19.9174 25.2395 19.9824V22.0869C25.5155 22.0538 25.7792 21.9531 26.0071 21.7939C26.2285 21.6386 26.3901 21.4122 26.4651 21.1523C26.4817 21.0186 26.5473 20.8957 26.6492 20.8075C26.7511 20.7193 26.8821 20.672 27.0168 20.6748C27.0992 20.6701 27.1816 20.6832 27.2584 20.7132C27.3352 20.7432 27.4047 20.7894 27.4621 20.8486C27.5124 20.909 27.5475 20.9806 27.5645 21.0574C27.5815 21.1342 27.5799 21.214 27.5598 21.29C27.5127 21.5811 27.4041 21.8588 27.2412 22.1046C27.0784 22.3505 26.8651 22.5588 26.6155 22.7158ZM26.1838 17.9189C26.1938 17.7688 26.1715 17.6184 26.1187 17.4776C26.0658 17.3368 25.9835 17.2089 25.8772 17.1025C25.7031 16.9309 25.4817 16.8153 25.2414 16.7705V18.8603C25.3397 18.8368 25.4355 18.8041 25.5276 18.7626C25.6801 18.6894 25.821 18.594 25.9455 18.4794C26.0172 18.4133 26.0741 18.3328 26.1125 18.2431C26.149 18.1382 26.1729 18.0294 26.1838 17.9189ZM23.4162 21.3544C23.4208 21.4171 23.4349 21.4787 23.4582 21.5371C23.4859 21.621 23.5282 21.6994 23.5832 21.7685C23.6662 21.8613 23.7655 21.9381 23.8762 21.9951C23.9224 22.0205 23.9712 22.0408 24.0217 22.0556V20.2148C23.8751 20.2713 23.7434 20.3609 23.637 20.4765C23.4778 20.6601 23.4026 20.9521 23.4123 21.3437L23.4162 21.3544Z" fill="#0088CF"/>
<path id="Vector_4" d="M38.4336 21.2441C37.4607 21.2441 36.5097 20.9557 35.7008 20.4152C34.8919 19.8747 34.2614 19.1064 33.8891 18.2076C33.5168 17.3088 33.4194 16.3197 33.6092 15.3656C33.799 14.4114 34.2675 13.5349 34.9554 12.847C35.6433 12.1591 36.5198 11.6906 37.474 11.5008C38.4281 11.311 39.4172 11.4084 40.316 11.7807C41.2148 12.153 41.983 12.7835 42.5235 13.5924C43.064 14.4013 43.3525 15.3523 43.3525 16.3252C43.3512 17.6294 42.8326 18.8798 41.9104 19.802C40.9882 20.7242 39.7378 21.2429 38.4336 21.2441ZM38.4336 12.9629C37.7686 12.9631 37.1187 13.1604 36.5659 13.53C36.0131 13.8996 35.5823 14.4248 35.3279 15.0392C35.0736 15.6536 35.0071 16.3296 35.137 16.9817C35.2668 17.6339 35.5871 18.2329 36.0574 18.7031C36.5277 19.1732 37.1268 19.4933 37.779 19.623C38.4312 19.7526 39.1072 19.686 39.7215 19.4315C40.3358 19.177 40.8609 18.746 41.2303 18.1931C41.5997 17.6402 41.7969 16.9902 41.7969 16.3252C41.7961 15.4335 41.4415 14.5786 40.8109 13.9482C40.1803 13.3178 39.3253 12.9634 38.4336 12.9629Z" fill="#0088CF"/>
<path id="Vector_5" d="M30.6182 11.833C29.8565 11.8324 29.1121 11.606 28.4791 11.1825C27.8461 10.7589 27.3529 10.1572 27.0619 9.45335C26.7708 8.74952 26.6949 7.97519 26.8439 7.22825C26.9928 6.48131 27.3599 5.7953 27.8987 5.25695C28.4374 4.71859 29.1237 4.35205 29.8708 4.20368C30.6178 4.0553 31.3921 4.13175 32.0957 4.42335C32.7993 4.71495 33.4007 5.20861 33.8238 5.84194C34.2468 6.47526 34.4727 7.21981 34.4727 7.98145C34.4714 9.00306 34.0648 9.98241 33.3421 10.7045C32.6194 11.4266 31.6398 11.8325 30.6182 11.833ZM30.6182 5.68555C30.1639 5.68478 29.7196 5.81877 29.3416 6.07058C28.9635 6.32238 28.6686 6.68068 28.4942 7.10013C28.3199 7.51959 28.2739 7.98134 28.362 8.42696C28.4501 8.87257 28.6685 9.28203 28.9894 9.60351C29.3104 9.92499 29.7194 10.144 30.1649 10.2329C30.6104 10.3218 31.0722 10.2766 31.492 10.103C31.9117 9.9293 32.2705 9.63503 32.523 9.25739C32.7754 8.87974 32.9102 8.4357 32.9102 7.98145C32.9096 7.37337 32.6681 6.79029 32.2385 6.35995C31.8089 5.92961 31.2262 5.6871 30.6182 5.68555Z" fill="#0088CF"/>
<path id="Vector_6" d="M27.0391 28.7509L28.4063 27.9013C28.8958 27.6046 29.4456 27.4213 30.0153 27.3649C30.5849 27.3084 31.16 27.3803 31.6982 27.5751L32.3379 27.8417L29.1328 29.6083C28.4609 29.3241 27.7539 29.0341 27.0391 28.7509Z" fill="#0088CF"/>
<path id="Vector_7" d="M39.584 27.9873L40.3408 28.3408L33.4619 31.5107C33.002 31.2988 32.2373 30.9521 31.3076 30.5429L35.7773 28.0801C36.3619 27.7726 37.0095 27.6043 37.6698 27.5882C38.3301 27.5721 38.9852 27.7087 39.584 27.9873Z" fill="#0088CF"/>
<path id="Vector_8" d="M13.0351 30.8595C13.0762 30.8351 17.1543 28.3702 19.9883 28.5157C22.3916 28.6417 30.1064 32.0128 32.9863 33.3507C33.5751 33.7907 34.0937 34.3176 34.5244 34.9132C34.6132 35.0415 34.663 35.1927 34.6678 35.3486C34.6727 35.5045 34.6324 35.6585 34.5518 35.7921C34.4675 35.9513 34.3384 36.0824 34.1805 36.1692C34.0226 36.256 33.8427 36.2946 33.6631 36.2804L21.4404 35.4122C21.3181 35.4034 21.1952 35.4188 21.0788 35.4575C20.9624 35.4962 20.8548 35.5575 20.7621 35.6378C20.6693 35.7181 20.5933 35.8158 20.5384 35.9255C20.4835 36.0352 20.4507 36.1546 20.4419 36.2769C20.4331 36.3993 20.4485 36.5222 20.4872 36.6386C20.5259 36.755 20.5872 36.8626 20.6675 36.9553C20.7478 37.048 20.8455 37.124 20.9552 37.179C21.0649 37.2339 21.1843 37.2667 21.3066 37.2755L33.5303 38.1436C34.0618 38.1846 34.5938 38.0718 35.063 37.8189C35.5322 37.5659 35.9188 37.1834 36.1768 36.7169C36.4324 36.2765 36.5569 35.7721 36.5357 35.2633C36.5144 34.7545 36.3482 34.2624 36.0566 33.8448C35.7902 33.4677 35.4929 33.1133 35.168 32.7852L42.8828 29.2296H42.8887L43.5332 28.9366C44.1605 28.6929 44.8388 28.6099 45.5064 28.6952C46.1739 28.7804 46.8096 29.0313 47.3555 29.4249L32.8887 40.714C32.0328 41.4326 31.0096 41.924 29.9136 42.1426C28.8177 42.3613 27.6843 42.3002 26.6182 41.9649L13.0293 38.3702C12.9512 38.3496 12.8708 38.3391 12.79 38.339H11.8164V30.9913H12.5488C12.7199 30.9928 12.8882 30.9472 13.0351 30.8595Z" fill="#0088CF"/>
</g>
</svg>
