<svg width="36" height="36" viewBox="0 0 36 36" fill="none" xmlns="http://www.w3.org/2000/svg">
<g id="credit-card_96970 1">
<path id="Vector" d="M30.1894 11.25H5.81063C4.86629 11.25 3.96063 11.6251 3.29288 12.2929C2.62514 12.9606 2.25 13.8663 2.25 14.8106V15.1875C2.25 15.3367 2.30926 15.4798 2.41475 15.5852C2.52024 15.6907 2.66332 15.75 2.8125 15.75H33.75V14.8106C33.75 13.8663 33.3749 12.9606 32.7071 12.2929C32.0394 11.6251 31.1337 11.25 30.1894 11.25Z" fill="#0088CF"/>
<path id="Vector_2" d="M33.0581 20.25H2.94187C2.75838 20.25 2.5824 20.3229 2.45265 20.4526C2.32289 20.5824 2.25 20.7584 2.25 20.9419V30.1894C2.25 31.1337 2.62514 32.0394 3.29288 32.7071C3.96063 33.3749 4.86629 33.75 5.81063 33.75H30.1894C31.1337 33.75 32.0394 33.3749 32.7071 32.7071C33.3749 32.0394 33.75 31.1337 33.75 30.1894V20.9419C33.75 20.7584 33.6771 20.5824 33.5474 20.4526C33.4176 20.3229 33.2416 20.25 33.0581 20.25ZM21.375 22.5H24.6881C24.9646 22.4892 25.236 22.5773 25.4535 22.7484C25.671 22.9195 25.8204 23.1625 25.875 23.4337C25.9031 23.5967 25.895 23.7638 25.8512 23.9232C25.8074 24.0826 25.729 24.2304 25.6216 24.3561C25.5142 24.4817 25.3804 24.5822 25.2297 24.6503C25.0791 24.7184 24.9153 24.7524 24.75 24.75H21.4369C21.1604 24.7608 20.889 24.6727 20.6715 24.5016C20.454 24.3305 20.3046 24.0875 20.25 23.8163C20.2219 23.6533 20.23 23.4862 20.2738 23.3268C20.3176 23.1674 20.396 23.0196 20.5034 22.8939C20.6108 22.7683 20.7446 22.6678 20.8953 22.5997C21.0459 22.5316 21.2097 22.4976 21.375 22.5ZM16.8019 26.595C16.6877 27.1137 16.4527 27.5981 16.116 28.0088C15.7793 28.4196 15.3504 28.7451 14.8642 28.9588C14.3781 29.1726 13.8483 29.2686 13.318 29.2391C12.7877 29.2095 12.2719 29.0552 11.8125 28.7887C11.3491 29.0564 10.8287 29.2099 10.2942 29.2368C9.75975 29.2637 9.22656 29.163 8.73865 28.9433C8.25073 28.7235 7.82206 28.3908 7.48803 27.9727C7.154 27.5547 6.92416 27.0631 6.8175 26.5388C6.71929 26.0491 6.73096 25.5438 6.85165 25.0593C6.97234 24.5747 7.19906 24.123 7.51545 23.7366C7.83185 23.3503 8.23003 23.039 8.68129 22.8251C9.13255 22.6113 9.62564 22.5002 10.125 22.5C10.7185 22.5012 11.3009 22.6604 11.8125 22.9612C12.3787 22.6332 13.0282 22.4768 13.6817 22.5112C14.3352 22.5456 14.9646 22.7692 15.4933 23.1549C16.022 23.5405 16.4272 24.0716 16.6595 24.6833C16.8918 25.2951 16.9413 25.9612 16.8019 26.6006V26.595ZM22.1737 28.9181C22.0691 29.0234 21.9446 29.1069 21.8075 29.1639C21.6705 29.2209 21.5235 29.2501 21.375 29.25C21.1532 29.2491 20.9366 29.1826 20.7525 29.0589C20.5683 28.9352 20.4249 28.7599 20.3401 28.5549C20.2553 28.3499 20.2331 28.1244 20.2761 27.9068C20.3191 27.6892 20.4255 27.4892 20.5819 27.3319C20.797 27.1285 21.0818 27.0153 21.3778 27.0153C21.6738 27.0153 21.9586 27.1285 22.1737 27.3319C22.3833 27.5427 22.5009 27.8278 22.5009 28.125C22.5009 28.4222 22.3833 28.7073 22.1737 28.9181ZM28.125 29.25H24.8119C24.5354 29.2608 24.264 29.1727 24.0465 29.0016C23.829 28.8305 23.6796 28.5875 23.625 28.3162C23.5969 28.1533 23.605 27.9862 23.6488 27.8268C23.6926 27.6674 23.771 27.5196 23.8784 27.3939C23.9858 27.2683 24.1196 27.1678 24.2703 27.0997C24.4209 27.0316 24.5847 26.9976 24.75 27H28.0631C28.3396 26.9892 28.611 27.0773 28.8285 27.2484C29.046 27.4195 29.1954 27.6625 29.25 27.9338C29.2781 28.0967 29.27 28.2638 29.2262 28.4232C29.1824 28.5826 29.104 28.7304 28.9966 28.8561C28.8892 28.9817 28.7554 29.0822 28.6047 29.1503C28.4541 29.2184 28.2903 29.2524 28.125 29.25ZM28.9181 24.4181C28.8685 24.4724 28.8117 24.5197 28.7494 24.5588C28.6901 24.6019 28.6259 24.6378 28.5581 24.6656C28.4895 24.6945 28.4178 24.7153 28.3444 24.7275C28.2724 24.7437 28.1988 24.7512 28.125 24.75C27.8266 24.75 27.5405 24.6315 27.3295 24.4205C27.1185 24.2095 27 23.9234 27 23.625C26.9917 23.5521 26.9917 23.4785 27 23.4056C27.0144 23.3346 27.0351 23.2649 27.0619 23.1975C27.0907 23.1284 27.1265 23.0624 27.1687 23.0006C27.2077 22.9382 27.255 22.8814 27.3094 22.8319C27.359 22.7776 27.4158 22.7302 27.4781 22.6913C27.54 22.6492 27.606 22.6134 27.675 22.5844C27.7416 22.5553 27.8115 22.5345 27.8831 22.5225C28.028 22.4937 28.177 22.4937 28.3219 22.5225C28.3952 22.5352 28.4669 22.556 28.5356 22.5844C28.6023 22.6146 28.6662 22.6503 28.7269 22.6913C28.7892 22.7302 28.846 22.7776 28.8956 22.8319C29.0043 22.934 29.0916 23.0567 29.1525 23.1929C29.2133 23.329 29.2464 23.4759 29.25 23.625C29.2487 23.9229 29.1294 24.2081 28.9181 24.4181Z" fill="#0088CF"/>
<path id="Vector_3" d="M22.3198 2.66617L11.3511 8.99992H29.5761L26.578 3.80804C26.1639 3.09288 25.4831 2.57108 24.6849 2.35703C23.8867 2.14299 23.0362 2.25415 22.3198 2.66617Z" fill="#0088CF"/>
</g>
</svg>
