<svg width="40" height="40" viewBox="0 0 40 40" fill="none" xmlns="http://www.w3.org/2000/svg">
<g id="353414-gift-present_107492 1">
<path id="Vector" d="M34.8438 10.1399H27.9988C28.6831 9.04243 28.8069 7.62743 28.1944 6.38431C27.5394 5.05368 26.2106 4.22681 24.7256 4.22681C24.1313 4.22681 23.5575 4.36056 23.0206 4.62493C21.7181 5.26681 20.7044 6.51493 19.9987 7.64868C19.2931 6.51431 18.28 5.26618 16.9769 4.62431C16.4406 4.36056 15.8675 4.22681 15.2725 4.22681C13.7881 4.22681 12.4587 5.05368 11.8038 6.38368C11.1912 7.62743 11.315 9.04181 12 10.1399H5.15625C4.46875 10.1399 3.90625 10.7024 3.90625 11.3899V17.8737C3.90625 18.5612 4.46875 19.1237 5.15625 19.1237H5.4975V24.4768V26.9768V33.3624C5.4975 34.6943 6.57688 35.7731 7.9075 35.7731H32.0919C33.4231 35.7731 34.5025 34.6937 34.5025 33.3624V19.1237H34.8438C35.5312 19.1237 36.0938 18.5612 36.0938 17.8737V11.3899C36.0938 10.7024 35.5312 10.1399 34.8438 10.1399ZM24.1256 6.86743C24.7925 6.53931 25.6294 6.83181 25.9525 7.48868C26.285 8.16431 26.0062 8.98431 25.3319 9.31618C24.8144 9.57056 24.1431 9.69993 23.335 9.69993C22.9812 9.69993 22.6419 9.66993 22.3156 9.63181C22.2563 9.43118 22.1756 9.24118 22.0694 9.06618C22.6075 8.17868 23.3244 7.26243 24.1256 6.86743ZM14.0475 7.48806C14.2787 7.01868 14.7481 6.72681 15.2731 6.72681C15.4819 6.72681 15.6844 6.77431 15.8731 6.86743C16.675 7.26243 17.3912 8.17931 17.93 9.06556C17.8237 9.24118 17.7431 9.43056 17.6838 9.63181C17.3575 9.67056 17.0187 9.69993 16.665 9.69993C15.8575 9.69993 15.185 9.57056 14.6687 9.31681C13.9937 8.98368 13.715 8.16368 14.0475 7.48806ZM18.8025 32.6481H8.6225V26.9762H18.8025V32.6481ZM8.6225 24.4762V19.1231H18.8025V24.4762H8.6225ZM31.3775 32.6481H21.1975V26.9762H31.3775V32.6481ZM31.3775 24.4762H21.1975V19.1231H31.3775V24.4762Z" fill="#0088CF"/>
</g>
</svg>
