<svg width="41" height="41" viewBox="0 0 41 41" fill="none" xmlns="http://www.w3.org/2000/svg">
<g id="badge_discount_icon_178995 1" clip-path="url(#clip0_233_496)">
<path id="Vector" d="M20.6711 3.41675C20.3294 3.41675 19.8169 3.58758 19.4752 3.92925L16.0586 7.00425L11.7877 6.32091C10.7627 6.15008 9.90856 6.83341 9.73773 7.85841L9.0544 12.1292L5.12523 14.1792C4.27106 14.6917 3.9294 15.7167 4.27106 16.5709L6.32106 20.5001L4.4419 24.4292C4.10023 25.2834 4.4419 26.3084 5.12523 26.8209L9.0544 28.8709L9.73773 33.1417C9.90856 34.1667 10.7627 34.6792 11.7877 34.6792L16.0586 33.9959L19.1336 37.0709C19.8169 37.7542 20.8419 37.7542 21.5252 37.0709L24.6002 33.9959L28.8711 34.6792C29.8961 34.8501 30.7502 34.1667 30.9211 33.1417L31.6044 28.8709L35.5336 26.8209C36.3877 26.3084 36.7294 25.2834 36.2169 24.4292L34.6794 20.5001L36.5586 16.5709C36.9002 15.7167 36.5586 14.6917 35.8752 14.1792L31.9461 12.1292L31.2627 7.85841C31.0919 6.83341 30.2377 6.32091 29.2127 6.32091L24.9419 7.00425L21.8669 3.92925C21.5252 3.58758 21.0127 3.41675 20.6711 3.41675ZM16.9127 11.9584C17.9377 11.9584 18.7919 12.3001 19.3044 12.9834C19.9877 13.6667 20.1586 14.3501 20.1586 15.3751V16.2292C20.1586 17.2542 19.8169 18.1084 19.3044 18.6209C18.7919 19.3042 17.9377 19.6459 16.9127 19.6459C15.8877 19.6459 15.0336 19.3042 14.5211 18.7917C14.0086 18.1084 13.6669 17.2542 13.6669 16.2292V15.3751C13.6669 14.3501 14.0086 13.6667 14.5211 12.9834C15.0336 12.3001 15.8877 11.9584 16.9127 11.9584ZM16.9127 13.6667C16.5711 13.6667 16.2294 14.0084 16.0586 14.1792C15.8877 14.5209 15.7169 14.8626 15.7169 15.3751V16.2292C15.7169 16.7417 15.8877 17.0834 16.0586 17.4251C16.2294 17.7667 16.5711 17.9376 16.9127 17.9376C17.2544 17.9376 17.5961 17.7667 17.7669 17.4251C17.9377 17.0834 18.1086 16.7417 18.1086 16.2292V15.3751C18.1086 14.8626 17.9377 14.5209 17.7669 14.1792C17.5961 13.8376 17.2544 13.6667 16.9127 13.6667ZM23.2336 13.6667L24.7711 14.5209L17.7669 27.5042L16.2294 26.6501L23.2336 13.6667ZM24.0877 21.3542C25.1127 21.3542 25.9669 21.6959 26.4794 22.3792C26.9919 23.0626 27.3336 23.9167 27.3336 24.7709V25.6251C27.3336 26.6501 26.9919 27.5042 26.4794 28.0167C25.9669 28.5292 25.1127 29.0417 24.0877 29.0417C23.0627 29.0417 22.2086 28.7001 21.6961 28.0167C21.1836 27.3334 20.8419 26.4792 20.8419 25.6251V24.7709C20.8419 23.7459 21.1836 23.0626 21.6961 22.3792C22.2086 21.6959 23.0627 21.3542 24.0877 21.3542ZM24.0877 23.0626C23.7461 23.0626 23.4044 23.2334 23.2336 23.5751C23.0627 23.9167 22.8919 24.2584 22.8919 24.7709V25.6251C22.8919 26.1376 23.0627 26.4792 23.2336 26.8209C23.4044 27.1626 23.7461 27.3334 24.0877 27.3334C24.6002 27.3334 24.7711 27.1626 24.9419 26.8209C25.1127 26.4792 25.1127 26.1376 25.1127 25.6251V24.7709C25.1127 24.2584 24.9419 23.9167 24.7711 23.5751C24.7711 23.2334 24.4294 23.0626 24.0877 23.0626Z" fill="#0088CF"/>
</g>
<defs>
<clipPath id="clip0_233_496">
<rect width="41" height="41" fill="white"/>
</clipPath>
</defs>
</svg>
