<svg width="35" height="40" fill="none" xmlns="http://www.w3.org/2000/svg"><g fill="#0088CF" clip-path="url(#clip0_412_3020)"><path d="M16.729 8.97c0 .883.643 1.471 1.286 1.471h6.434L16.73.147v8.824z"/><path d="M34.228 6.912l-1.544-1.765c-1.03-1.176-2.574-1.176-3.603 0l-4.633 5.294-1.286 1.47h-5.147c-1.416 0-2.574-1.323-2.574-2.94V.147H2.574C1.158.147 0 1.471 0 3.088v33.824c0 1.617 1.158 2.941 2.574 2.941h19.301c1.415 0 2.573-1.324 2.573-2.941V22.206l9.78-11.176a3.131 3.131 0 000-4.118zM10.68 32.059l.772-4.559 3.217 3.677-3.989.882zm5.018-1.912l-3.345-3.823L26.765 9.853l3.345 3.824-14.412 16.47zM33.328 10l-2.188 2.5-3.346-3.823 2.188-2.5c.514-.589 1.286-.589 1.801 0l1.544 1.764c.515.589.515 1.47 0 2.06z"/></g><defs><clipPath id="clip0_412_3020"><path fill="#fff" d="M0 0h35v40H0z"/></clipPath></defs></svg>