<svg width="36" height="35" fill="none" xmlns="http://www.w3.org/2000/svg"><g fill="#0088CF"><path d="M23.59 26.854c-.053.083-.04.064 0 0zm0 0l.083-.13-.083.13z"/><path d="M6.512 6.303L6.51 3.256H0v29.302c0 1.628 1.79 1.628 1.79 1.628h32.396s1.628 0 1.628-1.628V3.256h-6.512v3.046c0 1.022-1.094 1.838-2.443 1.838h-1.625c-1.354 0-2.443-.822-2.443-1.837V3.256h-9.768v3.046c0 1.022-1.094 1.838-2.443 1.838H8.955c-1.354 0-2.443-.822-2.443-1.837zm8.14 23h-1.588V19.57H9.767v-1.102c1.2-.101 2.037-.27 2.51-.508.475-.238.83-.798 1.062-1.682h1.312v13.023zm10.678-2.426c-.692 1.616-1.823 2.425-3.394 2.425-1.416 0-2.471-.66-3.163-1.982-.578-1.104-.866-2.586-.866-4.445 0-1.44.172-2.676.52-3.71.647-1.924 1.82-2.886 3.517-2.886 1.527 0 2.63.676 3.311 2.027.528 1.045.792 2.476.792 4.294 0 1.724-.24 3.149-.717 4.277zm7.228-17.11v1.628H3.256V9.768h29.302z"/><path d="M22.03 17.907c-.865 0-1.497.425-1.896 1.275-.399.851-.599 2.103-.599 3.758 0 1.246.127 2.247.383 3.004.392 1.152 1.06 1.73 2.005 1.73.76 0 1.368-.353 1.819-1.058.45-.705.677-2.018.677-3.941 0-1.387-.163-2.53-.49-3.425-.326-.895-.959-1.343-1.9-1.343zm5.644-13.022V1.626a1.628 1.628 0 00-3.256 0v3.26a1.628 1.628 0 003.256 0zM10.175 6.512a1.22 1.22 0 001.221-1.225V1.224C11.396.55 10.851 0 10.176 0h-.814A1.22 1.22 0 008.14 1.224v4.062c0 .677.545 1.226 1.22 1.226h.814z"/></g></svg>