<svg width="14" height="7" fill="none" xmlns="http://www.w3.org/2000/svg"><path d="M.41 5.6h.877c.036.78.637 1.4 1.372 1.4.736 0 1.337-.62 1.372-1.4h6.214c.035.78.636 1.4 1.372 1.4.735 0 1.336-.62 1.371-1.4h.72a.27.27 0 00.206-.102.38.38 0 00.086-.244.385.385 0 00-.07-.225l-.15-.207c.334-.809.217-1.969.106-2.637-.064-.384-.26-.72-.542-.926-.338-.245-.915-.581-1.864-.94C9.588-.392 6.247.228 5.588.807c-.524.461-1.562 1.555-2.877 1.717a5.708 5.708 0 00-1.673.485c-.36.166-.6.57-.614 1.028l-.014.495-.228.18a.466.466 0 00-.134.175.557.557 0 00-.049.229c0 .268.184.485.41.485zm12.074 0c-.035.48-.41.86-.867.86s-.833-.38-.868-.86a.993.993 0 01-.003-.074c0-.515.39-.934.87-.934s.871.42.871.934c0 .025 0 .05-.003.074zm1.112-2.364a.159.159 0 01.12.15c.017.327-.028.663-.059.843a.154.154 0 01-.148.133h-.1c-.089 0-.158-.082-.15-.177l.06-.691a.168.168 0 01.039-.093l.096-.115a.144.144 0 01.142-.05zm-2.95-1.5l.101-.506a.501.501 0 01.426-.41l.086-.01.054.02c.93.35 1.464.67 1.749.877a.882.882 0 01.329.573l.014.088h-2.282a.466.466 0 01-.29-.102.542.542 0 01-.187-.53zM8.564 3.54H8.06c-.095 0-.172-.082-.172-.183 0-.102.077-.184.172-.184h.503c.094 0 .17.082.17.184 0 .101-.076.183-.17.183zM5.705 1.407c.077-.07.144-.132.203-.184.088-.077.456-.268 1.222-.44a10.518 10.518 0 012.014-.24l-.234 1.44c-.06.363-.347.633-.69.648l-3.494.152a.703.703 0 01-.533-.215c.635-.357 1.147-.826 1.512-1.16zM2.66 4.592c.48 0 .87.42.87.934 0 .025 0 .05-.002.074-.035.48-.41.86-.868.86-.457 0-.832-.38-.867-.86a.977.977 0 01-.003-.074c0-.515.39-.934.87-.934zM.952 3.556c.137 0 .248.18.248.403 0 .222-.111.403-.248.403s-.248-.18-.248-.403c0-.223.11-.403.248-.403z" fill="#0088CF"/></svg>