<svg width="40" height="32" fill="none" xmlns="http://www.w3.org/2000/svg"><path d="M37.535 12.197h-.482L30.967 1.185c-.322-.58-.805-.87-1.45-.87h-18.45c-.644 0-1.127.29-1.449.87L3.533 12.197h-.58c-.58 0-1.143.21-1.69.628-.548.419-.822.886-.822 1.4v9.854c0 .515.274.982.821 1.4.548.42 1.111.628 1.691.628h1.449v2.898c0 .838.37 1.546 1.11 2.126.741.58 1.53.869 2.368.869h.966c.837 0 1.465-.274 1.883-.821.419-.548.628-1.272.628-2.174v-2.898h16.808v2.898c0 .838.37 1.546 1.111 2.126.74.58 1.53.869 2.367.869h.966c.773 0 1.384-.274 1.835-.821.451-.548.676-1.272.676-2.174v-2.898h2.416c1.03 0 1.545-.676 1.545-2.028v-9.853c0-1.353-.515-2.029-1.546-2.029zM8.121 19.394a2.372 2.372 0 01-1.739.724 2.372 2.372 0 01-1.739-.724 2.371 2.371 0 01-.724-1.739c0-.676.241-1.256.724-1.739a2.371 2.371 0 011.74-.724c.675 0 1.255.241 1.738.724.483.483.725 1.063.725 1.739 0 .676-.242 1.256-.725 1.739zm.242-7.197L12.42 4.18c.257-.58.74-.869 1.449-.869h12.847c.644 0 1.127.29 1.45.87l3.96 8.017H8.363zm27.482 7.197a2.372 2.372 0 01-1.739.724 2.372 2.372 0 01-1.739-.724 2.371 2.371 0 01-.724-1.739c0-.676.241-1.256.724-1.739a2.371 2.371 0 011.74-.724c.675 0 1.255.241 1.738.724.483.483.724 1.063.724 1.739 0 .676-.241 1.256-.724 1.739z" fill="#0088CF"/></svg>