<svg width="40" height="40" fill="none" xmlns="http://www.w3.org/2000/svg"><path d="M33.544 12.5H6.456A3.956 3.956 0 002.5 16.456v.419a.625.625 0 00.625.625H37.5v-1.044a3.956 3.956 0 00-3.956-3.956zm3.187 10H3.27a.769.769 0 00-.769.769v10.275A3.956 3.956 0 006.456 37.5h27.088a3.956 3.956 0 003.956-3.956V23.269a.768.768 0 00-.769-.769zM23.75 25h3.681a1.293 1.293 0 011.319 1.038A1.25 1.25 0 0127.5 27.5h-3.681a1.293 1.293 0 01-1.319-1.038A1.25 1.25 0 0123.75 25zm-5.081 4.55a3.75 3.75 0 01-5.544 2.438 3.75 3.75 0 01-5.55-2.5A3.75 3.75 0 0111.25 25a3.71 3.71 0 011.875.512 3.75 3.75 0 015.544 4.044v-.006zm5.968 2.581a1.252 1.252 0 01-.887.369 1.25 1.25 0 01-.881-2.131 1.287 1.287 0 011.768 0 1.25 1.25 0 010 1.762zm6.613.369h-3.681a1.293 1.293 0 01-1.319-1.038A1.25 1.25 0 0127.5 30h3.681a1.293 1.293 0 011.319 1.038 1.25 1.25 0 01-1.25 1.462zm.881-5.369a.91.91 0 01-.187.157 1.053 1.053 0 01-.45.188A1.25 1.25 0 0130 26.25a1.08 1.08 0 010-.245 1.209 1.209 0 01.188-.45.892.892 0 01.156-.187 1.247 1.247 0 01.406-.275 1.25 1.25 0 01.719-.069 1.107 1.107 0 01.45.187c.07.044.132.096.187.157a1.248 1.248 0 01.394.881 1.25 1.25 0 01-.369.881zM24.8 2.963L12.614 10h20.25l-3.331-5.769a3.469 3.469 0 00-4.731-1.268z" fill="#0088CF"/></svg>