<svg width="35" height="40" viewBox="0 0 35 40" fill="none" xmlns="http://www.w3.org/2000/svg">
<g id="edit-document_icon-icons.com_54542 1" clip-path="url(#clip0_412_3020)">
<g id="Group">
<g id="Group_2">
<path id="Vector" d="M16.7285 8.97074C16.7285 9.85309 17.3719 10.4413 18.0153 10.4413H24.4491L16.7285 0.147217V8.97074Z" fill="#0088CF"/>
<path id="Vector_2" d="M34.2279 6.91192L32.6839 5.14721C31.6544 3.97074 30.1104 3.97074 29.0809 5.14721L24.4485 10.4413L23.1618 11.9119H18.0147C16.5992 11.9119 15.4412 10.5884 15.4412 8.97074V0.147217H2.57353C1.15805 0.147217 0 1.47071 0 3.08839V36.9119C0 38.5295 1.15805 39.8531 2.57353 39.8531H21.875C23.2904 39.8531 24.4485 38.5295 24.4485 36.9119V22.206L34.2279 11.0296C35.2574 9.85309 35.2574 8.08839 34.2279 6.91192ZM10.6801 32.0589L11.4522 27.5001L14.6691 31.1765L10.6801 32.0589ZM15.6985 30.1472L12.3529 26.3236L26.7647 9.85301L30.1104 13.6765L15.6985 30.1472ZM33.3272 10.0001L31.1397 12.5001L27.7941 8.67655L29.9817 6.17659C30.4964 5.58835 31.2684 5.58835 31.7831 6.17659L33.3272 7.94129C33.8419 8.52953 33.8419 9.41188 33.3272 10.0001Z" fill="#0088CF"/>
</g>
</g>
</g>
<defs>
<clipPath id="clip0_412_3020">
<rect width="35" height="40" fill="white"/>
</clipPath>
</defs>
</svg>
