<svg width="36" height="35" viewBox="0 0 36 35" fill="none" xmlns="http://www.w3.org/2000/svg">
<g id="Group">
<g id="Group_2">
<path id="Vector" d="M23.5903 26.854C23.5365 26.937 23.5496 26.9175 23.5903 26.854V26.854Z" fill="#0088CF"/>
<path id="Vector_2" d="M23.5898 26.8541C23.6094 26.8232 23.6305 26.7922 23.6729 26.7239C23.6436 26.7695 23.6142 26.8151 23.5898 26.8541Z" fill="#0088CF"/>
<path id="Vector_3" d="M6.51164 6.30332L6.51 3.25586H0V32.5582C0 34.186 1.7907 34.186 1.7907 34.186H34.186C34.186 34.186 35.8139 34.186 35.8139 32.5582V3.25586H29.3023V6.30168C29.3023 7.32402 28.2084 8.1396 26.8589 8.1396H25.2342C23.8797 8.1396 22.7906 7.31752 22.7906 6.30332V3.25586H13.0232V6.30168C13.0232 7.32402 11.9293 8.1396 10.5797 8.1396H8.95506C7.60068 8.1396 6.51164 7.31752 6.51164 6.30332ZM14.6512 29.3024H13.0639V19.5707H9.76743V18.4686C10.9672 18.3677 11.8039 18.1985 12.2777 17.9608C12.7515 17.723 13.1063 17.1631 13.3391 16.2791H14.6512V29.3024ZM25.3302 26.8768C24.6384 28.4933 23.507 29.3024 21.936 29.3024C20.5198 29.3024 19.4649 28.6414 18.773 27.3196C18.1951 26.2159 17.907 24.7344 17.907 22.8755C17.907 21.4348 18.0795 20.1992 18.4263 19.1654C19.0741 17.2413 20.2463 16.2792 21.9442 16.2792C23.4711 16.2792 24.5748 16.9547 25.2553 18.306C25.7827 19.3511 26.0465 20.782 26.0465 22.6004C26.0465 24.3242 25.8072 25.7486 25.3302 26.8768ZM32.5581 9.7675V11.3954H3.25579V9.7675H32.5581Z" fill="#0088CF"/>
<path id="Vector_4" d="M22.0291 17.907C21.1647 17.907 20.5331 18.3319 20.1342 19.1816C19.7354 20.033 19.5352 21.2848 19.5352 22.9404C19.5352 24.1858 19.6621 25.1869 19.9177 25.9439C20.31 27.0964 20.9774 27.6744 21.9233 27.6744C22.6834 27.6744 23.2907 27.3211 23.7416 26.6162C24.1925 25.9113 24.4188 24.5976 24.4188 22.675C24.4188 21.2881 24.256 20.1453 23.9288 19.2499C23.6033 18.3547 22.97 17.907 22.0291 17.907Z" fill="#0088CF"/>
<path id="Vector_5" d="M27.6738 4.88538V1.62626C27.6738 0.72769 26.9428 0 26.0459 0C25.1473 0 24.418 0.72769 24.418 1.62626V4.88532C24.418 5.78389 25.1489 6.51158 26.0459 6.51158C26.9444 6.51164 27.6738 5.78395 27.6738 4.88538Z" fill="#0088CF"/>
<path id="Vector_6" d="M10.1755 6.51164C10.8495 6.51164 11.3964 5.96793 11.3964 5.28747V1.22417C11.3964 0.54862 10.8511 0 10.1755 0H9.36157C8.6876 0 8.14062 0.543704 8.14062 1.22417V5.28583C8.14062 5.96302 8.68597 6.51164 9.36157 6.51164H10.1755Z" fill="#0088CF"/>
</g>
</g>
</svg>
