<svg width="34" height="46" viewBox="0 0 34 46" fill="none" xmlns="http://www.w3.org/2000/svg">
<g id="Group">
<path id="Vector" d="M32.881 32.9551C32.8796 32.9512 32.8776 32.9468 32.8756 32.9429L24.0002 13L27.9489 1.31641C28.0504 1.01123 27.9992 0.67627 27.8112 0.41553C27.6232 0.1543 27.3214 0 27.0002 0H7.00016C6.67887 0 6.37711 0.1543 6.18912 0.41553C6.00113 0.67627 5.94986 1.01123 6.05142 1.31641L10.0002 13L1.1193 32.9551C-0.113611 35.8603 0.190589 39.166 1.93278 41.7974C3.67496 44.4292 6.59928 46 9.75504 46H24.2453C27.401 46 30.3253 44.4292 32.0675 41.7974C33.8097 39.166 34.1139 35.8603 32.881 32.9551Z" fill="#0088CF"/>
<path id="Vector_2" d="M17 14C16.4477 14 16 13.5522 16 13V7C16 6.44775 16.4477 6 17 6C17.5523 6 18 6.44775 18 7V13C18 13.5522 17.5523 14 17 14Z" fill="#0088CF"/>
<path id="Vector_3" d="M24 14H10C9.44775 14 9 13.5523 9 13C9 12.4477 9.44775 12 10 12H24C24.5522 12 25 12.4477 25 13C25 13.5523 24.5522 14 24 14Z" fill="white"/>
</g>
</svg>
