<svg width="14" height="7" viewBox="0 0 14 7" fill="none" xmlns="http://www.w3.org/2000/svg">
<path id="Vector" d="M0.410458 5.59991H1.28743C1.32306 6.37975 1.92369 7 2.65938 7C3.39508 7 3.99573 6.37975 4.03134 5.59991H10.2446C10.2802 6.37975 10.8808 7 11.6165 7C12.3522 7 12.9529 6.37975 12.9885 5.59991H13.7073C13.788 5.59991 13.8612 5.56104 13.9142 5.49841C13.9671 5.43578 13.9999 5.34939 13.9999 5.25372C13.9999 5.17144 13.9752 5.09175 13.9299 5.02912L13.7808 4.82244C14.1139 4.01301 13.9971 2.85308 13.886 2.18532C13.8222 1.80069 13.6264 1.46444 13.3439 1.25949C13.0056 1.01372 12.4293 0.677898 11.4795 0.319832C9.58899 -0.39263 6.24707 0.226536 5.58905 0.805749C5.06471 1.26705 4.02729 2.36068 2.7123 2.52265C2.02896 2.60666 1.44381 2.82112 1.03923 3.00792C0.679132 3.174 0.438216 3.57893 0.425112 4.03569L0.410821 4.53089L0.182766 4.71079C0.125601 4.75593 0.07993 4.81618 0.0485095 4.88572C0.0171092 4.95505 0 5.03366 0 5.11464C2.01284e-05 5.38265 0.183792 5.59991 0.410458 5.59991ZM12.4843 5.59991C12.4493 6.08043 12.0735 6.46009 11.6165 6.46009C11.1596 6.46009 10.7838 6.08043 10.7488 5.59991C10.747 5.57572 10.746 5.5511 10.746 5.52627C10.746 5.0112 11.1365 4.59223 11.6165 4.59223C12.0966 4.59223 12.4871 5.0112 12.4871 5.52627C12.4871 5.5511 12.4861 5.57572 12.4843 5.59991ZM13.5963 3.23598C13.6635 3.25088 13.7125 3.31263 13.7162 3.38607C13.7327 3.71285 13.6875 4.04943 13.6574 4.22932C13.6445 4.30616 13.5821 4.36186 13.5094 4.36186H13.4088C13.3202 4.36186 13.2507 4.28007 13.259 4.18542L13.3194 3.49378C13.3225 3.45914 13.3359 3.42648 13.3576 3.40067L13.4542 3.28587C13.49 3.24337 13.5441 3.22438 13.5963 3.23598ZM10.6461 1.73512L10.7473 1.22973C10.7915 1.00865 10.9633 0.843132 11.1729 0.819549L11.2587 0.809874C11.2767 0.816288 11.2951 0.822572 11.3127 0.829202C12.2427 1.1798 12.7773 1.49983 13.0619 1.70655C13.2307 1.82909 13.3505 2.03803 13.3906 2.27991C13.3955 2.30933 13.4002 2.33861 13.4048 2.36779H11.1225C11.0185 2.36779 10.9172 2.33207 10.8334 2.26585C10.6791 2.1439 10.6058 1.93619 10.6461 1.73512ZM8.56375 3.5412H8.06054C7.96604 3.5412 7.88945 3.45901 7.88945 3.35763C7.88945 3.25626 7.96604 3.17406 8.06054 3.17406H8.56375C8.65823 3.17406 8.73484 3.25626 8.73484 3.35763C8.73484 3.45901 8.65823 3.5412 8.56375 3.5412ZM5.70528 1.40708C5.78247 1.3363 5.84911 1.27517 5.90815 1.22325C5.99581 1.14608 6.36388 0.955066 7.13 0.783829C7.76749 0.641358 8.47464 0.557111 9.14377 0.542447L8.90982 1.98251C8.85076 2.34598 8.56343 2.61604 8.21986 2.631L4.72585 2.78315C4.52686 2.79181 4.33536 2.71283 4.19345 2.56831C4.8279 2.21119 5.34041 1.7416 5.70528 1.40708ZM2.65938 4.59223C3.13947 4.59223 3.52994 5.0112 3.52994 5.52627C3.52994 5.5511 3.52893 5.57572 3.52712 5.59991C3.4921 6.08043 3.1163 6.46009 2.65938 6.46009C2.20247 6.46009 1.82667 6.08043 1.79167 5.59991C1.78984 5.57572 1.78883 5.5511 1.78883 5.52627C1.78885 5.0112 2.17934 4.59223 2.65938 4.59223ZM0.951832 3.55561C1.08895 3.55561 1.20008 3.73609 1.20008 3.95874C1.20008 4.18138 1.08895 4.36188 0.951832 4.36188C0.814738 4.36188 0.703588 4.1814 0.703588 3.95874C0.703609 3.73609 0.814738 3.55561 0.951832 3.55561Z" fill="#0088CF"/>
</svg>
