<svg width="34" height="43" viewBox="0 0 34 43" fill="none" xmlns="http://www.w3.org/2000/svg">
<path id="Vector" d="M28.9205 7.12072e-09H1.5453C1.34236 -1.99764e-05 1.14141 0.0420212 0.953915 0.123722C0.766423 0.205424 0.596063 0.325184 0.452565 0.476166C0.309067 0.627147 0.195242 0.806391 0.11759 1.00366C0.0399383 1.20093 -1.89862e-05 1.41236 6.76782e-09 1.62588V41.3741C-1.89862e-05 41.5876 0.0399383 41.7991 0.11759 41.9963C0.195242 42.1936 0.309067 42.3729 0.452565 42.5238C0.596063 42.6748 0.766423 42.7946 0.953915 42.8763C1.14141 42.958 1.34236 43 1.5453 43H28.9205C30.2673 42.9986 31.5585 42.4351 32.5108 41.4331C33.4631 40.4312 33.9987 39.0726 34 37.6557V5.34434C33.9987 3.92737 33.4631 2.56884 32.5108 1.56689C31.5585 0.564939 30.2673 0.00141983 28.9205 7.12072e-09ZM23.8688 35.7731H10.1312C9.7214 35.7731 9.32835 35.6018 9.03855 35.2968C8.74875 34.9919 8.58594 34.5784 8.58594 34.1472C8.58594 33.716 8.74875 33.3024 9.03855 32.9975C9.32835 32.6926 9.7214 32.5213 10.1312 32.5213H23.8688C24.2786 32.5213 24.6716 32.6926 24.9614 32.9975C25.2512 33.3024 25.4141 33.716 25.4141 34.1472C25.4141 34.5784 25.2512 34.9919 24.9614 35.2968C24.6716 35.6018 24.2786 35.7731 23.8688 35.7731ZM17 28.5461C14.9962 28.5461 13.0375 27.9209 11.3714 26.7496C9.70531 25.5783 8.40676 23.9135 7.63995 21.9658C6.87314 20.018 6.67251 17.8747 7.06342 15.8069C7.45434 13.7392 8.41925 11.8398 9.83613 10.3491C11.253 8.8583 13.0582 7.84307 15.0235 7.43177C16.9888 7.02047 19.0258 7.23157 20.8771 8.03836C22.7283 8.84516 24.3106 10.2114 25.4238 11.9644C26.5371 13.7173 27.1312 15.7783 27.1312 17.8865C27.1283 20.7127 26.06 23.4222 24.1606 25.4206C22.2613 27.419 19.6861 28.543 17 28.5461Z" fill="#0088CF"/>
</svg>
