<svg width="29" height="29" viewBox="0 0 29 29" fill="none" xmlns="http://www.w3.org/2000/svg">
<g id="checkmark_check_apply_done_accept_icon_142904 1">
<path id="Vector" fill-rule="evenodd" clip-rule="evenodd" d="M14.4993 2.41675C21.173 2.41675 26.5827 7.82647 26.5827 14.5001C26.5827 21.1737 21.173 26.5834 14.4993 26.5834C7.82574 26.5834 2.41602 21.1737 2.41602 14.5001C2.41602 7.82647 7.82574 2.41675 14.4993 2.41675ZM13.1185 19.0634L20.1873 11.9946C20.6597 11.5234 20.6597 10.7585 20.1873 10.286C19.7148 9.81477 18.9512 9.81477 18.4787 10.286L13.1185 15.6462L10.5206 13.0483C10.0482 12.5758 9.28448 12.5758 8.81203 13.0483C8.33957 13.5207 8.33957 14.2844 8.81203 14.7569L13.1185 19.0634Z" fill="#0088CF"/>
</g>
</svg>
