<svg width="40" height="32" viewBox="0 0 40 32" fill="none" xmlns="http://www.w3.org/2000/svg">
<g id="Group">
<g id="Group_2">
<g id="Group_3">
<path id="Vector" d="M37.5355 12.1971H37.0525L30.9667 1.18482C30.6448 0.605227 30.1618 0.31543 29.5177 0.31543H11.0673C10.4233 0.31543 9.94029 0.605227 9.61832 1.18482L3.53258 12.1971H2.95298C2.37339 12.1971 1.80993 12.4064 1.2625 12.825C0.715072 13.2436 0.441406 13.7105 0.441406 14.2257V24.0788C0.441406 24.594 0.715072 25.0609 1.2625 25.4795C1.80993 25.8981 2.37339 26.1074 2.95298 26.1074H4.40197V29.0054C4.40197 29.8426 4.77223 30.5509 5.51286 31.1305C6.25348 31.7101 7.04231 31.9999 7.87954 31.9999H8.84553C9.68275 31.9999 10.3106 31.7263 10.7292 31.1788C11.1478 30.6314 11.3571 29.9069 11.3571 29.0054V26.1074H28.1653V29.0054C28.1653 29.8426 28.5356 30.5509 29.2762 31.1305C30.0169 31.7101 30.8057 31.9999 31.6429 31.9999H32.6089C33.3817 31.9999 33.9935 31.7263 34.4443 31.1788C34.8951 30.6314 35.1205 29.9069 35.1205 29.0054V26.1074H37.5355C38.5659 26.1074 39.081 25.4312 39.081 24.0788V14.2257C39.081 12.8733 38.5659 12.1971 37.5355 12.1971ZM8.12103 19.3938C7.63804 19.8767 7.05844 20.1182 6.38225 20.1182C5.70606 20.1182 5.12646 19.8767 4.64347 19.3938C4.16047 18.9108 3.91897 18.3312 3.91897 17.655C3.91897 16.9788 4.16047 16.3992 4.64347 15.9162C5.12646 15.4332 5.70606 15.1917 6.38225 15.1917C7.05844 15.1917 7.63804 15.4332 8.12103 15.9162C8.60403 16.3992 8.84553 16.9788 8.84553 17.655C8.84553 18.3312 8.60403 18.9108 8.12103 19.3938ZM8.36253 12.1971L12.4197 4.17939C12.6773 3.5998 13.1603 3.31 13.8687 3.31H26.7164C27.3604 3.31 27.8434 3.5998 28.1653 4.17939L32.1259 12.1971H8.36253ZM35.845 19.3938C35.362 19.8767 34.7824 20.1182 34.1062 20.1182C33.43 20.1182 32.8504 19.8767 32.3674 19.3938C31.8844 18.9108 31.6429 18.3312 31.6429 17.655C31.6429 16.9788 31.8844 16.3992 32.3674 15.9162C32.8504 15.4332 33.43 15.1917 34.1062 15.1917C34.7824 15.1917 35.362 15.4332 35.845 15.9162C36.328 16.3992 36.5695 16.9788 36.5695 17.655C36.5695 18.3312 36.328 18.9108 35.845 19.3938Z" fill="#0088CF"/>
</g>
</g>
</g>
</svg>
