<svg width="40" height="40" viewBox="0 0 40 40" fill="none" xmlns="http://www.w3.org/2000/svg">
<g id="credit-card_96970 1">
<path id="Vector" d="M33.5437 12.5H6.45625C5.40699 12.5 4.4007 12.9168 3.65876 13.6588C2.91682 14.4007 2.5 15.407 2.5 16.4562V16.875C2.5 17.0408 2.56585 17.1997 2.68306 17.3169C2.80027 17.4342 2.95924 17.5 3.125 17.5H37.5V16.4562C37.5 15.407 37.0832 14.4007 36.3412 13.6588C35.5993 12.9168 34.593 12.5 33.5437 12.5Z" fill="#0088CF"/>
<path id="Vector_2" d="M36.7313 22.5H3.26875C3.06486 22.5 2.86933 22.581 2.72516 22.7252C2.58099 22.8693 2.5 23.0649 2.5 23.2687V33.5437C2.5 34.593 2.91682 35.5993 3.65876 36.3412C4.4007 37.0832 5.40699 37.5 6.45625 37.5H33.5437C34.593 37.5 35.5993 37.0832 36.3412 36.3412C37.0832 35.5993 37.5 34.593 37.5 33.5437V23.2687C37.5 23.0649 37.419 22.8693 37.2748 22.7252C37.1307 22.581 36.9351 22.5 36.7313 22.5ZM23.75 25H27.4312C27.7385 24.988 28.04 25.0858 28.2816 25.276C28.5233 25.4661 28.6893 25.7361 28.75 26.0375C28.7812 26.2185 28.7722 26.4042 28.7235 26.5813C28.6749 26.7584 28.5878 26.9226 28.4684 27.0623C28.3491 27.2019 28.2004 27.3135 28.0331 27.3892C27.8657 27.4648 27.6837 27.5027 27.5 27.5H23.8188C23.5115 27.512 23.21 27.4142 22.9684 27.224C22.7267 27.0339 22.5607 26.7639 22.5 26.4625C22.4688 26.2815 22.4778 26.0958 22.5265 25.9187C22.5751 25.7416 22.6622 25.5774 22.7816 25.4377C22.9009 25.2981 23.0496 25.1865 23.2169 25.1108C23.3843 25.0352 23.5663 24.9973 23.75 25ZM18.6688 29.55C18.5419 30.1263 18.2808 30.6645 17.9067 31.1209C17.5326 31.5773 17.056 31.939 16.5158 32.1765C15.9756 32.414 15.387 32.5207 14.7978 32.4878C14.2086 32.455 13.6355 32.2836 13.125 31.9875C12.6101 32.2848 12.0319 32.4555 11.438 32.4853C10.8442 32.5152 10.2517 32.4034 9.70961 32.1592C9.16747 31.915 8.69118 31.5454 8.32003 31.0808C7.94888 30.6163 7.69351 30.0702 7.575 29.4875C7.46588 28.9435 7.47884 28.382 7.61294 27.8436C7.74705 27.3052 7.99896 26.8033 8.3505 26.374C8.70205 25.9448 9.14448 25.5989 9.64587 25.3613C10.1473 25.1236 10.6952 25.0003 11.25 25C11.9094 25.0013 12.5566 25.1782 13.125 25.5125C13.7542 25.148 14.4757 24.9743 15.2018 25.0125C15.928 25.0507 16.6273 25.2991 17.2148 25.7276C17.8022 26.1561 18.2524 26.7462 18.5106 27.4259C18.7687 28.1057 18.8237 28.8458 18.6688 29.5563V29.55ZM24.6375 32.1313C24.5212 32.2482 24.3829 32.341 24.2306 32.4043C24.0783 32.4676 23.9149 32.5001 23.75 32.5C23.5035 32.499 23.2629 32.4251 23.0583 32.2877C22.8537 32.1503 22.6943 31.9554 22.6001 31.7277C22.5059 31.4999 22.4812 31.2494 22.529 31.0076C22.5768 30.7658 22.695 30.5435 22.8687 30.3688C23.1078 30.1428 23.4242 30.017 23.7531 30.017C24.082 30.017 24.3985 30.1428 24.6375 30.3688C24.8703 30.603 25.001 30.9198 25.001 31.25C25.001 31.5802 24.8703 31.897 24.6375 32.1313ZM31.25 32.5H27.5688C27.2615 32.512 26.96 32.4142 26.7184 32.224C26.4767 32.0339 26.3107 31.7639 26.25 31.4625C26.2188 31.2815 26.2278 31.0958 26.2765 30.9187C26.3251 30.7416 26.4122 30.5774 26.5316 30.4377C26.6509 30.2981 26.7996 30.1865 26.9669 30.1108C27.1343 30.0352 27.3163 29.9973 27.5 30H31.1812C31.4885 29.988 31.79 30.0858 32.0316 30.276C32.2733 30.4661 32.4393 30.7361 32.5 31.0375C32.5312 31.2185 32.5222 31.4042 32.4735 31.5813C32.4249 31.7584 32.3378 31.9226 32.2184 32.0623C32.0991 32.2019 31.9504 32.3135 31.7831 32.3892C31.6157 32.4648 31.4337 32.5027 31.25 32.5ZM32.1313 27.1312C32.0761 27.1915 32.013 27.2441 31.9438 27.2875C31.8779 27.3354 31.8066 27.3753 31.7313 27.4062C31.655 27.4384 31.5753 27.4615 31.4937 27.475C31.4138 27.493 31.332 27.5014 31.25 27.5C30.9185 27.5 30.6005 27.3683 30.3661 27.1339C30.1317 26.8995 30 26.5815 30 26.25C29.9908 26.169 29.9908 26.0872 30 26.0063C30.016 25.9273 30.039 25.8499 30.0688 25.775C30.1007 25.6982 30.1405 25.6249 30.1875 25.5562C30.2308 25.4869 30.2833 25.4238 30.3438 25.3688C30.3989 25.3084 30.4619 25.2558 30.5312 25.2125C30.6 25.1657 30.6733 25.126 30.75 25.0938C30.824 25.0614 30.9016 25.0383 30.9813 25.025C31.1422 24.993 31.3078 24.993 31.4688 25.025C31.5502 25.0391 31.6299 25.0622 31.7062 25.0938C31.7803 25.1273 31.8514 25.167 31.9188 25.2125C31.9881 25.2558 32.0511 25.3084 32.1062 25.3688C32.227 25.4822 32.324 25.6185 32.3916 25.7698C32.4592 25.9211 32.4961 26.0843 32.5 26.25C32.4986 26.581 32.366 26.8979 32.1313 27.1312Z" fill="#0088CF"/>
<path id="Vector_3" d="M24.8008 2.9626L12.6133 10.0001H32.8633L29.532 4.23135C29.0719 3.43672 28.3155 2.85695 27.4286 2.61912C26.5417 2.38128 25.5967 2.50481 24.8008 2.9626Z" fill="#0088CF"/>
</g>
</svg>
