<svg width="31" height="31" fill="none" xmlns="http://www.w3.org/2000/svg"><g clip-path="url(#clip0_202_329)"><path d="M24.204 21.186c.221.375.333.812.333 1.313 0 .768-.23 1.408-.687 1.92-.458.513-1.118.816-1.983.907v1.315h-1.101v-1.31c-1.44-.148-2.331-.986-2.676-2.51l1.703-.445c.157.96.68 1.44 1.567 1.44.414 0 .72-.102.916-.309a1.04 1.04 0 00.293-.743c0-.302-.098-.53-.293-.683-.195-.155-.63-.352-1.304-.59-.605-.21-1.079-.417-1.42-.625a2.336 2.336 0 01-.828-.86c-.214-.37-.32-.801-.32-1.291 0-.644.191-1.224.57-1.74.38-.514.976-.828 1.792-.943v-1.016h1.1v1.016c1.23.148 2.03.844 2.393 2.088l-1.52.623c-.295-.853-.751-1.28-1.372-1.28-.31 0-.56.094-.747.285a.95.95 0 00-.284.694c0 .277.09.488.272.638.182.147.57.331 1.166.548.653.239 1.168.466 1.538.678.373.212.668.507.892.88zM31 20.828a9.687 9.687 0 01-9.687 9.688 9.687 9.687 0 01-9.688-9.688 9.687 9.687 0 019.688-9.688A9.687 9.687 0 0131 20.828zm-1.937 0c0-4.274-3.476-7.75-7.75-7.75s-7.75 3.476-7.75 7.75 3.476 7.75 7.75 7.75 7.75-3.476 7.75-7.75zM15.5 3.391h11.625c.536 0 .969-.326.969-.727V1.21c0-.401-.433-.727-.969-.727H15.5c-.536 0-.969.326-.969.727v1.453c0 .401.433.727.969.727zm0 3.875h11.625c.536 0 .969-.326.969-.727V5.086c0-.401-.433-.727-.969-.727H15.5c-.536 0-.969.326-.969.727v1.453c0 .401.433.727.969.727zM.969 26.64h11.424a10.635 10.635 0 01-1.324-2.907H.969c-.536 0-.969.326-.969.727v1.453c0 .401.433.727.969.727zm11.625.968H.969c-.536 0-.969.326-.969.727v1.453c0 .401.433.727.969.727h11.625c.535 0 .969-.326.969-.727v-1.453c0-.401-.434-.727-.97-.727zM.969 22.766h9.873a10.56 10.56 0 01-.186-1.938c0-.327.02-.649.05-.968H.969c-.536 0-.969.325-.969.726v1.453c0 .401.433.727.969.727zM15.5 11.14h1.4a10.556 10.556 0 014.413-.97c1.573 0 3.067.353 4.412.97h1.4c.536 0 .969-.326.969-.727V8.961c0-.401-.433-.727-.969-.727H15.5c-.536 0-.969.326-.969.727v1.453c0 .401.433.726.969.726zm-14.531 0h11.625c.535 0 .969-.326.969-.727V8.961c0-.401-.434-.727-.97-.727H.97c-.536 0-.969.326-.969.727v1.453c0 .401.433.726.969.726zm0 7.75h9.873c.189-1.03.528-2.004.991-2.907H.97c-.536 0-.969.326-.969.727v1.453c0 .401.433.727.969.727zm0-3.875h11.424a10.53 10.53 0 011.17-1.48v-.7c0-.401-.434-.726-.969-.726H.969c-.536 0-.969.325-.969.726v1.453c0 .401.433.727.969.727z" fill="#0088CF"/></g><defs><clipPath id="clip0_202_329"><path fill="#fff" d="M0 0h31v31H0z"/></clipPath></defs></svg>