<svg width="50" height="50" fill="none" xmlns="http://www.w3.org/2000/svg"><g fill="#0088CF"><path d="M9.95 23.723V45.87H2.647V23.723H9.95zm-3.656 5.58a1.594 1.594 0 100-3.187 1.594 1.594 0 000 3.188zm25.668-9.895a7.019 7.019 0 11-7.019-7.018 7.031 7.031 0 017.019 7.018zm-7.019-5.462a5.462 5.462 0 105.463 5.462 5.468 5.468 0 00-5.463-5.462z"/><path d="M26.616 22.716a3.279 3.279 0 01-1.377.466v.164a.576.576 0 01-.203.466.611.611 0 01-.39.144.636.636 0 01-.388-.128.582.582 0 01-.232-.48v-.182c-.506-.09-.899-.293-1.172-.586-.31-.32-.5-.737-.538-1.18a2.434 2.434 0 01.036-.684c.046-.263.146-.514.293-.738.165-.239.38-.44.629-.591.232-.144.485-.25.75-.312v-2.15a1.49 1.49 0 00-.276.258.954.954 0 00-.175.314 1.83 1.83 0 00-.08.39c-.04.32-.293.53-.586.489-.257-.03-.453-.224-.518-.592.015-.607.213-1.103.586-1.474.29-.284.653-.483 1.049-.576v-.262a.613.613 0 011.035-.445.599.599 0 01.18.445v.195c.221.031.439.086.648.163.3.108.574.277.807.495.218.21.39.463.504.743.112.293.154.607.123.92a2.14 2.14 0 01-.732 1.42c-.39.31-.856.51-1.35.574v2.105c.276-.033.54-.134.768-.293.221-.155.383-.382.458-.642a.545.545 0 01.552-.477.574.574 0 01.445.174.493.493 0 01.098.441 2.074 2.074 0 01-.944 1.426zm-.432-4.797a1.057 1.057 0 00-.307-.817 1.226 1.226 0 00-.636-.332v2.09a1.59 1.59 0 00.287-.097c.152-.074.293-.169.418-.284a.691.691 0 00.166-.236c.037-.105.06-.214.072-.324zm-2.768 3.435a.614.614 0 00.042.183c.028.084.07.162.125.232a1.019 1.019 0 00.439.287v-1.841a1.023 1.023 0 00-.385.262c-.16.183-.234.475-.225.867l.004.01zm15.018-.11a4.919 4.919 0 110-9.837 4.919 4.919 0 010 9.837zm0-8.281a3.362 3.362 0 10.001 6.724 3.362 3.362 0 00-.001-6.724zm-7.816-1.13a3.852 3.852 0 11.006-7.705 3.852 3.852 0 01-.006 7.705zm0-6.147a2.296 2.296 0 10-.008 4.59 2.296 2.296 0 00.008-4.59zM27.04 28.75l1.366-.849a3.833 3.833 0 013.292-.326l.64.267-3.205 1.766a99.283 99.283 0 00-2.094-.857zm12.544-.763l.757.354-6.88 3.17a144.32 144.32 0 00-2.153-.968l4.47-2.463a4.29 4.29 0 013.806-.093z"/><path d="M13.035 30.86c.041-.025 4.12-2.49 6.953-2.344 2.404.126 10.118 3.497 12.998 4.835.59.44 1.108.967 1.538 1.562a.809.809 0 01.028.88.924.924 0 01-.889.487l-12.223-.868a.934.934 0 10-.133 1.864l12.223.868a2.78 2.78 0 002.647-1.427 2.674 2.674 0 00-.12-2.872 8.368 8.368 0 00-.889-1.06l7.715-3.555h.006l.644-.293a4.036 4.036 0 013.822.488L32.89 40.714a6.65 6.65 0 01-6.27 1.25L13.03 38.37a.943.943 0 00-.239-.031h-.974v-7.348h.733a.933.933 0 00.486-.131z"/></g></svg>