<svg width="36" height="36" fill="none" xmlns="http://www.w3.org/2000/svg"><g fill="#0088CF"><path d="M20.31 30.3a.042.042 0 00-.052.047l.27 1.464a14.3 14.3 0 01-2.528.226c-7.707 0-13.971-6.231-13.971-13.89 0-3.547 1.341-6.921 3.784-9.504L6.071 7.012a16.148 16.148 0 00-4.438 11.135c0 8.968 7.342 16.27 16.367 16.27.994 0 1.994-.089 2.958-.267l.216 1.183c.005.03.041.044.066.026l4.576-3.42a.033.033 0 00-.01-.057L20.31 30.3zM18 1.882c-.73 0-1.467.048-2.186.143L15.637.669a.042.042 0 00-.064-.03l-4.727 3.184a.041.041 0 00.01.074l5.392 1.85c.03.01.059-.014.055-.045l-.172-1.315A14.015 14.015 0 0118 4.262c7.707 0 13.971 6.231 13.971 13.885 0 3.142-1.024 6.1-2.97 8.564l1.886 1.47a16.055 16.055 0 003.48-10.034c0-8.969-7.342-16.265-16.367-16.265z"/><path d="M18 7.201C12.046 7.201 7.2 12.046 7.2 18S12.046 28.799 18 28.799s10.799-4.845 10.799-10.8c0-5.953-4.845-10.798-10.8-10.798zm0 20.473c-5.334 0-9.674-4.34-9.674-9.674S12.666 8.326 18 8.326s9.674 4.34 9.674 9.674-4.34 9.674-9.674 9.674z"/><path d="M18 10.55a7.45 7.45 0 100 14.9 7.45 7.45 0 000-14.9zm0 6.887a2.53 2.53 0 012.527 2.528 2.527 2.527 0 01-1.965 2.458v.953h-1.125v-.953a2.528 2.528 0 01-1.964-2.458h1.125c0 .773.63 1.402 1.402 1.402.773 0 1.402-.63 1.402-1.402 0-.774-.629-1.403-1.402-1.403a2.53 2.53 0 01-2.527-2.527c0-1.199.842-2.201 1.964-2.458v-.953h1.125v.953a2.528 2.528 0 011.965 2.458h-1.125c0-.772-.629-1.401-1.402-1.401-.773 0-1.402.629-1.402 1.401 0 .773.63 1.402 1.402 1.402z"/></g></svg>