<svg width="36" height="36" fill="none" xmlns="http://www.w3.org/2000/svg"><path d="M30.19 11.25H5.81a3.56 3.56 0 00-3.56 3.56v.377a.562.562 0 00.563.563H33.75v-.94a3.56 3.56 0 00-3.56-3.56zm2.868 9H2.942a.692.692 0 00-.692.692v9.247a3.56 3.56 0 003.56 3.561h24.38a3.56 3.56 0 003.56-3.56v-9.248a.692.692 0 00-.692-.692zM21.375 22.5h3.313a1.165 1.165 0 011.187.934 1.126 1.126 0 01-1.125 1.316h-3.313a1.165 1.165 0 01-1.187-.934 1.126 1.126 0 011.125-1.316zm-4.573 4.095a3.374 3.374 0 01-4.99 2.194 3.374 3.374 0 01-4.994-2.25 3.375 3.375 0 013.307-4.039 3.34 3.34 0 011.688.461 3.375 3.375 0 014.989 3.64v-.006zm5.372 2.323a1.125 1.125 0 01-1.421.14 1.125 1.125 0 01-.171-1.726 1.158 1.158 0 011.592 0 1.125 1.125 0 010 1.586zm5.951.332h-3.313a1.165 1.165 0 01-1.187-.934A1.125 1.125 0 0124.75 27h3.313a1.165 1.165 0 011.187.934 1.125 1.125 0 01-1.125 1.316zm.793-4.832a.816.816 0 01-.169.14.953.953 0 01-.405.169A1.125 1.125 0 0127 23.625a.97.97 0 010-.22 1.099 1.099 0 01.31-.574 1.126 1.126 0 01.366-.248 1.125 1.125 0 01.647-.062 1.012 1.012 0 01.404.17.81.81 0 01.169.14 1.126 1.126 0 01.354.794 1.12 1.12 0 01-.332.793zM22.32 2.666L11.35 9h18.225l-2.998-5.192a3.122 3.122 0 00-4.258-1.142z" fill="#0088CF"/></svg>