<svg width="40" height="40" fill="none" xmlns="http://www.w3.org/2000/svg"><path d="M34.844 10.14h-6.845a3.863 3.863 0 00.195-3.756 3.84 3.84 0 00-3.468-2.157c-.595 0-1.168.134-1.705.398-1.303.642-2.317 1.89-3.022 3.024-.706-1.135-1.719-2.383-3.022-3.025a3.83 3.83 0 00-1.704-.397 3.842 3.842 0 00-3.47 2.157A3.862 3.862 0 0012 10.14H5.156c-.687 0-1.25.562-1.25 1.25v6.484c0 .687.563 1.25 1.25 1.25h.341v14.238a2.41 2.41 0 002.41 2.411h24.185a2.41 2.41 0 002.41-2.41v-14.24h.342c.687 0 1.25-.562 1.25-1.25V11.39c0-.688-.563-1.25-1.25-1.25zM24.126 6.867a1.385 1.385 0 011.826.622 1.367 1.367 0 01-.62 1.827c-.518.255-1.189.384-1.997.384-.354 0-.693-.03-1.02-.068a2.42 2.42 0 00-.246-.566c.539-.887 1.255-1.804 2.057-2.199zm-10.079.621a1.357 1.357 0 011.826-.62c.802.394 1.518 1.311 2.057 2.198a2.393 2.393 0 00-.246.566 8.588 8.588 0 01-1.019.068c-.807 0-1.48-.13-1.996-.383a1.368 1.368 0 01-.622-1.829zm4.755 25.16H8.622v-5.672h10.18v5.672zm-10.18-8.172v-5.353h10.18v5.353H8.622zm22.756 8.172h-10.18v-5.672h10.18v5.672zm0-8.172h-10.18v-5.353h10.18v5.353z" fill="#0088CF"/></svg>