<svg width="41" height="41" fill="none" xmlns="http://www.w3.org/2000/svg"><g clip-path="url(#clip0_233_496)"><path d="M20.671 3.417c-.342 0-.854.17-1.196.512L16.06 7.004l-4.271-.683c-1.025-.17-1.88.512-2.05 1.537l-.684 4.271-3.929 2.05c-.854.513-1.196 1.538-.854 2.392l2.05 3.93-1.88 3.928c-.34.854 0 1.88.684 2.392l3.93 2.05.683 4.27c.17 1.026 1.025 1.538 2.05 1.538l4.27-.683 3.076 3.075c.683.683 1.708.683 2.391 0l3.075-3.075 4.271.683c1.025.171 1.88-.512 2.05-1.537l.683-4.271 3.93-2.05c.854-.513 1.195-1.538.683-2.392L34.679 20.5l1.88-3.93c.341-.853 0-1.878-.684-2.39l-3.929-2.05-.683-4.272c-.171-1.025-1.025-1.537-2.05-1.537l-4.271.683-3.075-3.075c-.342-.341-.854-.512-1.196-.512zm-3.758 8.541c1.025 0 1.879.342 2.391 1.025.684.684.855 1.367.855 2.392v.854c0 1.025-.342 1.88-.855 2.392-.512.683-1.366 1.025-2.391 1.025s-1.88-.342-2.392-.854a4.196 4.196 0 01-.854-2.563v-.854c0-1.025.342-1.708.854-2.392.513-.683 1.367-1.025 2.392-1.025zm0 1.709c-.342 0-.684.341-.854.512-.171.342-.342.684-.342 1.196v.854c0 .513.17.854.342 1.196a.94.94 0 00.854.513.94.94 0 00.854-.513c.17-.342.342-.683.342-1.196v-.854c0-.512-.171-.854-.342-1.196a.94.94 0 00-.854-.512zm6.32 0l1.538.854-7.004 12.983-1.538-.854 7.005-12.983zm.855 7.687c1.025 0 1.879.342 2.391 1.025.513.684.855 1.538.855 2.392v.854c0 1.025-.342 1.88-.855 2.392-.512.512-1.366 1.025-2.391 1.025s-1.88-.342-2.392-1.025c-.512-.684-.854-1.538-.854-2.392v-.854c0-1.025.342-1.708.854-2.392.513-.683 1.367-1.025 2.392-1.025zm0 1.709a.94.94 0 00-.854.512c-.171.342-.342.683-.342 1.196v.854c0 .513.17.854.342 1.196a.94.94 0 00.854.512c.512 0 .683-.17.854-.512.17-.342.17-.683.17-1.196v-.854c0-.513-.17-.854-.34-1.196 0-.342-.343-.512-.684-.512z" fill="#0088CF"/></g><defs><clipPath id="clip0_233_496"><path fill="#fff" d="M0 0h41v41H0z"/></clipPath></defs></svg>