<svg width="78" height="78" fill="none" xmlns="http://www.w3.org/2000/svg"><path d="M5.836 78h5.115a2.565 2.565 0 002.557-2.557V29.41a2.565 2.565 0 00-2.557-2.557H5.836A2.565 2.565 0 003.28 29.41v46.033A2.565 2.565 0 005.836 78z" fill="#32902D"/><path d="M69.77 25.574H42.662c-.383 0-.767-.256-1.023-.512-.256-.383-.256-.767-.128-1.15l2.43-7.161c1.023-3.325 1.534-6.777 1.534-10.358 0-3.58-2.813-6.393-6.393-6.393-3.58 0-6.394 2.813-6.394 6.393 0 3.07-.895 6.138-2.685 8.696l-1.023 1.534c-3.58 5.498-8.567 9.974-14.193 13.17v-5.498c0-2.174-1.662-3.836-3.836-3.836H5.836C3.662 20.459 2 22.12 2 24.295v46.033c0 2.173 1.662 3.836 3.836 3.836h5.115c2.174 0 3.836-1.663 3.836-3.836V64.7l5.626 2.814c1.918 1.022 4.092 1.534 6.266 1.534h27.747c3.58 0 6.393-2.813 6.393-6.394a6.574 6.574 0 00-1.278-3.836c3.58 0 6.393-2.813 6.393-6.393a6.574 6.574 0 00-1.278-3.836c3.58 0 6.393-2.813 6.393-6.393a6.575 6.575 0 00-1.279-3.837c3.58 0 6.394-2.813 6.394-6.393 0-3.58-2.813-6.393-6.394-6.393zm-10.23 10.23c-2.173 0-3.835-1.663-3.835-3.837 0-2.174 1.662-3.836 3.836-3.836h1.279v7.672h-1.28zm-5.114 10.229c-2.174 0-3.836-1.663-3.836-3.836 0-2.174 1.662-3.837 3.836-3.837h1.279v7.673h-1.279zm-5.115 10.23c-2.173 0-3.836-1.663-3.836-3.837 0-2.174 1.663-3.836 3.836-3.836h1.279v7.672h-1.279zm-5.114 10.229c-2.174 0-3.837-1.663-3.837-3.837 0-2.173 1.663-3.836 3.837-3.836h1.278v7.673h-1.278zM37.803 2.813v3.58c0 2.558-1.79 3.453-2.94 3.709.255-1.28.383-2.43.383-3.709 0-1.662 1.023-3.068 2.557-3.58zM12.23 70.328c0 .767-.512 1.278-1.28 1.278H5.837c-.767 0-1.279-.511-1.279-1.278V24.295c0-.767.512-1.279 1.279-1.279h5.115c.767 0 1.278.512 1.278 1.279v46.033zm9.334-5.115l-6.777-3.325V32.734c6.521-3.452 12.275-8.439 16.367-14.705l1.023-1.534c.767-1.15 1.407-2.43 1.918-3.708 2.174 0 6.266-1.535 6.266-6.394v-3.58c1.534.512 2.557 1.918 2.557 3.58 0 3.197-.512 6.522-1.535 9.59l-2.429 7.161c-.384 1.151-.256 2.43.511 3.453a3.813 3.813 0 003.07 1.534h11.891a6.575 6.575 0 00-1.279 3.836c0 1.407.512 2.813 1.279 3.836-3.58 0-6.393 2.813-6.393 6.394 0 1.406.511 2.813 1.278 3.836-3.58 0-6.393 2.813-6.393 6.393 0 1.407.511 2.813 1.279 3.836-3.58 0-6.394 2.813-6.394 6.394 0 1.406.512 2.813 1.279 3.836H26.679c-1.663 0-3.453-.384-5.115-1.28zm36.698-2.557c0 2.173-1.662 3.836-3.836 3.836h-6.393v-7.673h6.393c2.174 0 3.836 1.663 3.836 3.837zm5.115-10.23c0 2.174-1.663 3.836-3.836 3.836h-6.394V48.59h6.394c2.174 0 3.836 1.662 3.836 3.836zm5.115-10.23c0 2.174-1.663 3.837-3.837 3.837h-6.393V38.36h6.394c2.173 0 3.836 1.662 3.836 3.836zm1.278-6.393h-6.394v-7.672h6.394c2.174 0 3.836 1.662 3.836 3.836s-1.662 3.836-3.836 3.836z" fill="#274342"/><path d="M8.393 69.05a1.279 1.279 0 100-2.558 1.279 1.279 0 000 2.557zm30.689-38.362c-.767 0-1.278.512-1.278 1.28A16.59 16.59 0 0121.18 48.59c-.767 0-1.279.511-1.279 1.279 0 .767.512 1.278 1.279 1.278 10.613 0 19.18-8.567 19.18-19.18 0-.767-.511-1.279-1.279-1.279zM69.77 29.41c-.767 0-1.279.512-1.279 1.279v2.557c0 .767.512 1.279 1.279 1.279.767 0 1.279-.512 1.279-1.279v-2.557c0-.767-.512-1.279-1.28-1.279zm-5.115 15.344c.767 0 1.279-.511 1.279-1.279v-2.557c0-.767-.511-1.279-1.279-1.279-.767 0-1.278.512-1.278 1.28v2.556c0 .768.511 1.28 1.278 1.28zm-5.115 10.23c.768 0 1.28-.512 1.28-1.28v-2.556c0-.768-.512-1.28-1.28-1.28-.766 0-1.278.512-1.278 1.28v2.557c0 .767.512 1.279 1.279 1.279zm-5.114 10.229c.767 0 1.279-.511 1.279-1.279v-2.557c0-.767-.511-1.279-1.279-1.279-.767 0-1.278.512-1.278 1.279v2.557c0 .768.511 1.279 1.278 1.279z" fill="#274342"/></svg>