<svg width="39" height="27" fill="none" xmlns="http://www.w3.org/2000/svg"><path d="M34 26.5v-5a2 2 0 00-2-2h-8m-19 7v-5a2 2 0 012-2h8" stroke="#274342"/><path d="M17 17h5v4h-5v-4zM27 7h4v8h-4V7z" fill="#32902D"/><path d="M1 26L18.685 1.145a1 1 0 011.63 0L38 26" stroke="#274342"/><path d="M13 16l5.724-7.045a1 1 0 011.552 0L26 16m1-5.5v-4h4V16" stroke="#274342"/><path d="M24 20v-6a1 1 0 00-1-1h-7a1 1 0 00-1 1v6" stroke="#274342"/><rect x="17.5" y="15.5" width="4" height="4" rx=".5" stroke="#274342"/><path stroke="#274342" stroke-dasharray="3 3" d="M5 26h29"/></svg>