<svg width="76" height="76" fill="none" xmlns="http://www.w3.org/2000/svg"><path d="M73.948 11.846h-1.393v-1.393a1.392 1.392 0 10-2.786 0v1.393h-1.393a1.392 1.392 0 100 2.786h1.393v1.392a1.392 1.392 0 102.786 0v-1.393h1.393a1.392 1.392 0 100-2.786z" fill="#274342"/><path d="M37.733 52.239H15.447v16.714h22.286V52.239zm19.5-33.429h-5.571a2.785 2.785 0 00-2.786 2.786v2.785l11.143 11.143V21.596a2.785 2.785 0 00-2.786-2.786zM46.298 4.668a4.184 4.184 0 004.178 4.178 4.184 4.184 0 004.179-4.178A4.184 4.184 0 0050.476.489a4.184 4.184 0 00-4.178 4.179zm5.571 0a1.393 1.393 0 11-2.787-.001 1.393 1.393 0 012.787 0z" fill="#32902D"/><path d="M66.983 38.887l3.194 3.194a1.39 1.39 0 001.97 0 1.391 1.391 0 000-1.97L61.412 29.376V16.024a4.184 4.184 0 00-4.179-4.178h-5.571c-2.126 0-3.865 1.6-4.126 3.655l-8.818-8.818a1.391 1.391 0 00-1.97 0L3.32 40.11a1.391 1.391 0 000 1.97 1.391 1.391 0 001.97 0l3.193-3.194v32.852a4.184 4.184 0 004.179 4.178h50.143a4.184 4.184 0 004.178-4.178V38.887zM50.27 16.024c0-.768.624-1.392 1.393-1.392h5.571c.77 0 1.393.624 1.393 1.392v10.567l-8.357-8.358v-2.209zM37.733 9.637L47.89 19.794l.004.004 11.139 11.138.004.005 3.193 3.192H13.24L37.733 9.637zm15.322 63.495h-8.357v-19.5h8.357v19.5zm11.143-1.393c0 .769-.624 1.393-1.393 1.393H55.84V52.239c0-.77-.622-1.393-1.392-1.393H43.305c-.77 0-1.393.623-1.393 1.393v20.893h-29.25a1.394 1.394 0 01-1.393-1.393V38.31c0-.769.625-1.393 1.393-1.393h50.143c.769 0 1.393.624 1.393 1.393v33.43z" fill="#274342"/><path d="M37.733 45.274H15.448c-.77 0-1.393.623-1.393 1.393v16.715c0 .77.624 1.392 1.393 1.392h22.285c.77 0 1.393-.622 1.393-1.392V46.666c0-.77-.624-1.393-1.393-1.393zM36.341 61.99h-19.5V48.06h19.5v13.929zM.66 22.39a6.972 6.972 0 006.964 6.964 6.972 6.972 0 006.964-6.964 6.972 6.972 0 00-6.964-6.965A6.972 6.972 0 00.66 22.39zm11.142 0a4.184 4.184 0 01-4.178 4.178 4.184 4.184 0 01-4.179-4.178 4.184 4.184 0 014.179-4.179 4.184 4.184 0 014.178 4.179zM7.327 10.506a4.184 4.184 0 004.18-4.179 4.184 4.184 0 00-4.18-4.178A4.184 4.184 0 003.15 6.327a4.184 4.184 0 004.178 4.18zm0-5.571c.768 0 1.393.624 1.393 1.393 0 .768-.625 1.392-1.393 1.392a1.394 1.394 0 01-1.392-1.393c0-.768.625-1.392 1.393-1.392z" fill="#274342"/></svg>