<svg width="29" height="29" fill="none" xmlns="http://www.w3.org/2000/svg"><path d="M21.821 12V0m2.25.75L21.821 3 19.571.75m4.5 10.5L21.821 9l-2.25 2.25M16.625 9l10.393-6m.475 2.324L24.42 4.5l.823-3.074M18.4 10.573l.823-3.073-3.073-.824M16.625 3l10.393 6m-1.775 1.573L24.42 7.5l3.073-.824M16.15 5.324l3.073-.824-.823-3.074" stroke="#274342"/><path d="M8.033 19a1.5 1.5 0 011.5-1.5h8.934a1.5 1.5 0 011.5 1.5v9.5H8.033V19z" fill="#32902D" stroke="#274342"/><path d="M5.18 20l8.106-8.271a1 1 0 011.428 0L22.82 20M6.5 3.095V0m3.405 6.5H13M8.908 4.092l2.188-2.188M8.5 8.5l2.596 2.596M6.5 13V9.5M0 6.5h3.095m-1.191 4.596L4.5 8.5M1.903 1.904l2.19 2.189" stroke="#274342"/><circle cx="6.5" cy="6.5" r="3" stroke="#274342"/></svg>