<svg width="78" height="78" fill="none" xmlns="http://www.w3.org/2000/svg"><path d="M22.811 50.038c11.737 0 21.34-9.934 21.34-22.076 0-12.141-9.603-22.075-21.34-22.075-11.736 0-21.34 9.934-21.34 22.075 0 12.142 9.604 22.076 21.34 22.076zm-5.335-38.632c2.935 0 5.335 2.483 5.335 5.518 0 3.036-2.4 5.52-5.335 5.52-2.934 0-5.334-2.484-5.334-5.52 0-3.035 2.4-5.518 5.334-5.518z" fill="#32902D"/><path d="M22.902 45.668c2.963 0 5.927-.538 8.487-1.616l33.544 33.544c.27.27.538.404.943.404h10.777C77.46 78 78 77.461 78 76.653V65.876c0-.404-.135-.674-.404-.943l-5.389-5.389c-.134-.27-.404-.404-.808-.404h-4.041v-4.042c0-.808-.54-1.347-1.348-1.347h-4.04V49.71c0-.808-.539-1.347-1.347-1.347H56.58V44.32c0-.808-.538-1.347-1.347-1.347h-4.041v-4.041c0-.404-.135-.674-.404-.943l-6.601-6.601a22.641 22.641 0 001.616-8.487C45.803 10.238 35.565 0 22.902 0 10.238 0 0 10.104 0 22.767s10.238 22.901 22.902 22.901zm25.595-6.197v4.85c0 .809.54 1.347 1.348 1.347h4.041v4.042c0 .808.539 1.347 1.347 1.347h4.042v4.041c0 .809.538 1.348 1.347 1.348h4.041v4.041c0 .808.54 1.347 1.347 1.347h4.85l4.58 4.58v8.892h-8.89L34.082 42.705c3.772-2.021 6.736-5.12 8.891-8.892l5.523 5.658zM22.902 2.56c11.18 0 20.207 9.025 20.207 20.207 0 11.181-9.026 20.207-20.207 20.207-11.182 0-20.208-9.026-20.208-20.207 0-11.181 9.026-20.207 20.208-20.207z" fill="#274342"/><path d="M17.66 17.66c4.121 0 7.359-2.59 7.359-5.886 0-3.297-3.238-5.887-7.359-5.887-4.12 0-7.358 2.59-7.358 5.887 0 3.296 3.238 5.886 7.358 5.886zm0-9.418c2.502 0 4.416 1.53 4.416 3.532 0 2.001-1.914 3.532-4.416 3.532-2.502 0-4.415-1.53-4.415-3.532s1.914-3.532 4.415-3.532zm47.953 63.503c.246.246.613.368.859.368.245 0 .613-.122.858-.368.49-.49.49-1.226 0-1.717l-4.905-4.905a1.186 1.186 0 00-1.717 0 1.185 1.185 0 000 1.717l4.905 4.905zM38.674 43.09a1.321 1.321 0 000 1.912l16.4 16.4c.272.273.682.41.956.41.273 0 .683-.137.956-.41a1.321 1.321 0 000-1.914L40.587 43.09a1.321 1.321 0 00-1.913 0zM24.327 21.045c-.53-.588-1.324-.588-1.854 0a1.534 1.534 0 000 2.06L33.069 34.88c.265.295.662.442.927.442s.662-.147.927-.442c.53-.588.53-1.471 0-2.06L24.327 21.045zm-.167 7.285a1.186 1.186 0 00-1.717 0c-.49.49-.49 1.227 0 1.717l4.906 4.906c.245.245.613.368.859.368.245 0 .613-.123.858-.368.49-.49.49-1.227 0-1.717L24.16 28.33zm9.076.662c.245.295.613.442.858.442.246 0 .614-.147.859-.442.49-.588.49-1.471 0-2.06l-4.906-5.887c-.49-.588-1.226-.588-1.717 0a1.626 1.626 0 000 2.06l4.906 5.887zm-9.584 10.744c.82 0 1.367-.547 1.367-1.367s-.547-1.366-1.367-1.366A14.99 14.99 0 018.62 21.97c0-.82-.547-1.366-1.367-1.366s-1.366.546-1.366 1.366a17.73 17.73 0 0017.765 17.766z" fill="#274342"/></svg>