<svg width="79" height="80" fill="none" xmlns="http://www.w3.org/2000/svg"><path d="M39.393 16.925h0a5.417 5.417 0 005.407-5.408v0a5.409 5.409 0 10-5.407 5.408zM7.842 30.071h0a5.417 5.417 0 005.407-5.408v0a5.408 5.408 0 10-5.407 5.408zm31.551 12.27h0a5.418 5.418 0 005.407-5.408v0a5.409 5.409 0 10-5.407 5.408zm0 36.809h0a5.417 5.417 0 005.407-5.408v0a5.408 5.408 0 10-5.407 5.408zM6.527 66.88h0a4.979 4.979 0 004.97-4.97v0a4.97 4.97 0 10-4.97 4.97zm65.73 0h0a4.979 4.979 0 004.97-4.97v0a4.97 4.97 0 10-4.97 4.97zm-1.314-36.809h0a5.417 5.417 0 005.408-5.408v0a5.409 5.409 0 10-5.408 5.408z" fill="#32902D" stroke="#32902D" stroke-width=".3"/><path d="M71.17 53.768a1.25 1.25 0 002.133-.884V24.591a1.25 1.25 0 10-2.5 0v28.293c0 .332.132.65.366.884zM43.642 32.15h0a1.25 1.25 0 01-.447-2.418l.447 2.419zm0 0c.152 0 .302-.028.444-.082h0l23.115-8.808h0a1.25 1.25 0 10-.89-2.337l-23.116 8.81.447 2.418zm-5.205 33.615a1.25 1.25 0 002.133-.883V37.315a1.25 1.25 0 00-2.5 0v27.567c0 .33.132.649.367.883zm15.95-.312h0c.152-.001.302-.029.444-.083h0l2.252-.858a1.25 1.25 0 00.718-.651l-.136-.064.136.064a1.253 1.253 0 00-.636-1.674 1.25 1.25 0 00-.97-.01l-2.252.856s0 0 0 0a1.25 1.25 0 00.444 2.42zm-10.59 4.034h0a1.25 1.25 0 01-1.09-1.863l.128.072-.127-.072a1.25 1.25 0 01.645-.555l.444 2.418zm0 0c.152 0 .302-.027.444-.08h0l5.145-1.958a1.25 1.25 0 10-.888-2.335l-5.145 1.955.444 2.418zm18.278-6.961c.152 0 .303-.028.446-.082 0 0 0 0 0 0l5.597-2.133h0a1.25 1.25 0 10-.89-2.336s0 0 0 0l-5.598 2.133s0 0 0 0a1.25 1.25 0 00.445 2.418zm0 0s0 0 0 0v-.15.15s0 0 0 0z" fill="#274342" stroke="#274342" stroke-width=".3"/><path d="M38.437 65.765a1.25 1.25 0 002.133-.883V37.315a1.25 1.25 0 00-2.5 0v27.567c0 .33.132.649.367.883zM35 32.15h0c-.152 0-.303-.028-.445-.082h0l-23.11-8.808h0a1.25 1.25 0 11.89-2.337s0 0 0 0l23.115 8.81L35 32.15zm0 0h.004m-.004 0h.004m0 0a1.25 1.25 0 00.447-2.418l-.447 2.419zm-.16 37.338a1.25 1.25 0 00.445-2.419l-23.875-9.094s0 0 0 0a1.25 1.25 0 10-.89 2.336h0l23.875 9.095h0c.143.054.293.081.445.082zm0 0v-.15m0 .15s0 0 0 0v-.15m0 0c-.133 0-.266-.025-.392-.072l.784-2.056a1.099 1.099 0 01-.391 2.128zM7.842 24.59h0v28.296a1.25 1.25 0 01-2.5 0V24.61h.15l2.35-.022zm0 0a1.24 1.24 0 00-1.251-1.24l1.251 1.24zm4.02-5.33a1.25 1.25 0 01-.455-2.414s0 0 0 0l22.66-8.868a1.25 1.25 0 11.908 2.329l-22.652 8.866s0 0 0 0a1.25 1.25 0 01-.461.088zm0 0s0 0 0 0v-.15.15s0 0 0 0zm54.918 0h0c-.157 0-.311-.03-.457-.087l-22.658-8.867s0 0 0 0a1.25 1.25 0 01.91-2.328h0l22.663 8.868-.458 2.414zm0 0h.003m-.003 0l.458-2.414a1.25 1.25 0 01-.455 2.414m0 0v-.15.15h0z" fill="#274342" stroke="#274342" stroke-width=".3"/><path d="M39.32 13.665h0a6.419 6.419 0 006.407-6.407v0a6.408 6.408 0 10-6.406 6.407zm-2.17-9.657a3.908 3.908 0 114.34 6.5 3.908 3.908 0 01-4.34-6.5zM7.687 25.989h0a5.92 5.92 0 005.915-5.914v0a5.915 5.915 0 10-5.915 5.914zm-1.898-8.754a3.415 3.415 0 011.898-.575h0a3.418 3.418 0 012.84 5.312 3.416 3.416 0 11-4.738-4.737zm6.718 40.312v0a5.914 5.914 0 10-5.914 5.914h0a5.92 5.92 0 005.914-5.913zm-7.81-2.838a3.414 3.414 0 011.814-.575h.082a3.419 3.419 0 013.415 3.414 3.414 3.414 0 11-5.311-2.84zm66.257-28.72h0a5.921 5.921 0 005.914-5.914v0a5.916 5.916 0 10-5.914 5.914zm-1.898-8.754a3.415 3.415 0 113.794 5.68 3.415 3.415 0 01-3.794-5.68zm8.905 40.314v0a5.914 5.914 0 10-5.914 5.912h0a5.92 5.92 0 005.914-5.912zm-7.81-2.84a3.414 3.414 0 011.814-.575h.082a3.419 3.419 0 013.415 3.415 3.415 3.415 0 11-5.311-2.84zM39.32 75.461h0a5.92 5.92 0 005.914-5.913v0a5.915 5.915 0 10-5.913 5.913zm-1.897-8.754a3.415 3.415 0 011.897-.575h0a3.418 3.418 0 012.84 5.313 3.415 3.415 0 11-4.737-4.738zm1.897-28.143h0a5.921 5.921 0 005.914-5.914v0a5.915 5.915 0 10-5.913 5.914zm-1.897-8.754a3.415 3.415 0 011.897-.575h0a3.418 3.418 0 012.84 5.312 3.416 3.416 0 11-4.737-4.737z" fill="#274342" stroke="#274342" stroke-width=".3"/><path d="M52.538 51.61V39.966a1 1 0 011.242-.97l7.763 1.94a1 1 0 01.538 1.596l-7.762 9.703c-.59.738-1.781.32-1.781-.625z" stroke="#274342" stroke-width="3"/></svg>