<svg width="72" height="78" fill="none" xmlns="http://www.w3.org/2000/svg"><path d="M47.458 66.89L11.352 30.528a1.48 1.48 0 00-2.103 0L.754 39.084a1.505 1.505 0 000 2.117l36.107 36.36a1.48 1.48 0 002.102 0l8.495-8.555c.58-.584.58-1.532 0-2.117z" fill="#32902D"/><path fill-rule="evenodd" clip-rule="evenodd" d="M62.392 7.432L64.447 9.5a4.445 4.445 0 01.002 6.254l-.002.002L41.84 38.525a1.486 1.486 0 01-.589.364l.001.002-9.248 3.105a1.492 1.492 0 01-1.875-1.898l3.083-9.314c.071-.214.191-.415.36-.585L56.18 7.432a4.476 4.476 0 016.213 0z" fill="#32902D"/><path fill-rule="evenodd" clip-rule="evenodd" d="M64.446 3.323l-2.054-2.07a4.476 4.476 0 00-6.213 0L45.573 11.934H10.726c-2.464 0-4.46 2.011-4.46 4.492v10.93l-5.512 5.55a1.505 1.505 0 000 2.117l5.512 5.55v14.78c0 2.48 1.996 4.491 4.46 4.491h14.676l11.459 11.54a1.48 1.48 0 002.102 0l8.495-8.556c.58-.585.58-1.532 0-2.117l-.861-.867h13.19v7.486c0 .827.666 1.497 1.487 1.497h4.46c3.284 0 5.947-2.68 5.947-5.988V17.923c0-3.307-2.663-5.989-5.947-5.989h-3.626l2.338-2.355.002-.002a4.445 4.445 0 00-.002-6.254zm-53.72 11.606h31.873l-9.027 9.09c-.17.17-.289.372-.36.586l-3.083 9.314a1.492 1.492 0 001.41 1.97H53.84v-2.994H40.708l.544-.183v-.002c.22-.073.421-.197.587-.364l17.295-17.417h6.6a2.983 2.983 0 012.973 2.994v39.728a5.888 5.888 0 00-2.973-.801h-22.11l-32.272-32.5a1.48 1.48 0 00-2.103 0l-.01.011v-7.935c0-.827.666-1.497 1.487-1.497zm27.31 15.704l-2.76-2.78-1.381 4.172 4.141-1.392zM62.346 7.46l-3.06 3.082-4.063-4.091 3.06-3.082a1.445 1.445 0 012.006 0l2.057 2.068a1.437 1.437 0 010 2.023zM40.788 29.17l16.395-16.51-4.063-4.09-16.395 16.51 4.063 4.09zm24.946 30.674a2.984 2.984 0 012.973 2.972v.023a2.983 2.983 0 01-2.973 2.994h-2.973v-5.989h2.973zM9.239 43.567l13.19 13.283H10.726c-.821 0-1.487-.67-1.487-1.497V43.567zm28.673 24.64L3.908 33.965l6.393-6.438 4.055 4.084-3.199 3.22 2.103 2.118 3.198-3.22 3.847 3.873-3.196 3.219 2.102 2.117 3.196-3.219 3.844 3.871-3.196 3.22 2.102 2.117 3.197-3.22 3.843 3.87-3.198 3.221 2.102 2.117 3.198-3.22 3.847 3.874-3.198 3.22 2.103 2.118 3.198-3.22 4.055 4.084-6.392 6.438zm21.875-35.312h-2.973v2.994h2.973v-2.994zm2.974 0h2.973v2.994H62.76v-2.994z" fill="#274342"/></svg>