<svg width="78" height="78" fill="none" xmlns="http://www.w3.org/2000/svg"><path d="M26.172 29.644c-1.507 0-4.091-.143-4.091 1.364v5.455c0 1.507 2.584 4.091 4.091 4.091h3.442c.516 1.364 1.3 3.198 2.324 4.93l-2.433 2.092c-1.065 1.066-1.065 2.622 0 3.687l3.857 3.772c1.065 1.065 2.792 1.023 3.857-.042l1.75-2.455c1.733 1.023 3.567 1.787 4.931 2.302v3.444c0 1.507 2.584 4.09 4.091 4.09h5.456c1.507 0 1.363-2.583 1.363-4.09V54.84c2.728-.515 4.562-1.3 6.294-2.324l2.774 2.433c1.065 1.066 2.962 1.066 4.028 0l3.942-3.856c1.065-1.066 1.108-2.792.043-3.857l-2.413-1.751c1.023-1.732 1.83-3.567 2.344-4.93h3.447c1.507 0 1.363-2.585 1.363-4.092V31.01c0-1.507.144-1.364-1.363-1.364h-3.443c-.515-2.727-1.3-4.562-2.323-6.294l2.433-2.774c1.065-1.065 1.065-2.962 0-4.027l-3.857-3.943c-1.065-1.065-2.792-1.107-3.857-.042l-3.115 2.413c-1.733-1.027-3.568-1.833-6.295-2.349V9.187c0-1.507.143-1.364-1.364-1.364h-5.455c-1.507 0-4.092-.143-4.092 1.364v3.442c-1.363.516-3.198 1.3-4.93 2.324L36.88 12.52c-1.065-1.065-2.621-1.065-3.686 0l-3.772 3.857c-1.066 1.065-1.023 2.792.042 3.857l2.455 3.115c-1.023 1.732-1.787 3.566-2.302 6.293h-3.444v.002zm24.548-6.82c6.026 0 10.91 4.886 10.91 10.911 0 6.026-4.884 10.91-10.91 10.91-6.025 0-10.91-4.885-10.91-10.91s4.885-10.91 10.91-10.91z" fill="#32902D"/><path d="M25.819 22.823c-1.487-.01-3.347-.023-4.403 1.024a2.35 2.35 0 00-.7 1.705v5.455c0 2.244 3.212 5.456 5.456 5.456h2.512c.387.954.897 2.099 1.52 3.262l-1.663 1.433c-.774.772-1.199 1.77-1.199 2.808 0 1.04.427 2.036 1.21 2.818l3.846 3.763c1.582 1.583 4.178 1.564 5.786-.043a1.36 1.36 0 00.146-.172l1.043-1.462c.956.504 2.004.984 3.164 1.45v2.508c0 2.243 3.212 5.455 5.456 5.455h5.455c.66 0 1.249-.242 1.705-.7 1.046-1.055 1.022-2.91 1.022-4.4v-2.691c1.364-.41 3.249-.967 4.757-1.769l1.983 1.736c1.524 1.523 4.446 1.511 5.945.011l3.954-3.868a4.142 4.142 0 001.22-2.872 3.997 3.997 0 00-1.177-2.914 1.605 1.605 0 00-.162-.14l-1.43-1.04a35.641 35.641 0 001.489-3.175h2.514c.66 0 1.25-.242 1.705-.7 1.046-1.054 1.023-2.908 1.023-4.399v-.355l.003-5.8c.005-.687.012-1.335-.52-1.866-.53-.531-1.192-.522-1.866-.52l-2.68.004c-.41-1.747-.968-3.249-1.77-4.757l1.737-1.983c.762-.763 1.198-1.847 1.198-2.979 0-1.132-.436-2.217-1.188-2.967l-3.867-3.954a4.142 4.142 0 00-2.873-1.22 4.06 4.06 0 00-2.846 1.11l-2.337 1.81a19.232 19.232 0 00-4.812-1.816l.003-2.682c.006-.688.012-1.336-.52-1.866-.53-.532-1.187-.524-1.865-.52l-.345.003-5.81-.001C46.15.99 44.291.979 43.236 2.027a2.36 2.36 0 00-.699 1.705v2.513c-.956.387-2.1.897-3.262 1.517l-1.433-1.663c-1.601-1.601-4.014-1.601-5.627.011l-3.76 3.846a4.003 4.003 0 00-1.178 2.914 4.14 4.14 0 001.157 2.811l1.846 2.342c-.801 1.504-1.36 3.018-1.775 4.802l-2.686-.002zm5.136 1.62c.435-2.304 1.074-4.057 2.135-5.854a1.366 1.366 0 00-.102-1.539l-2.455-3.115a1.298 1.298 0 00-.108-.12 1.42 1.42 0 01-.42-.986 1.298 1.298 0 01.388-.953l3.761-3.847c.536-.535 1.226-.535 1.688-.075l2.093 2.433c.432.5 1.159.622 1.727.285 1.705-1.005 3.508-1.763 4.72-2.222.531-.2.883-.709.883-1.276V3.913c.492-.196 1.782-.181 2.355-.181h5.828v3.442c0 .654.466 1.219 1.11 1.339 2.26.427 3.956 1.058 5.853 2.18a1.37 1.37 0 001.529-.096l3.115-2.413c.045-.035.089-.073.13-.114.25-.25.523-.4.943-.378.37.005.718.154.974.41l3.87 3.955c.254.254.399.636.399 1.05 0 .413-.145.794-.461 1.114l-2.433 2.773a1.363 1.363 0 00-.149 1.593c1.084 1.836 1.73 3.586 2.158 5.854a1.364 1.364 0 001.34 1.111h3.442l.002 5.828c.004.578.013 1.861-.183 2.355h-3.262c-.568 0-1.075.352-1.277.881-.361.955-1.132 2.838-2.243 4.719a1.365 1.365 0 00.372 1.797l2.31 1.676c.21.242.322.55.317.88-.006.37-.154.717-.41.974l-3.956 3.869c-.506.508-1.523.57-2.163-.062l-2.774-2.433a1.365 1.365 0 00-1.593-.148c-1.835 1.084-3.585 1.729-5.853 2.157a1.364 1.364 0 00-1.107 1.34l.001 3.817c.004.578.014 1.861-.183 2.355h-5.273c-.774-.016-2.712-1.954-2.728-2.727v-3.443c0-.567-.352-1.074-.881-1.276-1.855-.703-3.4-1.421-4.719-2.2a1.36 1.36 0 00-1.803.382l-1.675 2.348c-.544.478-1.362.475-1.87-.032l-3.848-3.765c-.26-.259-.398-.563-.398-.878 0-.312.139-.618.324-.81l2.433-2.092c.502-.43.622-1.16.286-1.728-1.01-1.707-1.765-3.508-2.222-4.719a1.369 1.369 0 00-1.278-.882h-3.442c-.775-.016-2.713-1.954-2.728-2.728v-5.273c.493-.197 1.779-.182 2.355-.182h3.815c.656 0 1.22-.466 1.34-1.11z" fill="#274342"/><path d="M38.446 28.28c0 6.768 5.506 12.274 12.274 12.274 6.769 0 12.274-5.506 12.274-12.274 0-6.768-5.505-12.274-12.274-12.274-6.768 0-12.274 5.506-12.274 12.274zm21.82 0c0 5.263-4.283 9.547-9.546 9.547-5.263 0-9.546-4.284-9.546-9.547 0-5.263 4.283-9.547 9.546-9.547 5.263 0 9.547 4.284 9.547 9.547z" fill="#274342"/><path d="M34.355 29.643c.753 0 1.364-.61 1.364-1.363 0-8.272 6.73-15.002 15.001-15.002a1.363 1.363 0 100-2.728c-9.775 0-17.729 7.954-17.729 17.73 0 .754.61 1.363 1.364 1.363zM50.72 43.281a1.363 1.363 0 100 2.728c9.776 0 17.73-7.954 17.73-17.73a1.363 1.363 0 10-2.728 0c0 8.272-6.73 15.002-15.002 15.002zm-34.76 7.842a2.35 2.35 0 00-.699 1.705v2.513c-.956.388-2.1.898-3.262 1.517l-1.433-1.663c-1.601-1.6-4.014-1.6-5.627.011l-3.76 3.846A4.003 4.003 0 000 61.967a4.136 4.136 0 001.224 2.876l1.728 1.713c-.933 1.85-1.563 3.886-1.945 5.365a1.365 1.365 0 002.642.682c.57-2.212 1.339-4.2 2.165-5.6a1.364 1.364 0 00-.214-1.662l-2.45-2.43a1.42 1.42 0 01-.42-.985 1.298 1.298 0 01.388-.954l3.761-3.847c.535-.535 1.226-.533 1.689-.075l2.092 2.433c.43.5 1.16.622 1.728.285 1.704-1.005 3.506-1.763 4.719-2.221.531-.201.882-.71.882-1.277v-3.262c.492-.195 1.777-.18 2.355-.18h5.828v3.442c0 .655.466 1.22 1.11 1.34 2.26.426 3.956 1.057 5.853 2.179.48.282 1.086.246 1.529-.096l3.115-2.412c.045-.036.088-.074.13-.115.249-.25.57-.38.943-.378.37.006.72.154.975.41l3.868 3.956c.255.253.4.635.4 1.048 0 .414-.145.796-.461 1.115L41.2 66.09a1.363 1.363 0 00-.149 1.593c1.084 1.835 1.73 3.585 2.157 5.853a1.364 1.364 0 001.341 1.111h3.442c1.364 0 1.364.444 1.364.682a1.363 1.363 0 102.728 0c0-1.648-1.075-3.41-4.092-3.41h-2.336c-.409-1.746-.967-3.248-1.769-4.756l1.736-1.983c.763-.762 1.2-1.847 1.2-2.978 0-1.133-.437-2.218-1.189-2.968l-3.867-3.954c-1.587-1.583-4.131-1.623-5.719-.109l-2.337 1.81a19.186 19.186 0 00-4.812-1.817l.002-2.682c.005-.688.012-1.335-.519-1.866-.53-.53-1.175-.518-1.865-.52l-.345.003-5.809-.001c-1.484-.014-3.346-.023-4.402 1.024z" fill="#274342"/><path d="M13.312 73.102a1.361 1.361 0 001.863-.5 9.542 9.542 0 011.519-1.976c3.722-3.722 9.778-3.722 13.5 0a9.642 9.642 0 011.52 1.976 1.363 1.363 0 102.363-1.364 12.237 12.237 0 00-1.953-2.54c-4.786-4.788-12.573-4.788-17.358 0a12.31 12.31 0 00-1.955 2.541 1.364 1.364 0 00.5 1.863z" fill="#274342"/><path d="M23.444 62.374a1.363 1.363 0 100-2.727c-7.502 0-14.221 4.75-16.72 11.82a1.361 1.361 0 001.286 1.818c.562 0 1.088-.35 1.286-.91 2.114-5.982 7.8-10 14.148-10z" fill="#274342"/></svg>