<svg width="78" height="74" fill="none" xmlns="http://www.w3.org/2000/svg"><path d="M25.552 34.043C32.979 34.043 39 28.022 39 20.595c0-7.428-6.02-13.449-13.448-13.449-7.427 0-13.448 6.021-13.448 13.449 0 7.427 6.02 13.448 13.448 13.448z" fill="#32902D"/><path d="M57.827 32.698c-2.286 0-4.034 1.748-4.034 4.035 0 2.286 1.748 4.034 4.034 4.034 2.287 0 4.035-1.748 4.035-4.035 0-2.286-1.748-4.034-4.035-4.034zm0 5.38c-.806 0-1.344-.539-1.344-1.346 0-.806.538-1.344 1.344-1.344.807 0 1.345.538 1.345 1.345 0 .806-.538 1.344-1.345 1.344zM39 64.974c-13.852 0-25.552-9.28-25.552-20.172 0-.807-.538-1.345-1.345-1.345-.806 0-1.344.538-1.344 1.345 0 12.372 12.91 22.862 28.241 22.862.807 0 1.345-.538 1.345-1.345 0-.807-.538-1.345-1.345-1.345zM25.552 30.009a14.75 14.75 0 0014.793-14.794A14.75 14.75 0 0025.552.422a14.75 14.75 0 00-14.793 14.793A14.75 14.75 0 0025.552 30.01zm0-26.897c6.724 0 12.103 5.38 12.103 12.103 0 6.724-5.38 12.104-12.103 12.104a12.053 12.053 0 01-12.104-12.104c0-6.724 5.38-12.103 12.104-12.103z" fill="#274342"/><path d="M73.966 38.077H72.62c-.538 0-1.076-.403-1.21-.941-2.287-6.859-7.666-12.776-14.928-16.541v-8.07c0-.537-.27-1.075-.807-1.21-.538-.269-1.076-.134-1.48.27l-6.051 6.051c-1.21-.269-2.555-.538-3.766-.672-.672-.135-1.344.403-1.479 1.076-1.48 8.472-8.741 14.658-17.348 14.658-4.438 0-8.607-1.614-11.835-4.572a1.452 1.452 0 00-.941-.404c-.404 0-.673.135-.941.404-3.9 4.572-6.052 9.817-6.456 15.33-.538-.134-1.21-.403-1.613-.94-.673-.673-1.076-1.749-1.076-3.094v-5.514c0-.134 0-1.748.941-2.958.672-.538 1.748-.942 3.093-.942.807 0 1.345-.537 1.345-1.344s-.538-1.345-1.345-1.345c-2.152 0-3.765.672-4.976 1.883C0 31.084 0 33.639 0 34.042v5.38c0 2.152.672 3.766 1.883 4.976 1.076 1.076 2.555 1.48 3.496 1.614.27 5.648 2.555 11.162 6.59 15.734l-1.21 4.17c-.135.537 0 .94.403 1.344l5.38 5.38a1.3 1.3 0 001.882 0l3.497-3.497c5.245 2.555 11.027 3.9 17.079 3.9 6.052 0 11.834-1.345 17.08-3.9l3.496 3.496c.269.27.672.404.941.404.27 0 .673-.135.942-.404l5.379-5.379c.403-.403.538-.807.403-1.345l-1.344-4.169c2.555-2.824 4.303-5.917 5.513-9.279.135-.538.673-.941 1.21-.941h1.346c2.286 0 4.034-1.749 4.034-4.035v-5.38c0-2.285-1.748-4.034-4.034-4.034zm1.344 9.414c0 .807-.538 1.345-1.344 1.345H72.62c-1.749 0-3.228 1.076-3.766 2.69-1.076 3.227-2.958 6.186-5.38 8.876-.268.403-.403.806-.268 1.344l1.21 4.17-3.9 3.9-3.227-3.228a1.432 1.432 0 00-1.614-.27C50.7 69.009 44.917 70.354 39 70.354c-5.917 0-11.7-1.344-16.676-4.034-.134-.135-.403-.135-.672-.135-.404 0-.673.135-.942.404l-3.227 3.227-3.9-3.9 1.21-4.169c.135-.403 0-.941-.269-1.344-4.169-4.438-6.455-9.818-6.455-15.6 0-4.976 1.748-9.683 4.976-13.852 3.63 2.824 7.934 4.438 12.507 4.438 9.413 0 17.483-6.455 19.634-15.6 1.076.134 2.017.403 2.959.672.403.135.941 0 1.345-.403l4.303-4.304v5.783c0 .538.27.941.807 1.21 6.993 3.363 12.103 8.876 14.255 15.331.538 1.614 2.017 2.69 3.766 2.69h1.345c.806 0 1.344.538 1.344 1.345v5.38z" fill="#274342"/><path d="M43.438 43.86l-5.38 5.38a1.3 1.3 0 000 1.882c.27.27.673.404.942.404.269 0 .672-.135.941-.404l5.38-5.38a1.3 1.3 0 000-1.882 1.3 1.3 0 00-1.883 0zm0-5.38L32.68 49.24a1.3 1.3 0 000 1.882c.27.27.673.404.942.404.269 0 .672-.135.941-.404l10.759-10.758a1.3 1.3 0 000-1.883 1.3 1.3 0 00-1.883 0zm-9.818 7.666c.404 0 .673-.134.942-.403l5.38-5.38a1.3 1.3 0 000-1.882 1.3 1.3 0 00-1.883 0l-5.38 5.38a1.3 1.3 0 000 1.882c.27.269.538.403.942.403zM25.552 24.63a9.356 9.356 0 009.414-9.415c0-.806-.538-1.344-1.345-1.344-.807 0-1.345.537-1.345 1.344 0 3.766-2.959 6.725-6.724 6.725-.807 0-1.345.537-1.345 1.344s.538 1.345 1.345 1.345z" fill="#274342"/></svg>