<svg width="78" height="78" fill="none" xmlns="http://www.w3.org/2000/svg"><path d="M49.405 44.298c2.808-2.298 4.723-5.872 4.723-9.83V8.936a2.56 2.56 0 00-2.553-2.553H26.043a2.56 2.56 0 00-2.553 2.553v25.532c0 3.958 1.787 7.532 4.723 9.83a15.626 15.626 0 015.49 11.872v.128c0 6-2.681 11.617-7.15 15.574-1.914 1.66-3.063 3.83-3.063 6.128h30.638c0-2.298-1.149-4.468-3.064-6.128-4.468-3.957-7.149-9.574-7.149-15.574v-.128c0-4.596 2.043-8.936 5.49-11.872z" fill="#32902D"/><path d="M50.298 40.213c3.319-2.681 5.106-6.639 5.106-10.851v-1.405c5.745-.638 10.213-5.489 10.213-11.361 0-5.873-4.468-10.724-10.213-11.362V3.83c0-2.17-1.66-3.83-3.83-3.83H26.043c-2.17 0-3.83 1.66-3.83 3.83v1.404C16.468 5.872 12 10.724 12 16.596s4.468 10.723 10.213 11.361v1.405c0 4.212 1.915 8.17 5.106 10.85 3.192 2.682 5.107 6.511 5.107 10.852 0 5.49-2.426 10.723-6.766 14.553-1.915 1.66-3.064 3.702-3.32 5.745h-9.063c-.766 0-1.277.51-1.277 1.276s.51 1.277 1.277 1.277H64.34c.766 0 1.277-.51 1.277-1.277 0-.766-.51-1.276-1.277-1.276h-9.064c-.382-2.17-1.531-4.085-3.319-5.745-4.34-3.83-6.766-9.064-6.766-14.68 0-4.086 1.788-8.043 5.107-10.724zm12.766-23.617c0 4.468-3.32 8.17-7.66 8.808V7.787c4.34.639 7.66 4.34 7.66 8.809zm-48.51 0c0-4.468 3.318-8.17 7.659-8.809v17.745c-4.34-.766-7.66-4.468-7.66-8.936zM42.637 51.19c0 5.617 2.298 11.107 6.383 15.192H38.81c-.767 0-1.277.51-1.277 1.276s.51 1.277 1.277 1.277h12.638c.51.766 1.021 1.532 1.276 2.553h-27.83c.256-1.021.767-1.787 1.277-2.553h7.532c.766 0 1.277-.51 1.277-1.277 0-.766-.51-1.276-1.277-1.276h-5.106c4.085-4.213 6.383-9.575 6.383-15.32 0-4.978-2.17-9.701-6-12.765-2.681-2.17-4.213-5.49-4.213-8.936V3.83c0-.766.51-1.277 1.277-1.277h25.531c.766 0 1.277.51 1.277 1.277v25.532c0 3.447-1.532 6.766-4.213 8.936-3.83 3.064-6 7.787-6 12.893z" fill="#274342"/><path d="M38.808 45.957c-.766 0-1.277.511-1.277 1.277v5.106c0 .766.51 1.277 1.277 1.277.766 0 1.276-.51 1.276-1.277v-5.106c0-.766-.51-1.277-1.276-1.277zm4.212-35.362L32.807 20.808c-.51.51-.51 1.277 0 1.788.255.255.638.383.894.383.255 0 .638-.128.893-.383l10.213-10.213c.51-.51.51-1.277 0-1.787a1.234 1.234 0 00-1.787 0zm-9.32 7.277c.384 0 .639-.128.894-.383l5.107-5.106c.51-.51.51-1.277 0-1.787a1.234 1.234 0 00-1.788 0l-5.106 5.106c-.51.51-.51 1.277 0 1.787.255.255.51.383.894.383zm9.32-2.17l-5.106 5.106c-.51.51-.51 1.277 0 1.787.255.256.638.383.894.383.255 0 .638-.127.893-.383l5.107-5.106c.51-.51.51-1.277 0-1.787a1.234 1.234 0 00-1.788 0z" fill="#274342"/></svg>