<svg width="82" height="79" fill="none" xmlns="http://www.w3.org/2000/svg"><path d="M19.828 62.73l16.157 15.6V48.245l-16.157-15.6V62.73zm35.656-1.117L72.5 78V47.914L55.484 31.527v30.086z" fill="#32902D"/><path d="M80 41C80 19.46 62.54 2 41 2S2 19.46 2 41c0 13.809 7.177 25.941 18.004 32.871m0 0H7.57m12.433 0V62.73" stroke="#274342" stroke-width="3"/><path d="M37.1 6.457L18.716 24.843 37.1 42.67l18.385-17.828L37.101 6.457zM18.715 54.93L37.1 72.758V42.672L18.715 24.844V54.93zm18.387 17.827h18.385L37.102 54.37v18.386zM55.484 54.93V24.844l17.829 17.828v30.086L55.484 54.93z" stroke="#274342" stroke-width="3" stroke-linejoin="round"/></svg>