<svg width="78" height="78" fill="none" xmlns="http://www.w3.org/2000/svg"><circle cx="39.5" cy="49.5" r="7.5" fill="#32902D"/><path stroke="#274342" stroke-width="3" d="M0 54.5l78 1m-61.5 3L12 60.621c1.167 1.238 4.5 3.5 8.5 2.652 2 2.12 4.5 4.065 5.5 4.773l-1.5 3.712c1 .53 3.7 1.06 6.5-1.061 4 .849 6.667 1.06 7.5 1.06L39 76c1.167-.177 3.8-1.273 5-4.242 4-1.697 6.333-2.829 7-3.182l2.5 3.182c1.167-.177 3.3-1.803 2.5-6.894 2.8-3.394 4.5-5.303 5-5.834l5 1.591"/><circle cx="39.5" cy="45.5" r="7.5" stroke="#274342" stroke-width="3"/><path d="M64.5 46.063c-.333 2.25-1.1 7.087-1.5 8.437m8.5-9v9m-62-8.438C10.5 48.5 14 53.6 20 54.5" stroke="#274342" stroke-width="3"/><path d="M40 28.897c-8.336 0-17.59 6.363-18.717 16.107C21.156 46.101 20.273 47 19.17 47H6v-4.724a2 2 0 012-2h2.185C11.754 32.517 19.914 17 40 17m0 11.897c8.336 0 17.59 6.363 18.717 16.107.127 1.097 1.01 1.996 2.114 1.996H74v-4.724a2 2 0 00-2-2h-2.185C68.246 32.517 60.086 17 40 17" stroke="#274342" stroke-width="3"/><path d="M12.5 35.5l-4.468-4.25C6.77 30.047 6.2 28.271 6.633 26.583c.86-3.342 2.451-8.036 5.867-12.73a83.088 83.088 0 016.756-8.12c2.149-2.275 5.597-2.633 8.285-1.028C35.513 9.466 46.528 16.117 49.5 18.5M23 9.5l5.5 4" stroke="#274342" stroke-width="3"/></svg>