<svg width="39" height="39" fill="none" xmlns="http://www.w3.org/2000/svg"><g fill="#0088CF"><path d="M11.322 8.806h-6.29L12.581 0v7.548c0 .755-.63 1.258-1.258 1.258z"/><path d="M13.839 7.548V0h12.58a2.523 2.523 0 012.517 2.516 2.523 2.523 0 012.516 2.516 2.524 2.524 0 012.516 2.516v28.936A2.524 2.524 0 0131.452 39H12.58a2.524 2.524 0 01-2.516-2.516 2.524 2.524 0 01-2.517-2.516 2.524 2.524 0 01-2.516-2.516V10.065h6.29a2.524 2.524 0 002.517-2.517zM12.58 37.742h18.87c.63 0 1.259-.503 1.259-1.258V7.548c0-.629-.504-1.258-1.258-1.258v27.678a2.524 2.524 0 01-2.517 2.516h-17.61c0 .629.503 1.258 1.258 1.258zm-2.516-2.516h18.87c.63 0 1.259-.503 1.259-1.258V5.032c0-.629-.504-1.258-1.258-1.258v27.678a2.523 2.523 0 01-2.517 2.516H8.806c0 .629.504 1.258 1.259 1.258z"/></g></svg>