<svg width="49" height="49" fill="none" xmlns="http://www.w3.org/2000/svg"><path d="M38.628 12.27a3.05 3.05 0 00-2.899-2.062h-5.104V6.125h-12.25v4.083h-5.104c-1.348 0-2.47.858-2.9 2.062L6.126 24.5v16.333c0 1.123.919 2.042 2.042 2.042h2.041a2.048 2.048 0 002.042-2.042v-2.041h24.5v2.041c0 1.123.919 2.042 2.042 2.042h2.041a2.048 2.048 0 002.042-2.042V24.5l-4.247-12.23zM13.271 32.667a3.059 3.059 0 01-3.063-3.063 3.058 3.058 0 013.063-3.062 3.058 3.058 0 013.062 3.062 3.058 3.058 0 01-3.062 3.063zm22.458 0a3.058 3.058 0 01-3.062-3.063 3.058 3.058 0 013.062-3.062 3.058 3.058 0 013.063 3.062 3.059 3.059 0 01-3.063 3.063zM10.21 22.458l3.062-9.187H35.73l3.063 9.187H10.208z" fill="#0088CF"/></svg>