<svg width="60" height="60" fill="none" xmlns="http://www.w3.org/2000/svg"><g clip-path="url(#clip0_419_3894)" fill="#0088CF"><path d="M17.061 36.484a.855.855 0 100-1.71.855.855 0 000 1.71zm26.7-1.709a.855.855 0 100 1.71.855.855 0 000-1.71z"/><path d="M10.358 35.834h2.614a4.094 4.094 0 008.179 0h18.52a4.094 4.094 0 008.18 0h2.142a.83.83 0 00.617-.282 1.01 1.01 0 00.256-.68c0-.228-.074-.45-.209-.624l-.444-.574c.993-2.249.645-5.471.313-7.326-.19-1.07-.774-2.003-1.616-2.573-1.008-.682-2.726-1.615-5.557-2.61-5.636-1.98-15.597-.26-17.559 1.35-1.563 1.281-4.655 4.32-8.575 4.77-2.037.233-3.781.829-4.987 1.348-1.074.461-1.792 1.586-1.83 2.855l-.043 1.376-.68.5a1.31 1.31 0 00-.4.486 1.459 1.459 0 00-.145.636c0 .745.548 1.348 1.224 1.348zm35.99 0a2.598 2.598 0 01-2.587 2.39 2.598 2.598 0 01-2.595-2.594 2.598 2.598 0 012.595-2.596 2.598 2.598 0 012.587 2.8zm3.315-6.568a.45.45 0 01.357.418c.05.907-.085 1.842-.175 2.342a.448.448 0 01-.441.368h-.3a.448.448 0 01-.447-.49l.18-1.921a.448.448 0 01.114-.259l.288-.319a.448.448 0 01.424-.139zm-8.794-4.17l.301-1.403a1.453 1.453 0 011.269-1.14l.256-.027c.053.018.108.035.16.054 2.773.974 4.366 1.863 5.215 2.437.503.34.86.921.98 1.593l.042.244h-6.803a1.452 1.452 0 01-1.42-1.757zm-6.208 5.018h-1.5a.51.51 0 010-1.02h1.5a.51.51 0 010 1.02zm-8.52-5.929c.23-.196.428-.366.604-.51.262-.215 1.359-.745 3.643-1.221 1.9-.396 4.008-.63 6.002-.67l-.697 4a2.178 2.178 0 01-2.057 1.802l-10.415.422a2.177 2.177 0 01-1.587-.596c1.891-.993 3.42-2.297 4.507-3.227zm-9.08 8.85a2.598 2.598 0 012.587 2.8 2.598 2.598 0 01-2.587 2.389 2.598 2.598 0 01-2.595-2.594 2.598 2.598 0 012.595-2.596zm-5.09-2.88c.409 0 .74.5.74 1.12 0 .618-.331 1.12-.74 1.12-.408 0-.74-.502-.74-1.12 0-.62.332-1.12.74-1.12z"/><path d="M35.597 44.486h2.8c.114 2.167 2.032 3.89 4.382 3.89 2.35 0 4.268-1.723 4.382-3.89h19.844c.113 2.167 2.032 3.89 4.381 3.89 2.35 0 4.268-1.723 4.382-3.89h2.296a.92.92 0 00.66-.282.972.972 0 00.274-.68.976.976 0 00-.223-.623l-.477-.575c1.064-2.248.691-5.471.337-7.326a3.896 3.896 0 00-1.732-2.572c-1.08-.683-2.92-1.616-5.955-2.611-6.037-1.98-16.71-.26-18.812 1.35-1.675 1.282-4.988 4.32-9.188 4.77a20.32 20.32 0 00-5.343 1.348c-1.15.462-1.92 1.587-1.962 2.856l-.045 1.375-.729.5a1.334 1.334 0 00-.428.486c-.1.193-.155.411-.155.636 0 .745.587 1.348 1.31 1.348zm38.56 0c-.111 1.335-1.311 2.39-2.77 2.39-1.46 0-2.66-1.055-2.772-2.39a2.341 2.341 0 01-.009-.204c0-1.431 1.247-2.595 2.78-2.595 1.534 0 2.78 1.164 2.78 2.595 0 .069-.002.137-.008.204zm3.552-6.567a.46.46 0 01.383.417c.053.908-.091 1.843-.188 2.343a.472.472 0 01-.472.368h-.322c-.283 0-.504-.227-.478-.49l.193-1.922a.434.434 0 01.122-.259l.309-.319a.501.501 0 01.453-.138zm-9.422-4.17l.323-1.404c.141-.614.69-1.074 1.36-1.14l.273-.026.173.053c2.97.974 4.678 1.863 5.587 2.438.539.34.921.92 1.05 1.593l.044.244H69.81c-.333 0-.656-.1-.924-.283-.493-.34-.727-.916-.598-1.475zm-6.65 5.018h-1.608c-.302 0-.546-.229-.546-.51 0-.282.244-.51.546-.51h1.607c.302 0 .547.228.547.51 0 .282-.245.51-.547.51zm-9.13-5.93c.247-.196.46-.366.648-.51.28-.214 1.456-.745 3.902-1.22a38.404 38.404 0 016.432-.671l-.747 4c-.189 1.01-1.107 1.76-2.204 1.802l-11.159.423a2.43 2.43 0 01-1.7-.597c2.026-.992 3.663-2.297 4.828-3.226zm-9.728 8.85c1.533 0 2.78 1.164 2.78 2.595 0 .069-.003.137-.008.204-.112 1.335-1.313 2.39-2.772 2.39-1.46 0-2.66-1.055-2.771-2.39a2.381 2.381 0 01-.01-.204c0-1.431 1.248-2.595 2.781-2.595zm-5.453-2.88c.438 0 .792.501.792 1.12 0 .618-.355 1.12-.792 1.12-.438 0-.793-.502-.793-1.12 0-.619.355-1.12.793-1.12z"/></g><defs><clipPath id="clip0_419_3894"><path fill="#fff" d="M0 0h60v60H0z"/></clipPath></defs></svg>