<svg width="141" height="161" viewBox="0 0 141 161" fill="none" xmlns="http://www.w3.org/2000/svg">
<g id="edit-document_icon-icons.com_54542 1" clip-path="url(#clip0_456_147)">
<g id="Group">
<g id="Group_2">
<path id="Vector" d="M67.3926 36.1072C67.3926 39.6587 69.9844 42.0263 72.5764 42.0263H98.4955L67.3926 0.592529V36.1072Z" fill="white" fill-opacity="0.24"/>
<path id="Vector_2" d="M137.89 27.8205L131.669 20.7175C127.522 15.9822 121.302 15.9822 117.154 20.7175L98.4926 42.0263L93.3088 47.9454H72.5735C66.8712 47.9454 62.2059 42.6184 62.2059 36.1072V0.592529H10.3676C4.66531 0.592529 0 5.91958 0 12.4308V148.57C0 155.081 4.66531 160.409 10.3676 160.409H88.125C93.8271 160.409 98.4926 155.081 98.4926 148.57V89.3792L137.89 44.394C142.037 39.6587 142.037 32.5557 137.89 27.8205ZM43.0256 129.037L46.1359 110.688L59.0953 125.485L43.0256 129.037ZM63.2426 121.342L49.7647 105.952L107.824 39.6584L121.302 55.0481L63.2426 121.342ZM134.261 40.2504L125.449 50.3128L111.971 34.9231L120.783 24.8607C122.857 22.4931 125.967 22.4931 128.041 24.8607L134.261 31.9637C136.334 34.3313 136.334 37.8828 134.261 40.2504Z" fill="white" fill-opacity="0.24"/>
</g>
</g>
</g>
<defs>
<clipPath id="clip0_456_147">
<rect width="141" height="161" fill="white"/>
</clipPath>
</defs>
</svg>
