<svg width="252" height="185" viewBox="0 0 252 185" fill="none" xmlns="http://www.w3.org/2000/svg">
<g id="users-team_icon-icons.com_57998 1" clip-path="url(#clip0_456_152)">
<g id="users-team-users-team">
<path id="Vector" d="M144.935 141.334C141.154 140.733 141.068 130.421 141.068 130.421C141.068 130.421 152.172 119.5 154.587 104.821C161.094 104.821 165.113 89.2118 158.602 83.7198C158.881 77.9385 166.965 38.3459 126 38.3459C85.0396 38.3459 93.1325 77.9385 93.4029 83.7198C86.8961 89.2118 90.9155 104.821 97.4223 104.821C99.8376 119.501 110.941 130.421 110.941 130.421C110.941 130.421 110.851 140.733 107.074 141.334C94.9079 143.262 49.4863 163.167 49.4863 185H126H202.523C202.523 163.167 157.101 143.262 144.935 141.334Z" fill="white" fill-opacity="0.21"/>
<g id="Group">
<path id="Vector_2" d="M68.556 144.816C77.3474 139.396 88.0135 134.373 96.7643 131.343C93.6236 126.876 90.1268 120.774 87.9323 113.561C84.8681 111.05 82.3627 107.454 80.7541 103.055C79.1544 98.6334 78.5416 93.6969 79.0463 89.1397C79.4023 85.8606 80.335 82.8073 81.7589 80.1336C80.8983 70.8203 80.2809 52.5597 92.2132 39.2403C96.8455 34.0732 102.685 30.3605 109.692 28.1249C108.435 15.1757 101.888 0 76.5228 0C35.5532 0 43.6462 39.5926 43.921 45.3737C37.4143 50.8569 41.4337 66.4753 47.9405 66.4753C50.3603 81.1453 61.4544 92.0663 61.4544 92.0663C61.4544 92.0663 61.3642 102.382 57.5926 102.987C45.4216 104.907 0 124.812 0 146.654H65.6811C66.6229 146.035 67.5737 145.43 68.556 144.816Z" fill="white" fill-opacity="0.21"/>
<path id="Vector_3" d="M186.322 146.654H251.999C251.999 124.812 206.578 104.907 194.402 102.987C190.639 102.382 190.549 92.0663 190.549 92.0663C190.549 92.0663 201.648 81.1453 204.067 66.4753C210.575 66.4753 214.594 50.8569 208.087 45.3737C208.357 39.5926 216.451 0 175.481 0C150.116 0 143.564 15.1757 142.307 28.1249C149.323 30.3605 155.163 34.0732 159.786 39.2403C171.718 52.5597 171.101 70.8203 170.245 80.1336C171.673 82.8073 172.602 85.8606 172.957 89.1397C173.466 93.6969 172.849 98.6334 171.25 103.055C169.636 107.454 167.14 111.05 164.071 113.561C161.872 120.774 158.371 126.876 155.235 131.343C163.986 134.373 174.661 139.396 183.443 144.816C184.425 145.43 185.385 146.035 186.322 146.654Z" fill="white" fill-opacity="0.21"/>
</g>
</g>
</g>
<defs>
<clipPath id="clip0_456_152">
<rect width="252" height="185" fill="white"/>
</clipPath>
</defs>
</svg>
