<svg width="23" height="13" fill="none" xmlns="http://www.w3.org/2000/svg"><path d="M21.54 1.11c.116-.47 0-.86-.704-.86H18.53c-.586 0-.86.313-1.015.664 0 0-1.172 2.852-2.813 4.727-.547.507-.781.703-1.094.703-.117 0-.351-.196-.351-.664V1.11c0-.587-.156-.86-.664-.86H9c-.39 0-.586.273-.586.547 0 .547.82.664.899 2.226v3.399c0 .742-.118.898-.43.898-.781 0-2.656-2.89-3.79-6.172C4.86.523 4.626.25 4.04.25H1.734c-.625 0-.78.313-.78.664 0 .625.78 3.633 3.632 7.656 1.914 2.735 4.61 4.18 7.031 4.18 1.445 0 1.64-.313 1.64-.86 0-2.617-.116-2.89.587-2.89.351 0 .937.195 2.304 1.523 1.563 1.563 1.836 2.227 2.696 2.227h2.304c.665 0 .977-.313.782-.977-.43-1.328-3.36-4.14-3.516-4.335-.352-.43-.234-.625 0-1.016 0 0 2.813-3.984 3.125-5.313z" fill="#242321"/></svg>